/*data from file "sounds/aviatros_march.midi". Generated automatically*/
{
 0x4D, 0x54, 0x68, 0x64, 0x00, 0x00, 0x00, 0x06, 0x00, 0x00, 0x00, 0x01, 0x03, 0xC0, 0x4D, 0x54,
 0x72, 0x6B, 0x00, 0x00, 0x16, 0xF1, 0x00, 0xFF, 0x03, 0x08, 0xC0, 0xE2, 0xE8, 0xE0, 0xEC, 0xE0,
 0xF0, 0xF8, 0x00, 0xFF, 0x02, 0x1F, 0x43, 0x6F, 0x70, 0x79, 0x72, 0x69, 0x67, 0x68, 0x74, 0x20,
 0xA9, 0x20, 0x32, 0x30, 0x31, 0x30, 0x20, 0x62, 0x79, 0x20, 0x53, 0x68, 0x61, 0x62, 0x61, 0x74,
 0x6F, 0x76, 0x73, 0x6B, 0x79, 0x00, 0xFF, 0x01, 0x20, 0xCC, 0xF3, 0xE7, 0xFB, 0xEA, 0xE0, 0x20,
 0xDE, 0x2E, 0x20, 0xD5, 0xE0, 0xE9, 0xF2, 0xE0, 0x20, 0xD1, 0xEB, 0xEE, 0xE2, 0xE0, 0x20, 0xCF,
 0x2E, 0x20, 0xC3, 0xE5, 0xF0, 0xEC, 0xE0, 0xED, 0xE0, 0x00, 0xFF, 0x01, 0x27, 0xE6, 0xA6, 0xA2,
 0x76, 0xB7, 0xA8, 0x20, 0xE6, 0xA1, 0xBF, 0xA4, 0x20, 0xE6, 0xA6, 0xEA, 0xA6, 0xBF, 0x20, 0xE8,
 0xA6, 0xAC, 0xAC, 0xB7, 0xB0, 0x07, 0x20, 0xEA, 0xBF, 0xB7, 0xAC, 0xEA, 0x20, 0x4C, 0x2E, 0x20,
 0xE6, 0xA6, 0xE1, 0x0A, 0x00, 0xFF, 0x01, 0x0F, 0xF6, 0xE6, 0xE1, 0xAC, 0x20, 0xEF, 0xAC, 0x20,
 0x54, 0x2D, 0x76, 0xE6, 0x20, 0x20, 0x0A, 0x00, 0xFF, 0x01, 0x27, 0xF1, 0xE1, 0xEA, 0x76, 0xB9,
 0x2D, 0x20, 0xF1, 0xAC, 0xB9, 0xEF, 0x20, 0xF1, 0xE1, 0xEC, 0xE1, 0xB9, 0x20, 0x2D, 0xE1, 0xA6,
 0xA6, 0xB9, 0x2D, 0x2D, 0x20, 0xEC, 0xB9, 0xB9, 0xA6, 0xEC, 0x20, 0x4C, 0x2E, 0x20, 0xF1, 0xE1,
 0xEC, 0x0A, 0x00, 0xFF, 0x01, 0x44, 0x20, 0x20, 0x20, 0x20, 0x20, 0x20, 0x20, 0x20, 0x20, 0x20,
 0x20, 0x20, 0x20, 0x20, 0x20, 0x20, 0x20, 0x20, 0x20, 0x20, 0x20, 0x20, 0x20, 0x20, 0x20, 0x20,
 0x20, 0x20, 0x20, 0x20, 0x20, 0x20, 0x20, 0x20, 0x20, 0x20, 0x20, 0x20, 0x20, 0x20, 0x20, 0x20,
 0x20, 0x20, 0x20, 0x20, 0x20, 0x20, 0x20, 0x20, 0x20, 0x20, 0x55, 0x53, 0x49, 0x4E, 0x47, 0x20,
 0x54, 0x45, 0x4D, 0x50, 0x4C, 0x41, 0x54, 0x45, 0x53, 0x0A, 0x00, 0xFF, 0x01, 0x81, 0x2B, 0x54,
 0x68, 0x69, 0x73, 0x20, 0x69, 0x73, 0x20, 0x61, 0x20, 0x74, 0x65, 0x6D, 0x70, 0x6C, 0x61, 0x74,
 0x65, 0x20, 0x74, 0x68, 0x61, 0x74, 0x20, 0x63, 0x6F, 0x6E, 0x66, 0x69, 0x67, 0x75, 0x72, 0x65,
 0x73, 0x20, 0x66, 0x6F, 0x75, 0x72, 0x20, 0x74, 0x72, 0x61, 0x63, 0x6B, 0x73, 0x20, 0x66, 0x6F,
 0x72, 0x20, 0x61, 0x20, 0x72, 0x6F, 0x63, 0x6B, 0x20, 0x71, 0x75, 0x61, 0x72, 0x74, 0x65, 0x74,
 0x2E, 0x20, 0x20, 0x47, 0x65, 0x6E, 0x65, 0x72, 0x61, 0x6C, 0x20, 0x4D, 0x49, 0x44, 0x49, 0x20,
 0x70, 0x61, 0x74, 0x63, 0x68, 0x65, 0x73, 0x20, 0x61, 0x72, 0x65, 0x20, 0x75, 0x73, 0x65, 0x64,
 0x2E, 0x20, 0x20, 0x54, 0x68, 0x65, 0x20, 0x50, 0x61, 0x6E, 0x20, 0x70, 0x61, 0x72, 0x61, 0x6D,
 0x65, 0x74, 0x65, 0x72, 0x20, 0x69, 0x73, 0x20, 0x75, 0x73, 0x65, 0x64, 0x20, 0x74, 0x6F, 0x20,
 0x63, 0x72, 0x65, 0x61, 0x74, 0x65, 0x20, 0x61, 0x20, 0x74, 0x72, 0x61, 0x64, 0x69, 0x74, 0x69,
 0x6F, 0x6E, 0x61, 0x6C, 0x20, 0x73, 0x65, 0x61, 0x74, 0x69, 0x6E, 0x67, 0x20, 0x61, 0x72, 0x72,
 0x61, 0x6E, 0x67, 0x65, 0x6D, 0x65, 0x6E, 0x74, 0x2E, 0x0A, 0x00, 0xFF, 0x01, 0x45, 0x20, 0x20,
 0x20, 0x20, 0x20, 0x20, 0x20, 0x20, 0x20, 0x20, 0x20, 0x20, 0x20, 0x20, 0x20, 0x20, 0x20, 0x20,
 0x20, 0x20, 0x20, 0x20, 0x20, 0x20, 0x20, 0x20, 0x20, 0x20, 0x20, 0x20, 0x20, 0x20, 0x20, 0x20,
 0x20, 0x20, 0x20, 0x20, 0x20, 0x20, 0x20, 0x20, 0x20, 0x20, 0x20, 0x20, 0x20, 0x20, 0x20, 0x20,
 0x55, 0x53, 0x49, 0x4E, 0x47, 0x20, 0x4B, 0x45, 0x59, 0x2B, 0x20, 0x4F, 0x46, 0x46, 0x53, 0x45,
 0x54, 0x53, 0x0A, 0x00, 0xFF, 0x01, 0x81, 0x7F, 0x53, 0x6F, 0x6D, 0x65, 0x20, 0x69, 0x6E, 0x73,
 0x74, 0x72, 0x75, 0x6D, 0x65, 0x6E, 0x74, 0x73, 0x20, 0x61, 0x72, 0x65, 0x20, 0x74, 0x72, 0x61,
 0x64, 0x69, 0x74, 0x69, 0x6F, 0x6E, 0x61, 0x6C, 0x6C, 0x79, 0x20, 0x6E, 0x6F, 0x74, 0x61, 0x74,
 0x65, 0x64, 0x20, 0x74, 0x72, 0x61, 0x6E, 0x73, 0x70, 0x6F, 0x73, 0x65, 0x64, 0x20, 0x74, 0x6F,
 0x20, 0x61, 0x20, 0x64, 0x69, 0x66, 0x66, 0x65, 0x72, 0x65, 0x6E, 0x74, 0x20, 0x6B, 0x65, 0x79,
 0x20, 0x61, 0x6E, 0x64, 0x2F, 0x6F, 0x72, 0x20, 0x6F, 0x63, 0x74, 0x61, 0x76, 0x65, 0x20, 0x74,
 0x68, 0x61, 0x6E, 0x20, 0x74, 0x68, 0x65, 0x79, 0x20, 0x73, 0x6F, 0x75, 0x6E, 0x64, 0x2E, 0x20,
 0x20, 0x54, 0x68, 0x69, 0x73, 0x20, 0x65, 0x66, 0x66, 0x65, 0x63, 0x74, 0x20, 0x63, 0x61, 0x6E,
 0x20, 0x62, 0x65, 0x20, 0x61, 0x63, 0x63, 0x6F, 0x6D, 0x70, 0x6C, 0x69, 0x73, 0x68, 0x65, 0x64,
 0x20, 0x69, 0x6E, 0x20, 0x4D, 0x75, 0x73, 0x69, 0x63, 0x20, 0x43, 0x72, 0x65, 0x61, 0x74, 0x6F,
 0x72, 0x20, 0x74, 0x68, 0x72, 0x6F, 0x75, 0x67, 0x68, 0x20, 0x75, 0x73, 0x65, 0x20, 0x6F, 0x66,
 0x20, 0x74, 0x68, 0x65, 0x20, 0x54, 0x72, 0x61, 0x63, 0x6B, 0x20, 0x76, 0x69, 0x65, 0x77, 0x20,
 0x4B, 0x65, 0x79, 0x2B, 0x20, 0x70, 0x61, 0x72, 0x61, 0x6D, 0x65, 0x74, 0x65, 0x72, 0x2E, 0x20,
 0x20, 0x46, 0x6F, 0x72, 0x20, 0x65, 0x78, 0x61, 0x6D, 0x70, 0x6C, 0x65, 0x2C, 0x20, 0x74, 0x68,
 0x65, 0x20, 0x74, 0x65, 0x6E, 0x6F, 0x72, 0x20, 0x73, 0x61, 0x78, 0x6F, 0x70, 0x68, 0x6F, 0x6E,
 0x65, 0x20, 0x4B, 0x65, 0x79, 0x2B, 0x20, 0x73, 0x68, 0x6F, 0x75, 0x6C, 0x64, 0x20, 0x62, 0x65,
 0x20, 0x73, 0x65, 0x74, 0x20, 0x74, 0x0A, 0x00, 0xFF, 0x01, 0x81, 0x7F, 0x57, 0x69, 0x74, 0x68,
 0x20, 0x74, 0x68, 0x65, 0x20, 0x4B, 0x65, 0x79, 0x2B, 0x20, 0x70, 0x61, 0x72, 0x61, 0x6D, 0x65,
 0x74, 0x65, 0x72, 0x20, 0x73, 0x65, 0x74, 0x2C, 0x20, 0x74, 0x68, 0x65, 0x20, 0x6E, 0x6F, 0x74,
 0x65, 0x73, 0x20, 0x79, 0x6F, 0x75, 0x20, 0x73, 0x65, 0x65, 0x20, 0x69, 0x6E, 0x20, 0x61, 0x6C,
 0x6C, 0x20, 0x74, 0x68, 0x65, 0x20, 0x4D, 0x75, 0x73, 0x69, 0x63, 0x20, 0x43, 0x72, 0x65, 0x61,
 0x74, 0x6F, 0x72, 0x20, 0x76, 0x69, 0x65, 0x77, 0x73, 0x20, 0x61, 0x6E, 0x64, 0x20, 0x74, 0x68,
 0x65, 0x20, 0x6E, 0x6F, 0x74, 0x65, 0x73, 0x20, 0x79, 0x6F, 0x75, 0x20, 0x70, 0x6C, 0x61, 0x79,
 0x20, 0x77, 0x69, 0x6C, 0x6C, 0x20, 0x62, 0x65, 0x20, 0x69, 0x6E, 0x20, 0x74, 0x68, 0x65, 0x20,
 0x74, 0x72, 0x61, 0x6E, 0x73, 0x70, 0x6F, 0x73, 0x65, 0x64, 0x20, 0x6B, 0x65, 0x79, 0x2E, 0x20,
 0x20, 0x54, 0x68, 0x65, 0x20, 0x6E, 0x6F, 0x74, 0x65, 0x73, 0x20, 0x79, 0x6F, 0x75, 0x20, 0x68,
 0x65, 0x61, 0x72, 0x20, 0x64, 0x75, 0x72, 0x69, 0x6E, 0x67, 0x20, 0x70, 0x6C, 0x61, 0x79, 0x62,
 0x61, 0x63, 0x6B, 0x20, 0x61, 0x6E, 0x64, 0x20, 0x76, 0x69, 0x61, 0x20, 0x4D, 0x49, 0x44, 0x49,
 0x20, 0x54, 0x68, 0x72, 0x75, 0x20, 0x77, 0x69, 0x6C, 0x6C, 0x20, 0x62, 0x65, 0x20, 0x69, 0x6E,
 0x20, 0x74, 0x68, 0x65, 0x20, 0x6E, 0x6F, 0x72, 0x6D, 0x61, 0x6C, 0x2C, 0x20, 0x75, 0x6E, 0x74,
 0x72, 0x61, 0x6E, 0x73, 0x70, 0x6F, 0x73, 0x65, 0x64, 0x20, 0x6B, 0x65, 0x79, 0x2E, 0x20, 0x20,
 0x54, 0x68, 0x69, 0x73, 0x20, 0x69, 0x73, 0x20, 0x6E, 0x61, 0x74, 0x75, 0x72, 0x61, 0x6C, 0x20,
 0x69, 0x66, 0x20, 0x79, 0x6F, 0x75, 0x20, 0x61, 0x72, 0x65, 0x0A, 0x00, 0xFF, 0x01, 0x46, 0x20,
 0x20, 0x20, 0x20, 0x20, 0x20, 0x20, 0x20, 0x20, 0x20, 0x20, 0x20, 0x20, 0x20, 0x20, 0x20, 0x20,
 0x20, 0x20, 0x20, 0x20, 0x20, 0x20, 0x20, 0x20, 0x20, 0x20, 0x20, 0x20, 0x20, 0x20, 0x20, 0x20,
 0x20, 0x20, 0x20, 0x20, 0x20, 0x20, 0x20, 0x20, 0x20, 0x20, 0x4E, 0x4F, 0x54, 0x20, 0x55, 0x53,
 0x49, 0x4E, 0x47, 0x20, 0x54, 0x48, 0x45, 0x20, 0x4B, 0x45, 0x59, 0x2B, 0x20, 0x4F, 0x46, 0x46,
 0x53, 0x45, 0x54, 0x53, 0x0A, 0x00, 0xFF, 0x01, 0x81, 0x7F, 0x49, 0x66, 0x20, 0x79, 0x6F, 0x75,
 0x20, 0x70, 0x72, 0x65, 0x66, 0x65, 0x72, 0x20, 0x74, 0x6F, 0x20, 0x64, 0x65, 0x76, 0x65, 0x6C,
 0x6F, 0x70, 0x20, 0x74, 0x68, 0x65, 0x20, 0x69, 0x6E, 0x73, 0x74, 0x72, 0x75, 0x6D, 0x65, 0x6E,
 0x74, 0x27, 0x73, 0x20, 0x70, 0x61, 0x72, 0x74, 0x20, 0x69, 0x6E, 0x20, 0x74, 0x68, 0x65, 0x20,
 0x6E, 0x6F, 0x72, 0x6D, 0x61, 0x6C, 0x2C, 0x20, 0x75, 0x6E, 0x74, 0x72, 0x61, 0x6E, 0x73, 0x70,
 0x6F, 0x73, 0x65, 0x64, 0x20, 0x6B, 0x65, 0x79, 0x2C, 0x20, 0x79, 0x6F, 0x75, 0x20, 0x6D, 0x61,
 0x79, 0x20, 0x77, 0x69, 0x73, 0x68, 0x20, 0x74, 0x6F, 0x20, 0x73, 0x65, 0x74, 0x20, 0x74, 0x68,
 0x65, 0x20, 0x4B, 0x65, 0x79, 0x2B, 0x20, 0x74, 0x6F, 0x20, 0x30, 0x2E, 0x20, 0x20, 0x49, 0x66,
 0x20, 0x79, 0x6F, 0x75, 0x20, 0x64, 0x6F, 0x20, 0x74, 0x68, 0x69, 0x73, 0x2C, 0x20, 0x74, 0x68,
 0x65, 0x6E, 0x20, 0x74, 0x68, 0x65, 0x20, 0x6E, 0x6F, 0x74, 0x61, 0x74, 0x69, 0x6F, 0x6E, 0x20,
 0x69, 0x6E, 0x20, 0x74, 0x68, 0x65, 0x20, 0x53, 0x74, 0x61, 0x66, 0x66, 0x20, 0x76, 0x69, 0x65,
 0x77, 0x20, 0x77, 0x69, 0x6C, 0x6C, 0x20, 0x6E, 0x6F, 0x74, 0x20, 0x62, 0x65, 0x20, 0x74, 0x72,
 0x61, 0x6E, 0x73, 0x70, 0x6F, 0x73, 0x65, 0x64, 0x20, 0x69, 0x6E, 0x20, 0x74, 0x68, 0x65, 0x20,
 0x74, 0x72, 0x61, 0x64, 0x69, 0x74, 0x69, 0x6F, 0x6E, 0x61, 0x6C, 0x20, 0x77, 0x61, 0x79, 0x2E,
 0x20, 0x20, 0x28, 0x48, 0x69, 0x6E, 0x74, 0x3A, 0x20, 0x49, 0x66, 0x20, 0x79, 0x6F, 0x75, 0x20,
 0x6E, 0x65, 0x65, 0x64, 0x20, 0x74, 0x6F, 0x20, 0x63, 0x68, 0x61, 0x6E, 0x67, 0x65, 0x20, 0x73,
 0x65, 0x76, 0x65, 0x72, 0x61, 0x6C, 0x20, 0x74, 0x0A, 0x00, 0xFF, 0x01, 0x81, 0x7F, 0x41, 0x74,
 0x20, 0x73, 0x6F, 0x6D, 0x65, 0x20, 0x6C, 0x61, 0x74, 0x65, 0x72, 0x20, 0x70, 0x6F, 0x69, 0x6E,
 0x74, 0x2C, 0x20, 0x69, 0x66, 0x20, 0x79, 0x6F, 0x75, 0x20, 0x77, 0x69, 0x73, 0x68, 0x20, 0x74,
 0x6F, 0x20, 0x73, 0x65, 0x65, 0x20, 0x74, 0x68, 0x65, 0x20, 0x70, 0x61, 0x72, 0x74, 0x20, 0x6E,
 0x6F, 0x74, 0x61, 0x74, 0x65, 0x64, 0x20, 0x70, 0x72, 0x6F, 0x70, 0x65, 0x72, 0x6C, 0x79, 0x2C,
 0x20, 0x79, 0x6F, 0x75, 0x20, 0x63, 0x61, 0x6E, 0x20, 0x61, 0x6C, 0x77, 0x61, 0x79, 0x73, 0x20,
 0x72, 0x65, 0x73, 0x74, 0x6F, 0x72, 0x65, 0x20, 0x74, 0x68, 0x65, 0x20, 0x6F, 0x72, 0x69, 0x67,
 0x69, 0x6E, 0x61, 0x6C, 0x20, 0x4B, 0x65, 0x79, 0x2B, 0x20, 0x6F, 0x66, 0x66, 0x73, 0x65, 0x74,
 0x20, 0x61, 0x6E, 0x64, 0x20, 0x74, 0x72, 0x61, 0x6E, 0x73, 0x70, 0x6F, 0x73, 0x65, 0x20, 0x74,
 0x68, 0x65, 0x20, 0x70, 0x61, 0x72, 0x74, 0x20, 0x75, 0x73, 0x69, 0x6E, 0x67, 0x20, 0x45, 0x64,
 0x69, 0x74, 0x20, 0x7C, 0x20, 0x54, 0x72, 0x61, 0x6E, 0x73, 0x70, 0x6F, 0x73, 0x65, 0x2E, 0x20,
 0x20, 0x54, 0x6F, 0x20, 0x72, 0x65, 0x73, 0x74, 0x6F, 0x72, 0x65, 0x20, 0x74, 0x68, 0x65, 0x20,
 0x6F, 0x72, 0x69, 0x67, 0x69, 0x6E, 0x61, 0x6C, 0x20, 0x4B, 0x65, 0x79, 0x2B, 0x20, 0x6F, 0x66,
 0x66, 0x73, 0x65, 0x74, 0x73, 0x20, 0x66, 0x6F, 0x72, 0x20, 0x74, 0x68, 0x69, 0x73, 0x20, 0x74,
 0x65, 0x6D, 0x70, 0x6C, 0x61, 0x74, 0x65, 0x2C, 0x20, 0x72, 0x65, 0x66, 0x65, 0x72, 0x20, 0x74,
 0x6F, 0x20, 0x74, 0x68, 0x65, 0x20, 0x63, 0x68, 0x61, 0x72, 0x74, 0x20, 0x62, 0x65, 0x6C, 0x6F,
 0x77, 0x20, 0x66, 0x6F, 0x72, 0x20, 0x74, 0x68, 0x65, 0x20, 0x54, 0x72, 0x0A, 0x00, 0xFF, 0x01,
 0x44, 0x20, 0x20, 0x20, 0x20, 0x20, 0x20, 0x20, 0x20, 0x20, 0x20, 0x20, 0x20, 0x20, 0x20, 0x20,
 0x20, 0x20, 0x20, 0x20, 0x20, 0x20, 0x20, 0x20, 0x20, 0x20, 0x20, 0x20, 0x20, 0x20, 0x20, 0x20,
 0x20, 0x20, 0x20, 0x20, 0x20, 0x20, 0x20, 0x20, 0x20, 0x20, 0x20, 0x20, 0x20, 0x20, 0x20, 0x20,
 0x20, 0x20, 0x20, 0x54, 0x45, 0x4D, 0x50, 0x4C, 0x41, 0x54, 0x45, 0x20, 0x53, 0x45, 0x54, 0x54,
 0x49, 0x4E, 0x47, 0x53, 0x0A, 0x00, 0xFF, 0x01, 0x48, 0x20, 0x20, 0x20, 0x20, 0x20, 0x20, 0x20,
 0x20, 0x20, 0x20, 0x20, 0x20, 0x20, 0x20, 0x20, 0x20, 0x20, 0x20, 0x20, 0x20, 0x20, 0x20, 0x20,
 0x20, 0x20, 0x20, 0x20, 0x20, 0x20, 0x20, 0x20, 0x20, 0x20, 0x20, 0x20, 0x20, 0x20, 0x20, 0x20,
 0x20, 0x20, 0x20, 0x20, 0x20, 0x20, 0x20, 0x28, 0x4D, 0x69, 0x64, 0x64, 0x6C, 0x65, 0x20, 0x43,
 0x20, 0x69, 0x73, 0x20, 0x43, 0x35, 0x20, 0x69, 0x6E, 0x20, 0x53, 0x4F, 0x4E, 0x41, 0x52, 0x29,
 0x0A, 0x00, 0xFF, 0x01, 0x63, 0x54, 0x72, 0x61, 0x63, 0x6B, 0x20, 0x20, 0x20, 0x49, 0x6E, 0x73,
 0x74, 0x72, 0x75, 0x6D, 0x65, 0x6E, 0x74, 0x20, 0x20, 0x20, 0x20, 0x4B, 0x65, 0x79, 0x2B, 0x20,
 0x20, 0x20, 0x20, 0x43, 0x68, 0x6E, 0x20, 0x20, 0x20, 0x20, 0x20, 0x50, 0x61, 0x6E, 0x20, 0x20,
 0x20, 0x20, 0x20, 0x52, 0x61, 0x6E, 0x67, 0x65, 0x20, 0x28, 0x75, 0x6E, 0x74, 0x72, 0x61, 0x6E,
 0x73, 0x70, 0x6F, 0x73, 0x65, 0x64, 0x29, 0x20, 0x20, 0x20, 0x20, 0x20, 0x55, 0x73, 0x65, 0x66,
 0x75, 0x6C, 0x20, 0x52, 0x61, 0x6E, 0x67, 0x65, 0x20, 0x28, 0x75, 0x6E, 0x74, 0x72, 0x61, 0x6E,
 0x73, 0x70, 0x6F, 0x73, 0x65, 0x64, 0x29, 0x0A, 0x00, 0xFF, 0x01, 0x50, 0x5F, 0x5F, 0x5F, 0x5F,
 0x5F, 0x5F, 0x5F, 0x5F, 0x5F, 0x5F, 0x5F, 0x5F, 0x5F, 0x5F, 0x5F, 0x5F, 0x5F, 0x5F, 0x5F, 0x5F,
 0x5F, 0x5F, 0x5F, 0x5F, 0x5F, 0x5F, 0x5F, 0x5F, 0x5F, 0x5F, 0x5F, 0x5F, 0x5F, 0x5F, 0x5F, 0x5F,
 0x5F, 0x5F, 0x5F, 0x5F, 0x5F, 0x5F, 0x5F, 0x5F, 0x5F, 0x5F, 0x5F, 0x5F, 0x5F, 0x5F, 0x5F, 0x5F,
 0x5F, 0x5F, 0x5F, 0x5F, 0x5F, 0x5F, 0x5F, 0x5F, 0x5F, 0x5F, 0x5F, 0x5F, 0x5F, 0x5F, 0x5F, 0x5F,
 0x5F, 0x5F, 0x5F, 0x5F, 0x5F, 0x5F, 0x5F, 0x5F, 0x5F, 0x5F, 0x5F, 0x0A, 0x00, 0xFF, 0x01, 0x6C,
 0x31, 0x2E, 0x20, 0x20, 0x20, 0x20, 0x20, 0x20, 0x20, 0x20, 0x47, 0x75, 0x74, 0x69, 0x61, 0x72,
 0x20, 0x20, 0x20, 0x20, 0x20, 0x20, 0x20, 0x20, 0x20, 0x20, 0x20, 0x20, 0x2D, 0x31, 0x32, 0x20,
 0x20, 0x20, 0x20, 0x20, 0x20, 0x20, 0x20, 0x31, 0x20, 0x20, 0x20, 0x20, 0x20, 0x20, 0x20, 0x39,
 0x34, 0x20, 0x20, 0x20, 0x20, 0x20, 0x20, 0x20, 0x20, 0x20, 0x20, 0x20, 0x20, 0x20, 0x45, 0x33,
 0x20, 0x74, 0x6F, 0x20, 0x42, 0x36, 0x20, 0x20, 0x20, 0x20, 0x20, 0x20, 0x20, 0x20, 0x20, 0x20,
 0x20, 0x20, 0x20, 0x20, 0x20, 0x20, 0x20, 0x20, 0x20, 0x20, 0x20, 0x20, 0x20, 0x20, 0x20, 0x20,
 0x20, 0x20, 0x20, 0x45, 0x33, 0x20, 0x74, 0x6F, 0x20, 0x42, 0x36, 0x0A, 0x00, 0xFF, 0x01, 0x6D,
 0x32, 0x2E, 0x20, 0x20, 0x20, 0x20, 0x20, 0x20, 0x20, 0x20, 0x4F, 0x72, 0x67, 0x61, 0x6E, 0x20,
 0x20, 0x20, 0x20, 0x20, 0x20, 0x20, 0x20, 0x20, 0x20, 0x20, 0x20, 0x20, 0x20, 0x30, 0x20, 0x20,
 0x20, 0x20, 0x20, 0x20, 0x20, 0x20, 0x20, 0x32, 0x20, 0x20, 0x20, 0x20, 0x20, 0x20, 0x20, 0x33,
 0x34, 0x20, 0x20, 0x20, 0x20, 0x20, 0x20, 0x20, 0x20, 0x20, 0x20, 0x20, 0x20, 0x20, 0x20, 0x20,
 0x20, 0x20, 0x6E, 0x2F, 0x61, 0x20, 0x20, 0x20, 0x20, 0x20, 0x20, 0x20, 0x20, 0x20, 0x20, 0x20,
 0x20, 0x20, 0x20, 0x20, 0x20, 0x20, 0x20, 0x20, 0x20, 0x20, 0x20, 0x20, 0x20, 0x20, 0x20, 0x20,
 0x20, 0x20, 0x20, 0x20, 0x20, 0x20, 0x20, 0x20, 0x20, 0x6E, 0x2F, 0x61, 0x0A, 0x00, 0xFF, 0x01,
 0x6C, 0x33, 0x2E, 0x20, 0x20, 0x20, 0x20, 0x20, 0x20, 0x20, 0x20, 0x42, 0x61, 0x73, 0x73, 0x20,
 0x20, 0x20, 0x20, 0x20, 0x20, 0x20, 0x20, 0x20, 0x20, 0x20, 0x20, 0x20, 0x20, 0x2D, 0x31, 0x32,
 0x20, 0x20, 0x20, 0x20, 0x20, 0x20, 0x20, 0x20, 0x33, 0x20, 0x20, 0x20, 0x20, 0x20, 0x20, 0x20,
 0x36, 0x34, 0x20, 0x20, 0x20, 0x20, 0x20, 0x20, 0x20, 0x20, 0x20, 0x20, 0x20, 0x20, 0x20, 0x45,
 0x32, 0x20, 0x74, 0x6F, 0x20, 0x46, 0x35, 0x20, 0x20, 0x20, 0x20, 0x20, 0x20, 0x20, 0x20, 0x20,
 0x20, 0x20, 0x20, 0x20, 0x20, 0x20, 0x20, 0x20, 0x20, 0x20, 0x20, 0x20, 0x20, 0x20, 0x20, 0x20,
 0x20, 0x20, 0x20, 0x20, 0x45, 0x32, 0x20, 0x74, 0x6F, 0x20, 0x46, 0x35, 0x0A, 0x00, 0xFF, 0x01,
 0x6C, 0x34, 0x2E, 0x20, 0x20, 0x20, 0x20, 0x20, 0x20, 0x20, 0x20, 0x44, 0x72, 0x75, 0x6D, 0x73,
 0x20, 0x20, 0x20, 0x20, 0x20, 0x20, 0x20, 0x20, 0x20, 0x20, 0x20, 0x20, 0x20, 0x20, 0x30, 0x20,
 0x20, 0x20, 0x20, 0x20, 0x20, 0x20, 0x20, 0x31, 0x30, 0x20, 0x20, 0x20, 0x20, 0x20, 0x20, 0x36,
 0x34, 0x20, 0x20, 0x20, 0x20, 0x20, 0x20, 0x20, 0x20, 0x20, 0x20, 0x20, 0x20, 0x20, 0x20, 0x20,
 0x20, 0x20, 0x6E, 0x2F, 0x61, 0x20, 0x20, 0x20, 0x20, 0x20, 0x20, 0x20, 0x20, 0x20, 0x20, 0x20,
 0x20, 0x20, 0x20, 0x20, 0x20, 0x20, 0x20, 0x20, 0x20, 0x20, 0x20, 0x20, 0x20, 0x20, 0x20, 0x20,
 0x20, 0x20, 0x20, 0x20, 0x20, 0x20, 0x20, 0x20, 0x20, 0x6E, 0x2F, 0x61, 0x0A, 0x00, 0xFF, 0x58,
 0x04, 0x04, 0x02, 0x18, 0x08, 0x00, 0xFF, 0x59, 0x02, 0x00, 0x00, 0x00, 0xFF, 0x51, 0x03, 0x08,
 0x52, 0xAF, 0x00, 0xB0, 0x00, 0x00, 0x00, 0x07, 0x7F, 0x00, 0x0A, 0x5E, 0x00, 0xC1, 0x21, 0x00,
 0xB2, 0x00, 0x00, 0x00, 0x20, 0x00, 0x00, 0xC2, 0x39, 0x00, 0xB2, 0x07, 0x64, 0x00, 0x92, 0x45,
 0x64, 0x01, 0xB0, 0x20, 0x00, 0x01, 0xC0, 0x49, 0x83, 0x5E, 0x92, 0x45, 0x00, 0x00, 0x45, 0x64,
 0x81, 0x70, 0x45, 0x00, 0x00, 0x45, 0x64, 0x81, 0x70, 0x45, 0x00, 0x00, 0x45, 0x64, 0x81, 0x70,
 0x45, 0x00, 0x00, 0x44, 0x64, 0x81, 0x70, 0x44, 0x00, 0x00, 0x45, 0x64, 0x81, 0x70, 0x45, 0x00,
 0x00, 0x47, 0x64, 0x81, 0x70, 0x47, 0x00, 0x00, 0x49, 0x64, 0x83, 0x60, 0x49, 0x00, 0x00, 0x49,
 0x64, 0x83, 0x60, 0x49, 0x00, 0x00, 0x49, 0x64, 0x87, 0x40, 0x49, 0x00, 0x00, 0x45, 0x64, 0x00,
 0x49, 0x64, 0x83, 0x60, 0x49, 0x00, 0x00, 0x45, 0x00, 0x00, 0x45, 0x64, 0x00, 0x49, 0x64, 0x81,
 0x70, 0x49, 0x00, 0x00, 0x45, 0x00, 0x00, 0x45, 0x64, 0x00, 0x49, 0x64, 0x81, 0x70, 0x49, 0x00,
 0x00, 0x45, 0x00, 0x00, 0x45, 0x64, 0x00, 0x49, 0x64, 0x81, 0x70, 0x49, 0x00, 0x00, 0x45, 0x00,
 0x00, 0x48, 0x64, 0x81, 0x70, 0x48, 0x00, 0x00, 0x49, 0x64, 0x81, 0x70, 0x49, 0x00, 0x00, 0x4A,
 0x64, 0x81, 0x70, 0x4A, 0x00, 0x00, 0x49, 0x64, 0x00, 0x4C, 0x64, 0x83, 0x60, 0x4C, 0x00, 0x00,
 0x49, 0x00, 0x00, 0x49, 0x64, 0x00, 0x4C, 0x64, 0x83, 0x60, 0x4C, 0x00, 0x00, 0x49, 0x00, 0x00,
 0x4C, 0x64, 0x87, 0x40, 0x4C, 0x00, 0x00, 0x49, 0x64, 0x00, 0x4C, 0x64, 0x83, 0x60, 0x4C, 0x00,
 0x00, 0x49, 0x00, 0x00, 0x4C, 0x64, 0x81, 0x70, 0x4C, 0x00, 0x00, 0x4C, 0x64, 0x81, 0x70, 0x4C,
 0x00, 0x00, 0x4C, 0x64, 0x81, 0x70, 0x4C, 0x00, 0x00, 0x4B, 0x64, 0x81, 0x70, 0x4B, 0x00, 0x00,
 0x4C, 0x64, 0x81, 0x70, 0x4C, 0x00, 0x00, 0x4E, 0x64, 0x81, 0x70, 0x4E, 0x00, 0x00, 0x4C, 0x64,
 0x00, 0x4F, 0x64, 0x83, 0x60, 0x4F, 0x00, 0x00, 0x4C, 0x00, 0x00, 0x4C, 0x64, 0x00, 0x4F, 0x64,
 0x81, 0x70, 0x4F, 0x00, 0x00, 0x4C, 0x00, 0x00, 0x4C, 0x64, 0x00, 0x4F, 0x64, 0x81, 0x70, 0x4F,
 0x00, 0x00, 0x4C, 0x00, 0x00, 0x4C, 0x64, 0x00, 0x4F, 0x64, 0x83, 0x60, 0x4F, 0x00, 0x00, 0x4C,
 0x00, 0x00, 0x4A, 0x64, 0x00, 0x4E, 0x64, 0x83, 0x60, 0x4E, 0x00, 0x00, 0x4A, 0x00, 0x00, 0x43,
 0x64, 0x00, 0x4C, 0x64, 0x83, 0x60, 0x4C, 0x00, 0x00, 0x43, 0x00, 0x00, 0x45, 0x64, 0x00, 0x4A,
 0x64, 0x83, 0x60, 0x4A, 0x00, 0x00, 0x45, 0x00, 0x00, 0x40, 0x64, 0x00, 0x49, 0x64, 0x83, 0x60,
 0x49, 0x00, 0x00, 0x40, 0x00, 0x00, 0x3E, 0x64, 0x00, 0x47, 0x64, 0x83, 0x60, 0x47, 0x00, 0x00,
 0x3E, 0x00, 0x00, 0x3D, 0x64, 0x00, 0x45, 0x64, 0x83, 0x60, 0x45, 0x00, 0x00, 0x3D, 0x00, 0x00,
 0x90, 0x39, 0x64, 0x00, 0xFF, 0x05, 0x03, 0xCC, 0xFB, 0x20, 0x00, 0xFF, 0x05, 0x03, 0xCC, 0xFB,
 0x20, 0x83, 0x60, 0x90, 0x39, 0x00, 0x00, 0x3B, 0x64, 0x00, 0xFF, 0x05, 0x02, 0xF0, 0xEE, 0x83,
 0x60, 0x90, 0x3B, 0x00, 0x00, 0x3E, 0x64, 0x00, 0xFF, 0x05, 0x03, 0xE6, 0xE4, 0xE5, 0x83, 0x60,
 0x90, 0x3E, 0x00, 0x00, 0x42, 0x64, 0x00, 0x91, 0x32, 0x64, 0x00, 0xFF, 0x05, 0x03, 0xED, 0xFB,
 0x20, 0x83, 0x60, 0x91, 0x42, 0x64, 0x00, 0x3E, 0x64, 0x00, 0x39, 0x64, 0x83, 0x60, 0x39, 0x00,
 0x00, 0x42, 0x00, 0x00, 0x3E, 0x00, 0x00, 0x32, 0x00, 0x00, 0x2D, 0x64, 0x83, 0x60, 0x90, 0x42,
 0x00, 0x00, 0x39, 0x64, 0x00, 0x91, 0x42, 0x64, 0x00, 0x3E, 0x64, 0x00, 0x39, 0x64, 0x00, 0xFF,
 0x05, 0x05, 0xF7, 0xF2, 0xEE, 0xE1, 0x20, 0x83, 0x60, 0x91, 0x39, 0x00, 0x00, 0x42, 0x00, 0x00,
 0x2D, 0x00, 0x00, 0x90, 0x39, 0x00, 0x00, 0x91, 0x3E, 0x00, 0x00, 0x90, 0x39, 0x64, 0x00, 0x91,
 0x32, 0x64, 0x00, 0xFF, 0x05, 0x04, 0xF1, 0xEA, 0xE0, 0xE7, 0x83, 0x60, 0x90, 0x39, 0x00, 0x00,
 0x3B, 0x64, 0x00, 0x91, 0x42, 0x64, 0x00, 0x3E, 0x64, 0x00, 0x39, 0x64, 0x00, 0xFF, 0x05, 0x03,
 0xEA, 0xF3, 0x20, 0x83, 0x60, 0x91, 0x39, 0x00, 0x00, 0x42, 0x00, 0x00, 0x32, 0x00, 0x00, 0x90,
 0x3B, 0x00, 0x00, 0x91, 0x3E, 0x00, 0x00, 0x90, 0x3B, 0x64, 0x00, 0x91, 0x2B, 0x64, 0x00, 0xFF,
 0x05, 0x03, 0xF1, 0xE4, 0xE5, 0x83, 0x60, 0x90, 0x3B, 0x00, 0x00, 0x3E, 0x64, 0x00, 0x91, 0x43,
 0x64, 0x00, 0x3E, 0x64, 0x00, 0x3B, 0x64, 0x00, 0xFF, 0x05, 0x05, 0xEB, 0xE0, 0xF2, 0xFC, 0x20,
 0x83, 0x60, 0x91, 0x3B, 0x00, 0x00, 0x43, 0x00, 0x00, 0x2B, 0x00, 0x00, 0x90, 0x3E, 0x00, 0x00,
 0x91, 0x3E, 0x00, 0x00, 0x90, 0x42, 0x64, 0x00, 0x91, 0x32, 0x64, 0x00, 0xFF, 0x05, 0x02, 0xE1,
 0xFB, 0x83, 0x60, 0x91, 0x42, 0x64, 0x00, 0x3E, 0x64, 0x00, 0x39, 0x64, 0x83, 0x60, 0x39, 0x00,
 0x00, 0x42, 0x00, 0x00, 0x90, 0x42, 0x00, 0x00, 0x91, 0x32, 0x00, 0x00, 0x3E, 0x00, 0x00, 0x90,
 0x42, 0x64, 0x00, 0x91, 0x2D, 0x64, 0x00, 0xFF, 0x05, 0x04, 0xEB, 0xFC, 0xFE, 0x20, 0x83, 0x60,
 0x91, 0x42, 0x64, 0x00, 0x3E, 0x64, 0x00, 0x39, 0x64, 0x83, 0x60, 0x39, 0x00, 0x00, 0x42, 0x00,
 0x00, 0x90, 0x42, 0x00, 0x00, 0x91, 0x2D, 0x00, 0x00, 0x3E, 0x00, 0x00, 0x32, 0x64, 0x83, 0x60,
 0x90, 0x39, 0x64, 0x00, 0x91, 0x42, 0x64, 0x00, 0x3E, 0x64, 0x00, 0x39, 0x64, 0x00, 0xFF, 0x05,
 0x03, 0xEF, 0xF0, 0xE5, 0x83, 0x60, 0x91, 0x39, 0x00, 0x00, 0x42, 0x00, 0x00, 0x32, 0x00, 0x00,
 0x90, 0x39, 0x00, 0x00, 0x91, 0x3E, 0x00, 0x00, 0x90, 0x3B, 0x64, 0x00, 0x91, 0x2B, 0x64, 0x00,
 0xFF, 0x05, 0x01, 0xEE, 0x83, 0x60, 0x90, 0x3B, 0x00, 0x00, 0x3E, 0x64, 0x00, 0x91, 0x43, 0x64,
 0x00, 0x3E, 0x64, 0x00, 0x3B, 0x64, 0x00, 0xFF, 0x05, 0x02, 0xE4, 0xEE, 0x83, 0x60, 0x91, 0x3B,
 0x00, 0x00, 0x43, 0x00, 0x00, 0x2B, 0x00, 0x00, 0x90, 0x3E, 0x00, 0x00, 0x91, 0x3E, 0x00, 0x00,
 0x90, 0x42, 0x64, 0x00, 0x91, 0x32, 0x64, 0x00, 0xFF, 0x05, 0x05, 0xEB, 0xE5, 0xF2, 0xFC, 0x20,
 0x83, 0x60, 0x91, 0x42, 0x64, 0x00, 0x3E, 0x64, 0x00, 0x39, 0x64, 0x83, 0x60, 0x39, 0x00, 0x00,
 0x42, 0x00, 0x00, 0x3E, 0x00, 0x00, 0x32, 0x00, 0x00, 0x2D, 0x64, 0x83, 0x60, 0x90, 0x42, 0x00,
 0x00, 0x39, 0x64, 0x00, 0x91, 0x42, 0x64, 0x00, 0x3E, 0x64, 0x00, 0x39, 0x64, 0x00, 0xFF, 0x05,
 0x03, 0xEF, 0xF0, 0xEE, 0x83, 0x60, 0x91, 0x39, 0x00, 0x00, 0x42, 0x00, 0x00, 0x2D, 0x00, 0x00,
 0x90, 0x39, 0x00, 0x00, 0x91, 0x3E, 0x00, 0x00, 0x90, 0x39, 0x64, 0x00, 0x91, 0x32, 0x64, 0x00,
 0xFF, 0x05, 0x05, 0xF1, 0xF2, 0xF0, 0xE0, 0xED, 0x83, 0x60, 0x90, 0x39, 0x00, 0x00, 0x3B, 0x64,
 0x00, 0x91, 0x42, 0x64, 0x00, 0x3E, 0x64, 0x00, 0x39, 0x64, 0x00, 0xFF, 0x05, 0x05, 0xF1, 0xF2,
 0xE2, 0xEE, 0x20, 0x83, 0x60, 0x91, 0x39, 0x00, 0x00, 0x42, 0x00, 0x00, 0x32, 0x00, 0x00, 0x90,
 0x3B, 0x00, 0x00, 0x91, 0x3E, 0x00, 0x00, 0x90, 0x3B, 0x64, 0x00, 0x91, 0x2D, 0x64, 0x00, 0xFF,
 0x05, 0x02, 0xE8, 0x20, 0x83, 0x60, 0x90, 0x3B, 0x00, 0x00, 0x39, 0x64, 0x00, 0x91, 0x42, 0x64,
 0x00, 0x3E, 0x64, 0x00, 0x39, 0x64, 0x00, 0xFF, 0x05, 0x03, 0xEF, 0xF0, 0xEE, 0x83, 0x60, 0x91,
 0x39, 0x00, 0x00, 0x42, 0x00, 0x00, 0x2D, 0x00, 0x00, 0x90, 0x39, 0x00, 0x00, 0x91, 0x3E, 0x00,
 0x00, 0x90, 0x43, 0x64, 0x00, 0x91, 0x2D, 0x64, 0x00, 0xFF, 0x05, 0x05, 0xF1, 0xF2, 0xEE, 0xF0,
 0x20, 0x83, 0x60, 0x91, 0x37, 0x64, 0x00, 0x40, 0x64, 0x00, 0x3D, 0x64, 0x00, 0x39, 0x64, 0x83,
 0x60, 0x39, 0x00, 0x00, 0x2D, 0x00, 0x00, 0x37, 0x00, 0x00, 0x40, 0x00, 0x00, 0x3D, 0x00, 0x00,
 0x34, 0x64, 0x83, 0x60, 0x40, 0x64, 0x00, 0x3D, 0x64, 0x00, 0x37, 0x64, 0x00, 0x39, 0x64, 0x83,
 0x60, 0x39, 0x00, 0x00, 0x34, 0x00, 0x00, 0x40, 0x00, 0x00, 0x90, 0x43, 0x00, 0x00, 0x91, 0x37,
 0x00, 0x00, 0x3D, 0x00, 0x00, 0x2D, 0x64, 0x83, 0x60, 0x90, 0x3F, 0x64, 0x00, 0x91, 0x37, 0x64,
 0x00, 0x40, 0x64, 0x00, 0x3D, 0x64, 0x00, 0x39, 0x64, 0x00, 0xFF, 0x05, 0x04, 0xED, 0xE0, 0xEC,
 0x20, 0x83, 0x60, 0x91, 0x39, 0x00, 0x00, 0x90, 0x3F, 0x00, 0x00, 0x91, 0x37, 0x00, 0x00, 0x2D,
 0x00, 0x00, 0x3D, 0x00, 0x00, 0x40, 0x00, 0x00, 0x90, 0x40, 0x64, 0x00, 0x91, 0x2F, 0x64, 0x00,
 0xFF, 0x05, 0x02, 0xF0, 0xE0, 0x83, 0x60, 0x90, 0x40, 0x00, 0x00, 0x42, 0x64, 0x00, 0x91, 0x39,
 0x64, 0x00, 0x42, 0x64, 0x00, 0x3F, 0x64, 0x00, 0x3B, 0x64, 0x00, 0xFF, 0x05, 0x04, 0xE7, 0xF3,
 0xEC, 0x20, 0x83, 0x60, 0x91, 0x3B, 0x00, 0x00, 0x90, 0x42, 0x00, 0x00, 0x91, 0x39, 0x00, 0x00,
 0x2F, 0x00, 0x00, 0x3F, 0x00, 0x00, 0x42, 0x00, 0x00, 0x90, 0x43, 0x64, 0x00, 0x91, 0x34, 0x64,
 0x00, 0xFF, 0x05, 0x04, 0xE4, 0xE0, 0xEB, 0x20, 0x83, 0x60, 0x91, 0x43, 0x64, 0x00, 0x40, 0x64,
 0x00, 0x3B, 0x64, 0x83, 0x60, 0x3B, 0x00, 0x00, 0x43, 0x00, 0x00, 0x40, 0x00, 0x00, 0x34, 0x00,
 0x00, 0x2F, 0x64, 0x83, 0x60, 0x90, 0x43, 0x00, 0x00, 0x42, 0x64, 0x00, 0x91, 0x43, 0x64, 0x00,
 0x40, 0x64, 0x00, 0x3B, 0x64, 0x00, 0xFF, 0x05, 0x05, 0xF1, 0xF2, 0xE0, 0xEB, 0xFC, 0x83, 0x60,
 0x91, 0x3B, 0x00, 0x00, 0x43, 0x00, 0x00, 0x2F, 0x00, 0x00, 0x90, 0x42, 0x00, 0x00, 0x91, 0x40,
 0x00, 0x00, 0x90, 0x40, 0x64, 0x00, 0x91, 0x34, 0x64, 0x00, 0xFF, 0x05, 0x02, 0xED, 0xFB, 0x83,
 0x60, 0x90, 0x40, 0x00, 0x00, 0x3F, 0x64, 0x00, 0x91, 0x43, 0x64, 0x00, 0x40, 0x64, 0x00, 0x3B,
 0x64, 0x00, 0xFF, 0x05, 0x02, 0xE5, 0x20, 0x83, 0x60, 0x91, 0x3B, 0x00, 0x00, 0x43, 0x00, 0x00,
 0x34, 0x00, 0x00, 0x90, 0x3F, 0x00, 0x00, 0x91, 0x40, 0x00, 0x00, 0x90, 0x40, 0x64, 0x00, 0x91,
 0x2B, 0x64, 0x00, 0xFF, 0x05, 0x02, 0xF0, 0xF3, 0x83, 0x60, 0x90, 0x40, 0x00, 0x00, 0x41, 0x64,
 0x00, 0x91, 0x43, 0x64, 0x00, 0x3E, 0x64, 0x00, 0x3A, 0x64, 0x00, 0xFF, 0x05, 0x03, 0xEA, 0xE8,
 0x20, 0x83, 0x60, 0x91, 0x3A, 0x00, 0x00, 0x43, 0x00, 0x00, 0x2B, 0x00, 0x00, 0x90, 0x41, 0x00,
 0x00, 0x91, 0x3E, 0x00, 0x00, 0x90, 0x42, 0x64, 0x00, 0x91, 0x32, 0x64, 0x00, 0xFF, 0x05, 0x03,
 0xEA, 0xF0, 0xFB, 0x83, 0x60, 0x91, 0x42, 0x64, 0x00, 0x3E, 0x64, 0x00, 0x39, 0x64, 0x83, 0x60,
 0x39, 0x00, 0x00, 0x42, 0x00, 0x00, 0x90, 0x42, 0x00, 0x00, 0x91, 0x32, 0x00, 0x00, 0x3E, 0x00,
 0x00, 0x90, 0x3E, 0x64, 0x00, 0x91, 0x2D, 0x64, 0x00, 0xFF, 0x05, 0x04, 0xEB, 0xFC, 0xFF, 0x20,
 0x83, 0x60, 0x91, 0x42, 0x64, 0x00, 0x3E, 0x64, 0x00, 0x39, 0x64, 0x83, 0x60, 0x39, 0x00, 0x00,
 0x42, 0x00, 0x00, 0x90, 0x3E, 0x00, 0x00, 0x91, 0x2D, 0x00, 0x00, 0x3E, 0x00, 0x00, 0x2F, 0x64,
 0x83, 0x60, 0x90, 0x3D, 0x64, 0x00, 0x91, 0x42, 0x64, 0x00, 0x3E, 0x64, 0x00, 0x3B, 0x64, 0x00,
 0xFF, 0x05, 0x02, 0xE0, 0x20, 0x83, 0x60, 0x91, 0x3B, 0x00, 0x00, 0x42, 0x00, 0x00, 0x2F, 0x00,
 0x00, 0x90, 0x3D, 0x00, 0x00, 0x91, 0x3E, 0x00, 0x00, 0x90, 0x3E, 0x64, 0x00, 0x91, 0x36, 0x64,
 0x00, 0xFF, 0x05, 0x03, 0xE2, 0xEC, 0xE5, 0x83, 0x60, 0x90, 0x3E, 0x00, 0x00, 0x42, 0x64, 0x00,
 0x91, 0x43, 0x64, 0x00, 0x3E, 0x64, 0x00, 0x3B, 0x64, 0x00, 0xFF, 0x05, 0x04, 0xF1, 0xF2, 0xEE,
 0x20, 0x83, 0x60, 0x91, 0x3B, 0x00, 0x00, 0x43, 0x00, 0x00, 0x36, 0x00, 0x00, 0x90, 0x42, 0x00,
 0x00, 0x91, 0x3E, 0x00, 0x00, 0x90, 0x42, 0x64, 0x00, 0x91, 0x34, 0x64, 0x00, 0xFF, 0x05, 0x04,
 0xF1, 0xE5, 0xF0, 0xE4, 0x83, 0x60, 0x91, 0x44, 0x64, 0x00, 0x40, 0x64, 0x00, 0x3E, 0x64, 0x00,
 0x3B, 0x64, 0x83, 0x60, 0x3B, 0x00, 0x00, 0x34, 0x00, 0x00, 0x44, 0x00, 0x00, 0x90, 0x42, 0x00,
 0x00, 0x91, 0x3E, 0x00, 0x00, 0x40, 0x00, 0x00, 0x90, 0x40, 0x64, 0x00, 0x91, 0x2F, 0x64, 0x00,
 0xFF, 0x05, 0x03, 0xF6, 0xE0, 0x20, 0x83, 0x60, 0x91, 0x44, 0x64, 0x00, 0x40, 0x64, 0x00, 0x3E,
 0x64, 0x00, 0x3B, 0x64, 0x83, 0x60, 0x3B, 0x00, 0x00, 0x2F, 0x00, 0x00, 0x44, 0x00, 0x00, 0x90,
 0x40, 0x00, 0x00, 0x91, 0x3E, 0x00, 0x00, 0x40, 0x00, 0x00, 0x90, 0x40, 0x64, 0x00, 0x91, 0x34,
 0x64, 0x00, 0xFF, 0x05, 0x03, 0xEF, 0xEB, 0xE0, 0x83, 0x60, 0x90, 0x40, 0x00, 0x00, 0x3D, 0x64,
 0x00, 0x91, 0x44, 0x64, 0x00, 0x40, 0x64, 0x00, 0x3E, 0x64, 0x00, 0x3B, 0x64, 0x00, 0xFF, 0x05,
 0x03, 0xEC, 0xE5, 0xED, 0x83, 0x60, 0x91, 0x3B, 0x00, 0x00, 0x90, 0x3D, 0x00, 0x00, 0x91, 0x44,
 0x00, 0x00, 0x34, 0x00, 0x00, 0x3E, 0x00, 0x00, 0x40, 0x00, 0x00, 0x90, 0x3E, 0x64, 0x00, 0x91,
 0x2F, 0x64, 0x00, 0xFF, 0x05, 0x04, 0xED, 0xFB, 0xE9, 0x20, 0x83, 0x60, 0x90, 0x3E, 0x00, 0x00,
 0x3B, 0x64, 0x00, 0x91, 0x44, 0x64, 0x00, 0x40, 0x64, 0x00, 0x3E, 0x64, 0x00, 0x3B, 0x64, 0x00,
 0xFF, 0x05, 0x02, 0xEC, 0xEE, 0x83, 0x60, 0x91, 0x3B, 0x00, 0x00, 0x90, 0x3B, 0x00, 0x00, 0x91,
 0x44, 0x00, 0x00, 0x2F, 0x00, 0x00, 0x3E, 0x00, 0x00, 0x40, 0x00, 0x00, 0x90, 0x39, 0x64, 0x00,
 0x91, 0x2D, 0x64, 0x00, 0xFF, 0x05, 0x04, 0xF2, 0xEE, 0xF0, 0x20, 0x83, 0x60, 0x91, 0x40, 0x64,
 0x00, 0x3D, 0x64, 0x00, 0x39, 0x64, 0x83, 0x60, 0x39, 0x00, 0x00, 0x40, 0x00, 0x00, 0x3D, 0x00,
 0x00, 0x2D, 0x00, 0x00, 0x34, 0x64, 0x83, 0x60, 0x40, 0x64, 0x00, 0x3D, 0x64, 0x00, 0x39, 0x64,
 0x83, 0x60, 0x39, 0x00, 0x00, 0x40, 0x00, 0x00, 0x3D, 0x00, 0x00, 0x34, 0x00, 0x00, 0x2D, 0x64,
 0x83, 0x60, 0x2D, 0x00, 0x83, 0x60, 0x90, 0x39, 0x00, 0x00, 0x39, 0x64, 0x00, 0x91, 0x40, 0x64,
 0x00, 0x3D, 0x64, 0x00, 0x39, 0x64, 0x00, 0xFF, 0x05, 0x04, 0xC2, 0xF1, 0xB8, 0x20, 0x83, 0x60,
 0x91, 0x39, 0x00, 0x00, 0x3D, 0x00, 0x00, 0x40, 0x00, 0x83, 0x60, 0x90, 0x39, 0x00, 0x00, 0x3B,
 0x64, 0x00, 0x91, 0x2D, 0x64, 0x00, 0xFF, 0x05, 0x02, 0xE2, 0xFB, 0x83, 0x60, 0x90, 0x3B, 0x00,
 0x00, 0x39, 0x64, 0x00, 0x91, 0x37, 0x64, 0x00, 0x40, 0x64, 0x00, 0x3D, 0x64, 0x00, 0x39, 0x64,
 0x00, 0xFF, 0x05, 0x03, 0xF8, 0xE5, 0x20, 0x83, 0x60, 0x91, 0x39, 0x00, 0x00, 0x90, 0x39, 0x00,
 0x00, 0x91, 0x37, 0x00, 0x00, 0x2D, 0x00, 0x00, 0x3D, 0x00, 0x00, 0x40, 0x00, 0x00, 0x34, 0x64,
 0x83, 0x60, 0x90, 0x39, 0x64, 0x00, 0x91, 0x40, 0x64, 0x00, 0x3D, 0x64, 0x00, 0x37, 0x64, 0x00,
 0x39, 0x64, 0x00, 0xFF, 0x05, 0x02, 0xE8, 0x20, 0x83, 0x60, 0x91, 0x39, 0x00, 0x00, 0x90, 0x39,
 0x00, 0x00, 0x91, 0x40, 0x00, 0x00, 0x34, 0x00, 0x00, 0x37, 0x00, 0x00, 0x3D, 0x00, 0x00, 0x90,
 0x3D, 0x64, 0x00, 0x91, 0x2D, 0x64, 0x00, 0xFF, 0x05, 0x02, 0xE2, 0xFB, 0x83, 0x60, 0x90, 0x3D,
 0x00, 0x00, 0x3B, 0x64, 0x00, 0x91, 0x37, 0x64, 0x00, 0x40, 0x64, 0x00, 0x3D, 0x64, 0x00, 0x39,
 0x64, 0x00, 0xFF, 0x05, 0x03, 0xF8, 0xE5, 0x20, 0x83, 0x60, 0x91, 0x39, 0x00, 0x00, 0x90, 0x3B,
 0x00, 0x00, 0x91, 0x37, 0x00, 0x00, 0x2D, 0x00, 0x00, 0x3D, 0x00, 0x00, 0x40, 0x00, 0x00, 0x34,
 0x64, 0x83, 0x60, 0x90, 0x39, 0x64, 0x00, 0x91, 0x40, 0x64, 0x00, 0x3D, 0x64, 0x00, 0x37, 0x64,
 0x00, 0x39, 0x64, 0x00, 0xFF, 0x05, 0x02, 0xE8, 0x20, 0x83, 0x60, 0x91, 0x39, 0x00, 0x00, 0x90,
 0x39, 0x00, 0x00, 0x91, 0x40, 0x00, 0x00, 0x34, 0x00, 0x00, 0x37, 0x00, 0x00, 0x3D, 0x00, 0x00,
 0x90, 0x42, 0x64, 0x00, 0x91, 0x32, 0x64, 0x00, 0xFF, 0x05, 0x02, 0xE2, 0xFB, 0x83, 0x60, 0x91,
 0x42, 0x64, 0x00, 0x3E, 0x64, 0x00, 0x39, 0x64, 0x83, 0x60, 0x39, 0x00, 0x00, 0x42, 0x00, 0x00,
 0x90, 0x42, 0x00, 0x00, 0x91, 0x32, 0x00, 0x00, 0x3E, 0x00, 0x00, 0x90, 0x3E, 0x64, 0x00, 0x91,
 0x2D, 0x64, 0x00, 0xFF, 0x05, 0x03, 0xF8, 0xE5, 0x20, 0x83, 0x60, 0x91, 0x42, 0x64, 0x00, 0x3E,
 0x64, 0x00, 0x39, 0x64, 0x83, 0x60, 0x39, 0x00, 0x00, 0x42, 0x00, 0x00, 0x90, 0x3E, 0x00, 0x00,
 0x91, 0x2D, 0x00, 0x00, 0x3E, 0x00, 0x00, 0x32, 0x64, 0x83, 0x60, 0x42, 0x64, 0x00, 0x3E, 0x64,
 0x00, 0x39, 0x64, 0x83, 0x60, 0x39, 0x00, 0x00, 0x32, 0x00, 0x00, 0x42, 0x00, 0x00, 0x3E, 0x00,
 0x00, 0x2D, 0x64, 0x83, 0x60, 0x90, 0x42, 0x64, 0x00, 0x91, 0x42, 0x64, 0x00, 0x3E, 0x64, 0x00,
 0x39, 0x64, 0x00, 0xFF, 0x05, 0x04, 0xF1, 0xF2, 0xF0, 0xE5, 0x83, 0x60, 0x91, 0x39, 0x00, 0x00,
 0x42, 0x00, 0x00, 0x2D, 0x00, 0x00, 0x90, 0x42, 0x00, 0x00, 0x91, 0x3E, 0x00, 0x00, 0x90, 0x42,
 0x64, 0x00, 0x91, 0x2F, 0x64, 0x00, 0xFF, 0x05, 0x04, 0xEC, 0xE8, 0xEC, 0x20, 0x83, 0x60, 0x91,
 0x39, 0x64, 0x00, 0x42, 0x64, 0x00, 0x3F, 0x64, 0x00, 0x3B, 0x64, 0x83, 0x60, 0x3B, 0x00, 0x00,
 0x2F, 0x00, 0x00, 0x39, 0x00, 0x00, 0x90, 0x42, 0x00, 0x00, 0x91, 0x3F, 0x00, 0x00, 0x42, 0x00,
 0x00, 0x90, 0x41, 0x64, 0x00, 0x91, 0x2F, 0x64, 0x00, 0xFF, 0x05, 0x03, 0xEC, 0xFB, 0x20, 0x83,
 0x60, 0x90, 0x41, 0x00, 0x00, 0x42, 0x64, 0x00, 0x91, 0x39, 0x64, 0x00, 0x42, 0x64, 0x00, 0x3F,
 0x64, 0x00, 0x3B, 0x64, 0x00, 0xFF, 0x05, 0x02, 0xEF, 0xEE, 0x83, 0x60, 0x91, 0x3B, 0x00, 0x00,
 0x90, 0x42, 0x00, 0x00, 0x91, 0x39, 0x00, 0x00, 0x2F, 0x00, 0x00, 0x3F, 0x00, 0x00, 0x42, 0x00,
 0x00, 0x90, 0x43, 0x64, 0x00, 0x91, 0x2F, 0x64, 0x00, 0xFF, 0x05, 0x04, 0xEB, 0xE5, 0xF2, 0x20,
 0x83, 0x60, 0x91, 0x39, 0x64, 0x00, 0x42, 0x64, 0x00, 0x3F, 0x64, 0x00, 0x3B, 0x64, 0x83, 0x60,
 0x3B, 0x00, 0x00, 0x2F, 0x00, 0x00, 0x39, 0x00, 0x00, 0x90, 0x43, 0x00, 0x00, 0x91, 0x3F, 0x00,
 0x00, 0x42, 0x00, 0x00, 0x90, 0x43, 0x64, 0x00, 0x91, 0x2F, 0x64, 0x00, 0xFF, 0x05, 0x02, 0xED,
 0xE0, 0x83, 0x60, 0x90, 0x43, 0x00, 0x00, 0x42, 0x64, 0x00, 0x91, 0x39, 0x64, 0x00, 0x42, 0x64,
 0x00, 0x3F, 0x64, 0x00, 0x3B, 0x64, 0x00, 0xFF, 0x05, 0x04, 0xF8, 0xE8, 0xF5, 0x20, 0x83, 0x60,
 0x91, 0x3B, 0x00, 0x00, 0x90, 0x42, 0x00, 0x00, 0x91, 0x39, 0x00, 0x00, 0x2F, 0x00, 0x00, 0x3F,
 0x00, 0x00, 0x42, 0x00, 0x00, 0x90, 0x3B, 0x64, 0x00, 0x91, 0x34, 0x64, 0x00, 0xFF, 0x05, 0x05,
 0xEF, 0xF2, 0xE8, 0xF6, 0x20, 0x83, 0x60, 0x91, 0x43, 0x64, 0x00, 0x40, 0x64, 0x00, 0x3B, 0x64,
 0x83, 0x60, 0x3B, 0x00, 0x00, 0x43, 0x00, 0x00, 0x40, 0x00, 0x00, 0x34, 0x00, 0x00, 0x2F, 0x64,
 0x83, 0x60, 0x43, 0x64, 0x00, 0x40, 0x64, 0x00, 0x3B, 0x64, 0x83, 0x60, 0x3B, 0x00, 0x00, 0x43,
 0x00, 0x00, 0x40, 0x00, 0x00, 0x2F, 0x00, 0x00, 0x34, 0x64, 0x83, 0x60, 0x43, 0x64, 0x00, 0x40,
 0x64, 0x00, 0x3B, 0x64, 0x83, 0x60, 0x3B, 0x00, 0x00, 0x43, 0x00, 0x00, 0x90, 0x3B, 0x00, 0x00,
 0x91, 0x34, 0x00, 0x00, 0x40, 0x00, 0x00, 0x2F, 0x64, 0x83, 0x60, 0x90, 0x3B, 0x64, 0x00, 0x91,
 0x39, 0x64, 0x00, 0x42, 0x64, 0x00, 0x3F, 0x64, 0x00, 0x3B, 0x64, 0x00, 0xFF, 0x05, 0x02, 0xE8,
 0x20, 0x83, 0x60, 0x91, 0x3B, 0x00, 0x00, 0x90, 0x3B, 0x00, 0x00, 0x91, 0x39, 0x00, 0x00, 0x2F,
 0x00, 0x00, 0x3F, 0x00, 0x00, 0x42, 0x00, 0x00, 0x90, 0x43, 0x64, 0x00, 0x91, 0x34, 0x64, 0x00,
 0xFF, 0x05, 0x04, 0xE2, 0xEA, 0xE0, 0xE6, 0x83, 0x60, 0x91, 0x43, 0x64, 0x00, 0x40, 0x64, 0x00,
 0x3B, 0x64, 0x83, 0x60, 0x3B, 0x00, 0x00, 0x43, 0x00, 0x00, 0x90, 0x43, 0x00, 0x00, 0x91, 0x34,
 0x00, 0x00, 0x40, 0x00, 0x00, 0x90, 0x42, 0x64, 0x00, 0x91, 0x2F, 0x64, 0x00, 0xFF, 0x05, 0x04,
 0xE4, 0xEE, 0xEC, 0x20, 0x83, 0x60, 0x90, 0x42, 0x00, 0x00, 0x40, 0x64, 0x00, 0x91, 0x43, 0x64,
 0x00, 0x40, 0x64, 0x00, 0x3B, 0x64, 0x00, 0xFF, 0x05, 0x03, 0xEF, 0xF0, 0xEE, 0x83, 0x60, 0x91,
 0x3B, 0x00, 0x00, 0x43, 0x00, 0x00, 0x2F, 0x00, 0x00, 0x90, 0x40, 0x00, 0x00, 0x91, 0x40, 0x00,
 0x00, 0x90, 0x40, 0x64, 0x00, 0x91, 0x2B, 0x64, 0x00, 0xFF, 0x05, 0x03, 0xEF, 0xE5, 0xEB, 0x83,
 0x60, 0x91, 0x43, 0x64, 0x00, 0x3E, 0x64, 0x00, 0x3A, 0x64, 0x83, 0x60, 0x3A, 0x00, 0x00, 0x43,
 0x00, 0x00, 0x90, 0x40, 0x00, 0x00, 0x91, 0x2B, 0x00, 0x00, 0x3E, 0x00, 0x00, 0x90, 0x3F, 0x64,
 0x00, 0x91, 0x32, 0x64, 0x00, 0xFF, 0x05, 0x02, 0xEB, 0xE5, 0x83, 0x60, 0x90, 0x3F, 0x00, 0x00,
 0x40, 0x64, 0x00, 0x91, 0x43, 0x64, 0x00, 0x3E, 0x64, 0x00, 0x3A, 0x64, 0x00, 0xFF, 0x05, 0x03,
 0xF0, 0xE5, 0x20, 0x83, 0x60, 0x91, 0x3A, 0x00, 0x00, 0x43, 0x00, 0x00, 0x32, 0x00, 0x00, 0x90,
 0x40, 0x00, 0x00, 0x91, 0x3E, 0x00, 0x00, 0x90, 0x42, 0x64, 0x00, 0x91, 0x32, 0x64, 0x00, 0xFF,
 0x05, 0x02, 0xE4, 0xFB, 0x83, 0x60, 0x91, 0x42, 0x64, 0x00, 0x3E, 0x64, 0x00, 0x39, 0x64, 0x83,
 0x60, 0x39, 0x00, 0x00, 0x42, 0x00, 0x00, 0x90, 0x42, 0x00, 0x00, 0x91, 0x32, 0x00, 0x00, 0x3E,
 0x00, 0x00, 0x90, 0x3E, 0x64, 0x00, 0x91, 0x2D, 0x64, 0x00, 0xFF, 0x05, 0x04, 0xF8, 0xE8, 0xF2,
 0x20, 0x83, 0x60, 0x91, 0x42, 0x64, 0x00, 0x3E, 0x64, 0x00, 0x39, 0x64, 0x83, 0x60, 0x39, 0x00,
 0x00, 0x42, 0x00, 0x00, 0x90, 0x3E, 0x00, 0x00, 0x91, 0x2D, 0x00, 0x00, 0x3E, 0x00, 0x00, 0x32,
 0x64, 0x83, 0x60, 0x42, 0x64, 0x00, 0x3E, 0x64, 0x00, 0x39, 0x64, 0x83, 0x60, 0x39, 0x00, 0x00,
 0x32, 0x00, 0x00, 0x42, 0x00, 0x00, 0x3E, 0x00, 0x00, 0x2D, 0x64, 0x83, 0x60, 0x90, 0x39, 0x64,
 0x00, 0x91, 0x42, 0x64, 0x00, 0x3E, 0x64, 0x00, 0x39, 0x64, 0x00, 0xFF, 0x05, 0x03, 0xF1, 0xEF,
 0xEE, 0x83, 0x60, 0x91, 0x39, 0x00, 0x00, 0x42, 0x00, 0x00, 0x2D, 0x00, 0x00, 0x90, 0x39, 0x00,
 0x00, 0x91, 0x3E, 0x00, 0x00, 0x90, 0x38, 0x64, 0x00, 0x91, 0x34, 0x64, 0x00, 0xFF, 0x05, 0x03,
 0xEA, 0xEE, 0xE9, 0x83, 0x60, 0x91, 0x44, 0x64, 0x00, 0x40, 0x64, 0x00, 0x3E, 0x64, 0x00, 0x3B,
 0x64, 0x83, 0x60, 0x3B, 0x00, 0x00, 0x34, 0x00, 0x00, 0x44, 0x00, 0x00, 0x90, 0x38, 0x00, 0x00,
 0x91, 0x3E, 0x00, 0x00, 0x40, 0x00, 0x00, 0x90, 0x3B, 0x64, 0x00, 0x91, 0x2F, 0x64, 0x00, 0xFF,
 0x05, 0x04, 0xF1, 0xF2, 0xE2, 0xE8, 0x83, 0x60, 0x90, 0x3B, 0x00, 0x00, 0x3E, 0x64, 0x00, 0x91,
 0x44, 0x64, 0x00, 0x40, 0x64, 0x00, 0x3E, 0x64, 0x00, 0x3B, 0x64, 0x00, 0xFF, 0x05, 0x02, 0xE5,
 0x20, 0x83, 0x60, 0x91, 0x3B, 0x00, 0x00, 0x90, 0x3E, 0x00, 0x00, 0x91, 0x44, 0x00, 0x00, 0x2F,
 0x00, 0x00, 0x3E, 0x00, 0x00, 0x40, 0x00, 0x00, 0x90, 0x42, 0x64, 0x00, 0x91, 0x2D, 0x64, 0x00,
 0xFF, 0x05, 0x02, 0xED, 0xE0, 0x83, 0x60, 0x91, 0x42, 0x64, 0x00, 0x3D, 0x64, 0x00, 0x39, 0x64,
 0x83, 0x60, 0x39, 0x00, 0x00, 0x42, 0x00, 0x00, 0x90, 0x42, 0x00, 0x00, 0x91, 0x2D, 0x00, 0x00,
 0x3D, 0x00, 0x00, 0x90, 0x40, 0x64, 0x00, 0x91, 0x34, 0x64, 0x00, 0xFF, 0x05, 0x04, 0xF8, 0xE8,
 0xF5, 0x20, 0x83, 0x60, 0x91, 0x42, 0x64, 0x00, 0x3D, 0x64, 0x00, 0x39, 0x64, 0x81, 0x70, 0x90,
 0x40, 0x00, 0x00, 0x40, 0x64, 0x00, 0xFF, 0x05, 0x03, 0xE3, 0xF0, 0xE0, 0x81, 0x70, 0x90, 0x40,
 0x00, 0x00, 0x91, 0x39, 0x00, 0x00, 0x34, 0x00, 0x00, 0x42, 0x00, 0x00, 0x3D, 0x00, 0x00, 0x90,
 0x3E, 0x64, 0x00, 0x91, 0x42, 0x64, 0x00, 0x3E, 0x64, 0x00, 0x39, 0x64, 0x00, 0x32, 0x64, 0x00,
 0xFF, 0x05, 0x05, 0xED, 0xE8, 0xF6, 0x2E, 0x20, 0x87, 0x40, 0x91, 0x32, 0x00, 0x00, 0x3E, 0x00,
 0x00, 0x39, 0x00, 0x00, 0x42, 0x00, 0x00, 0x43, 0x64, 0x00, 0x40, 0x64, 0x00, 0x3E, 0x64, 0x00,
 0x3B, 0x64, 0x00, 0x37, 0x64, 0x87, 0x40, 0x37, 0x00, 0x00, 0x43, 0x00, 0x00, 0x40, 0x00, 0x00,
 0x3E, 0x00, 0x00, 0x3B, 0x00, 0x00, 0x42, 0x64, 0x00, 0x3E, 0x64, 0x00, 0x39, 0x64, 0x00, 0x32,
 0x64, 0x87, 0x40, 0x32, 0x00, 0x00, 0x3E, 0x00, 0x00, 0x90, 0x3E, 0x00, 0x00, 0x91, 0x42, 0x00,
 0x00, 0x39, 0x00, 0x00, 0xFF, 0x2F, 0x00 }