/*data from file "sounds/valkyries_flight.midi". Generated automatically*/
{
 0x4D, 0x54, 0x68, 0x64, 0x00, 0x00, 0x00, 0x06, 0x00, 0x00, 0x00, 0x01, 0x01, 0x80, 0x4D, 0x54,
 0x72, 0x6B, 0x00, 0x00, 0x2D, 0x5D, 0x00, 0xF0, 0x05, 0x7E, 0x7F, 0x09, 0x01, 0xF7, 0x00, 0xF0,
 0x0A, 0x41, 0x10, 0x42, 0x12, 0x40, 0x00, 0x7F, 0x00, 0x41, 0xF7, 0x00, 0xF0, 0x0A, 0x41, 0x10,
 0x42, 0x12, 0x40, 0x10, 0x15, 0x00, 0x1B, 0xF7, 0x00, 0xFF, 0x03, 0x10, 0x77, 0x77, 0x77, 0x2E,
 0x70, 0x6F, 0x6C, 0x79, 0x6D, 0x75, 0x73, 0x69, 0x63, 0x2E, 0x72, 0x75, 0x00, 0xFF, 0x01, 0x0F,
 0x50, 0x73, 0x6D, 0x50, 0x6C, 0x61, 0x79, 0x65, 0x72, 0x20, 0x56, 0x32, 0x2E, 0x31, 0x32, 0x00,
 0xFF, 0x51, 0x03, 0x06, 0x8A, 0x1B, 0x00, 0xC0, 0x44, 0x00, 0xB0, 0x07, 0x7F, 0x00, 0xC1, 0x44,
 0x00, 0xB1, 0x07, 0x7F, 0x00, 0xC2, 0x44, 0x00, 0xB2, 0x07, 0x7F, 0x00, 0xC3, 0x44, 0x00, 0xB3,
 0x07, 0x7F, 0x00, 0xC4, 0x38, 0x00, 0xB4, 0x07, 0x7F, 0x00, 0xC5, 0x38, 0x00, 0xB5, 0x07, 0x7F,
 0x00, 0xC6, 0x38, 0x00, 0xB6, 0x07, 0x7F, 0x00, 0xC7, 0x38, 0x00, 0xB7, 0x07, 0x7F, 0x00, 0xC8,
 0x46, 0x00, 0xB8, 0x07, 0x50, 0x00, 0xC9, 0x46, 0x00, 0xB9, 0x07, 0x50, 0x00, 0xCA, 0x28, 0x00,
 0xBA, 0x07, 0x6E, 0x00, 0xCB, 0x28, 0x00, 0xBB, 0x07, 0x6E, 0x00, 0xCC, 0x28, 0x00, 0xBC, 0x07,
 0x6E, 0x00, 0xCD, 0x28, 0x00, 0xBD, 0x07, 0x6E, 0x00, 0xCE, 0x2A, 0x00, 0xBE, 0x07, 0x6E, 0x00,
 0xCF, 0x00, 0x00, 0xBF, 0x07, 0x7F, 0x00, 0xFF, 0x58, 0x04, 0x01, 0x03, 0x18, 0x08, 0x00, 0xB0,
 0x79, 0x00, 0x00, 0xB1, 0x79, 0x00, 0x00, 0xB2, 0x79, 0x00, 0x00, 0xB3, 0x79, 0x00, 0x00, 0xB4,
 0x79, 0x00, 0x00, 0xB5, 0x79, 0x00, 0x00, 0xB6, 0x79, 0x00, 0x00, 0xB7, 0x79, 0x00, 0x00, 0xB8,
 0x79, 0x00, 0x00, 0xB9, 0x79, 0x00, 0x00, 0xBA, 0x79, 0x00, 0x00, 0xBB, 0x79, 0x00, 0x00, 0xBC,
 0x79, 0x00, 0x00, 0xBD, 0x79, 0x00, 0x00, 0xBE, 0x79, 0x00, 0x00, 0xBF, 0x79, 0x00, 0x00, 0xB0,
 0x00, 0x00, 0x00, 0xB1, 0x00, 0x00, 0x00, 0xB2, 0x00, 0x00, 0x00, 0xB3, 0x00, 0x00, 0x00, 0xB4,
 0x00, 0x00, 0x00, 0xB5, 0x00, 0x00, 0x00, 0xB6, 0x00, 0x00, 0x00, 0xB7, 0x00, 0x00, 0x00, 0xB8,
 0x00, 0x00, 0x00, 0xB9, 0x00, 0x00, 0x00, 0xBA, 0x00, 0x00, 0x00, 0xBB, 0x00, 0x00, 0x00, 0xBC,
 0x00, 0x00, 0x00, 0xBD, 0x00, 0x00, 0x00, 0xBE, 0x00, 0x00, 0x00, 0xBF, 0x00, 0x00, 0x00, 0xB0,
 0x20, 0x00, 0x00, 0xB1, 0x20, 0x00, 0x00, 0xB2, 0x20, 0x00, 0x00, 0xB3, 0x20, 0x00, 0x00, 0xB4,
 0x20, 0x00, 0x00, 0xB5, 0x20, 0x00, 0x00, 0xB6, 0x20, 0x00, 0x00, 0xB7, 0x20, 0x00, 0x00, 0xB8,
 0x20, 0x00, 0x00, 0xB9, 0x20, 0x00, 0x00, 0xBA, 0x20, 0x00, 0x00, 0xBB, 0x20, 0x00, 0x00, 0xBC,
 0x20, 0x00, 0x00, 0xBD, 0x20, 0x00, 0x00, 0xBE, 0x20, 0x00, 0x00, 0xBF, 0x20, 0x00, 0x00, 0xB0,
 0x0A, 0x40, 0x00, 0xB1, 0x0A, 0x40, 0x00, 0xB2, 0x0A, 0x40, 0x00, 0xB3, 0x0A, 0x40, 0x00, 0xB4,
 0x0A, 0x40, 0x00, 0xB5, 0x0A, 0x40, 0x00, 0xB6, 0x0A, 0x40, 0x00, 0xB7, 0x0A, 0x40, 0x00, 0xB8,
 0x0A, 0x40, 0x00, 0xB9, 0x0A, 0x40, 0x00, 0xBA, 0x0A, 0x40, 0x00, 0xBB, 0x0A, 0x40, 0x00, 0xBC,
 0x0A, 0x40, 0x00, 0xBD, 0x0A, 0x40, 0x00, 0xBE, 0x0A, 0x40, 0x00, 0xBF, 0x0A, 0x40, 0x00, 0xB0,
 0x5B, 0x40, 0x00, 0xB1, 0x5B, 0x40, 0x00, 0xB2, 0x5B, 0x40, 0x00, 0xB3, 0x5B, 0x40, 0x00, 0xB0,
 0x5D, 0x00, 0x00, 0xB1, 0x5D, 0x00, 0x00, 0xB2, 0x5D, 0x00, 0x00, 0xB3, 0x5D, 0x00, 0x00, 0xB4,
 0x5B, 0x50, 0x00, 0xB5, 0x5B, 0x50, 0x00, 0xB6, 0x5B, 0x50, 0x00, 0xB7, 0x5B, 0x50, 0x00, 0xB4,
 0x5D, 0x00, 0x00, 0xB5, 0x5D, 0x00, 0x00, 0xB6, 0x5D, 0x00, 0x00, 0xB7, 0x5D, 0x00, 0x00, 0xB8,
 0x5D, 0x00, 0x00, 0xB9, 0x5D, 0x00, 0x00, 0xB8, 0x5B, 0x28, 0x00, 0xB9, 0x5B, 0x28, 0x00, 0xBA,
 0x5D, 0x00, 0x00, 0xBB, 0x5D, 0x00, 0x00, 0xBC, 0x5D, 0x00, 0x00, 0xBD, 0x5D, 0x00, 0x00, 0xBA,
 0x5B, 0x28, 0x00, 0xBB, 0x5B, 0x28, 0x00, 0xBC, 0x5B, 0x28, 0x00, 0xBD, 0x5B, 0x28, 0x00, 0xBE,
 0x5D, 0x00, 0x00, 0x5B, 0x28, 0x00, 0xBF, 0x5D, 0x00, 0x00, 0x5B, 0x28, 0x00, 0x90, 0x3C, 0x33,
 0x00, 0x91, 0x48, 0x33, 0x00, 0x94, 0x3C, 0x3D, 0x00, 0x95, 0x48, 0x3D, 0x81, 0x23, 0x80, 0x3C,
 0x00, 0x00, 0x81, 0x48, 0x00, 0x00, 0x84, 0x3C, 0x00, 0x00, 0x85, 0x48, 0x00, 0x1D, 0x90, 0x41,
 0x34, 0x00, 0x91, 0x4D, 0x34, 0x00, 0x94, 0x41, 0x3E, 0x00, 0x95, 0x4D, 0x3E, 0x00, 0x9A, 0x48,
 0x33, 0x00, 0x9B, 0x51, 0x41, 0x00, 0x9C, 0x59, 0x3E, 0x00, 0xFF, 0x00, 0x02, 0x00, 0x4A, 0x00,
 0x9E, 0x35, 0x36, 0x00, 0xFF, 0x00, 0x02, 0x00, 0x61, 0x00, 0xFF, 0x00, 0x02, 0x00, 0x61, 0x00,
 0x9F, 0x45, 0x61, 0x81, 0x40, 0x80, 0x41, 0x00, 0x00, 0x81, 0x4D, 0x00, 0x00, 0x84, 0x41, 0x00,
 0x00, 0x85, 0x4D, 0x00, 0x00, 0x8E, 0x35, 0x00, 0x3C, 0x8C, 0x59, 0x00, 0x0C, 0x8A, 0x48, 0x00,
 0x09, 0x8B, 0x51, 0x00, 0x0F, 0x90, 0x3C, 0x3E, 0x00, 0x91, 0x48, 0x3E, 0x00, 0x94, 0x3C, 0x48,
 0x00, 0x95, 0x48, 0x48, 0x40, 0x80, 0x3C, 0x00, 0x00, 0x81, 0x48, 0x00, 0x00, 0x84, 0x3C, 0x00,
 0x00, 0x85, 0x48, 0x00, 0x20, 0x90, 0x41, 0x43, 0x00, 0x91, 0x4D, 0x43, 0x00, 0x94, 0x41, 0x4D,
 0x00, 0x95, 0x4D, 0x4D, 0x40, 0x80, 0x41, 0x00, 0x00, 0x81, 0x4D, 0x00, 0x00, 0x84, 0x41, 0x00,
 0x00, 0x85, 0x4D, 0x00, 0x81, 0x00, 0x8F, 0x45, 0x00, 0x00, 0x90, 0x45, 0x37, 0x00, 0x91, 0x51,
 0x37, 0x00, 0x94, 0x45, 0x41, 0x00, 0x95, 0x51, 0x41, 0x00, 0x99, 0x35, 0x34, 0x00, 0x9A, 0x48,
 0x24, 0x00, 0x9B, 0x54, 0x3B, 0x00, 0x9E, 0x35, 0x36, 0x00, 0xFF, 0x00, 0x02, 0x00, 0x51, 0x00,
 0xFF, 0x00, 0x02, 0x00, 0x52, 0x00, 0x9F, 0x45, 0x52, 0x81, 0x40, 0x89, 0x35, 0x00, 0x60, 0x8E,
 0x35, 0x00, 0x00, 0x99, 0x41, 0x35, 0x00, 0x9E, 0x41, 0x36, 0x1A, 0x8B, 0x54, 0x00, 0x1D, 0x8A,
 0x48, 0x00, 0x19, 0x8E, 0x41, 0x00, 0x10, 0x98, 0x3C, 0x38, 0x00, 0x9E, 0x3C, 0x36, 0x0A, 0x89,
 0x41, 0x00, 0x76, 0x88, 0x3C, 0x00, 0x17, 0x80, 0x45, 0x00, 0x00, 0x81, 0x51, 0x00, 0x00, 0x84,
 0x45, 0x00, 0x00, 0x85, 0x51, 0x00, 0x29, 0x8F, 0x45, 0x00, 0x00, 0x8E, 0x3C, 0x00, 0x00, 0x90,
 0x41, 0x35, 0x00, 0x91, 0x4D, 0x35, 0x00, 0x94, 0x41, 0x3F, 0x00, 0x95, 0x4D, 0x3F, 0x00, 0x99,
 0x3C, 0x40, 0x00, 0x9A, 0x54, 0x3E, 0x00, 0x9B, 0x60, 0x3E, 0x00, 0x9E, 0x3C, 0x36, 0x00, 0xFF,
 0x00, 0x02, 0x00, 0x49, 0x00, 0xFF, 0x00, 0x02, 0x00, 0x50, 0x00, 0x9F, 0x45, 0x50, 0x81, 0x30,
 0x89, 0x3C, 0x00, 0x70, 0x8E, 0x3C, 0x00, 0x00, 0x99, 0x48, 0x3D, 0x00, 0x9E, 0x48, 0x36, 0x21,
 0x8A, 0x54, 0x00, 0x04, 0x8B, 0x60, 0x00, 0x3B, 0x8E, 0x48, 0x00, 0x00, 0x98, 0x41, 0x3C, 0x00,
 0x9E, 0x41, 0x36, 0x11, 0x89, 0x48, 0x00, 0x50, 0x80, 0x41, 0x00, 0x00, 0x81, 0x4D, 0x00, 0x00,
 0x84, 0x41, 0x00, 0x00, 0x85, 0x4D, 0x00, 0x18, 0x88, 0x41, 0x00, 0x47, 0x8F, 0x45, 0x00, 0x00,
 0x8E, 0x41, 0x00, 0x00, 0x90, 0x45, 0x40, 0x00, 0x91, 0x51, 0x40, 0x00, 0x94, 0x45, 0x4A, 0x00,
 0x95, 0x51, 0x4A, 0x00, 0x9A, 0x41, 0x33, 0x00, 0xFF, 0x00, 0x02, 0x00, 0x3C, 0x00, 0x9E, 0x35,
 0x3C, 0x00, 0xFF, 0x00, 0x02, 0x00, 0x61, 0x00, 0xFF, 0x00, 0x02, 0x00, 0x61, 0x00, 0x9F, 0x45,
 0x61, 0x81, 0x40, 0x80, 0x45, 0x00, 0x00, 0x81, 0x51, 0x00, 0x00, 0x84, 0x45, 0x00, 0x00, 0x85,
 0x51, 0x00, 0x00, 0x8E, 0x35, 0x00, 0x48, 0x8A, 0x41, 0x00, 0x18, 0x90, 0x41, 0x3A, 0x00, 0x91,
 0x4D, 0x3A, 0x00, 0x94, 0x41, 0x44, 0x00, 0x95, 0x4D, 0x44, 0x40, 0x80, 0x41, 0x00, 0x00, 0x81,
 0x4D, 0x00, 0x00, 0x84, 0x41, 0x00, 0x00, 0x85, 0x4D, 0x00, 0x20, 0x90, 0x45, 0x2E, 0x00, 0x91,
 0x51, 0x2E, 0x00, 0x94, 0x45, 0x38, 0x00, 0x95, 0x51, 0x38, 0x40, 0x80, 0x45, 0x00, 0x00, 0x81,
 0x51, 0x00, 0x00, 0x84, 0x45, 0x00, 0x00, 0x85, 0x51, 0x00, 0x81, 0x00, 0x8F, 0x45, 0x00, 0x00,
 0x90, 0x48, 0x42, 0x00, 0x91, 0x54, 0x42, 0x00, 0x94, 0x48, 0x4C, 0x00, 0x95, 0x54, 0x4C, 0x00,
 0x99, 0x35, 0x38, 0x00, 0x9A, 0x48, 0x24, 0x00, 0x9B, 0x54, 0x3B, 0x00, 0x9E, 0x35, 0x36, 0x00,
 0xFF, 0x00, 0x02, 0x00, 0x53, 0x00, 0xFF, 0x00, 0x02, 0x00, 0x53, 0x00, 0x9F, 0x45, 0x55, 0x81,
 0x40, 0x89, 0x35, 0x00, 0x60, 0x8E, 0x35, 0x00, 0x00, 0x99, 0x41, 0x35, 0x00, 0x9E, 0x41, 0x36,
 0x1A, 0x8B, 0x54, 0x00, 0x1D, 0x8A, 0x48, 0x00, 0x19, 0x8E, 0x41, 0x00, 0x0E, 0x89, 0x41, 0x00,
 0x02, 0x99, 0x3C, 0x35, 0x00, 0x9E, 0x3C, 0x36, 0x81, 0x00, 0x89, 0x3C, 0x00, 0x40, 0x80, 0x48,
 0x00, 0x00, 0x81, 0x54, 0x00, 0x00, 0x84, 0x48, 0x00, 0x00, 0x85, 0x54, 0x00, 0x00, 0x8F, 0x45,
 0x00, 0x00, 0x8E, 0x3C, 0x00, 0x00, 0x99, 0x3C, 0x3E, 0x00, 0x9A, 0x54, 0x3E, 0x00, 0x9B, 0x60,
 0x3E, 0x00, 0x90, 0x45, 0x3C, 0x00, 0x91, 0x51, 0x3C, 0x00, 0x94, 0x45, 0x46, 0x00, 0x95, 0x51,
 0x46, 0x00, 0x9E, 0x3C, 0x36, 0x00, 0xFF, 0x00, 0x02, 0x00, 0x51, 0x00, 0xFF, 0x00, 0x02, 0x00,
 0x54, 0x00, 0x9F, 0x45, 0x58, 0x81, 0x26, 0x89, 0x3C, 0x00, 0x7A, 0x8E, 0x3C, 0x00, 0x00, 0x99,
 0x48, 0x3E, 0x00, 0x9E, 0x48, 0x36, 0x21, 0x8A, 0x54, 0x00, 0x04, 0x8B, 0x60, 0x00, 0x3B, 0x8E,
 0x48, 0x00, 0x00, 0x98, 0x41, 0x40, 0x00, 0x9E, 0x41, 0x36, 0x08, 0x89, 0x48, 0x00, 0x6B, 0x88,
 0x41, 0x00, 0x1C, 0x80, 0x45, 0x00, 0x00, 0x81, 0x51, 0x00, 0x00, 0x84, 0x45, 0x00, 0x00, 0x85,
 0x51, 0x00, 0x31, 0x8F, 0x45, 0x00, 0x00, 0x8E, 0x41, 0x00, 0x00, 0x90, 0x48, 0x45, 0x00, 0x91,
 0x54, 0x45, 0x00, 0x94, 0x48, 0x4F, 0x00, 0x95, 0x54, 0x4F, 0x00, 0x9A, 0x40, 0x34, 0x00, 0xFF,
 0x00, 0x02, 0x00, 0x3D, 0x00, 0x9E, 0x34, 0x3D, 0x00, 0xFF, 0x00, 0x02, 0x00, 0x61, 0x00, 0xFF,
 0x00, 0x02, 0x00, 0x61, 0x00, 0x9F, 0x45, 0x61, 0x81, 0x40, 0x80, 0x48, 0x00, 0x00, 0x81, 0x54,
 0x00, 0x00, 0x84, 0x48, 0x00, 0x00, 0x85, 0x54, 0x00, 0x00, 0x8E, 0x34, 0x00, 0x3A, 0x8A, 0x40,
 0x00, 0x26, 0x90, 0x45, 0x3B, 0x00, 0x91, 0x51, 0x3B, 0x00, 0x94, 0x45, 0x45, 0x00, 0x95, 0x51,
 0x45, 0x40, 0x80, 0x45, 0x00, 0x00, 0x81, 0x51, 0x00, 0x00, 0x84, 0x45, 0x00, 0x00, 0x85, 0x51,
 0x00, 0x20, 0x90, 0x48, 0x3B, 0x00, 0x91, 0x54, 0x3B, 0x00, 0x94, 0x48, 0x45, 0x00, 0x95, 0x54,
 0x45, 0x40, 0x80, 0x48, 0x00, 0x00, 0x81, 0x54, 0x00, 0x00, 0x84, 0x48, 0x00, 0x00, 0x85, 0x54,
 0x00, 0x81, 0x00, 0x8F, 0x45, 0x00, 0x00, 0x90, 0x4C, 0x47, 0x00, 0x91, 0x58, 0x47, 0x00, 0x94,
 0x4C, 0x51, 0x00, 0x95, 0x58, 0x51, 0x00, 0x99, 0x34, 0x33, 0x00, 0x9A, 0x4C, 0x2B, 0x00, 0x9E,
 0x34, 0x22, 0x00, 0xFF, 0x00, 0x02, 0x00, 0x52, 0x00, 0xFF, 0x00, 0x02, 0x00, 0x4D, 0x00, 0x9F,
 0x45, 0x4C, 0x81, 0x40, 0x89, 0x34, 0x00, 0x60, 0x8E, 0x34, 0x00, 0x00, 0x99, 0x45, 0x35, 0x00,
 0x9E, 0x45, 0x22, 0x02, 0x8A, 0x4C, 0x00, 0x40, 0x8E, 0x45, 0x00, 0x1E, 0x98, 0x40, 0x2F, 0x00,
 0x9E, 0x40, 0x22, 0x10, 0x89, 0x45, 0x00, 0x70, 0x88, 0x40, 0x00, 0x2D, 0x80, 0x4C, 0x00, 0x00,
 0x81, 0x58, 0x00, 0x00, 0x84, 0x4C, 0x00, 0x00, 0x85, 0x58, 0x00, 0x02, 0x8E, 0x40, 0x00, 0x11,
 0x8F, 0x45, 0x00, 0x00, 0x90, 0x40, 0x50, 0x00, 0x91, 0x4C, 0x50, 0x00, 0x94, 0x40, 0x57, 0x00,
 0x95, 0x4C, 0x57, 0x00, 0x99, 0x40, 0x3B, 0x00, 0x9A, 0x4C, 0x27, 0x00, 0x9B, 0x58, 0x2D, 0x00,
 0x9E, 0x40, 0x22, 0x00, 0xFF, 0x00, 0x02, 0x00, 0x53, 0x00, 0xFF, 0x00, 0x02, 0x00, 0x5A, 0x00,
 0x9F, 0x44, 0x57, 0x81, 0x40, 0x89, 0x40, 0x00, 0x24, 0x8B, 0x58, 0x00, 0x34, 0x8A, 0x4C, 0x00,
 0x08, 0x8E, 0x40, 0x00, 0x00, 0x9E, 0x4C, 0x22, 0x42, 0x8E, 0x4C, 0x00, 0x1E, 0x9E, 0x47, 0x22,
 0x78, 0x80, 0x40, 0x00, 0x00, 0x81, 0x4C, 0x00, 0x00, 0x84, 0x40, 0x00, 0x00, 0x85, 0x4C, 0x00,
 0x37, 0x8E, 0x47, 0x00, 0x11, 0x8F, 0x44, 0x00, 0x00, 0x90, 0x45, 0x48, 0x00, 0x91, 0x51, 0x48,
 0x00, 0x94, 0x45, 0x52, 0x00, 0x95, 0x51, 0x52, 0x00, 0x9A, 0x45, 0x33, 0x00, 0xFF, 0x00, 0x02,
 0x00, 0x33, 0x00, 0x9E, 0x39, 0x33, 0x00, 0xFF, 0x00, 0x02, 0x00, 0x61, 0x00, 0xFF, 0x00, 0x02,
 0x00, 0x61, 0x00, 0x9F, 0x45, 0x61, 0x81, 0x40, 0x80, 0x45, 0x00, 0x00, 0x81, 0x51, 0x00, 0x00,
 0x84, 0x45, 0x00, 0x00, 0x85, 0x51, 0x00, 0x00, 0x8E, 0x39, 0x00, 0x48, 0x8A, 0x45, 0x00, 0x18,
 0x90, 0x40, 0x3B, 0x00, 0x91, 0x4C, 0x3B, 0x00, 0x94, 0x40, 0x45, 0x00, 0x95, 0x4C, 0x45, 0x40,
 0x80, 0x40, 0x00, 0x00, 0x81, 0x4C, 0x00, 0x00, 0x84, 0x40, 0x00, 0x00, 0x85, 0x4C, 0x00, 0x20,
 0x90, 0x45, 0x40, 0x00, 0x91, 0x51, 0x40, 0x00, 0x94, 0x45, 0x4A, 0x00, 0x95, 0x51, 0x4A, 0x40,
 0x80, 0x45, 0x00, 0x00, 0x81, 0x51, 0x00, 0x00, 0x84, 0x45, 0x00, 0x00, 0x85, 0x51, 0x00, 0x81,
 0x00, 0x8F, 0x45, 0x00, 0x00, 0x90, 0x48, 0x46, 0x00, 0x91, 0x54, 0x46, 0x00, 0x94, 0x48, 0x50,
 0x00, 0x95, 0x54, 0x50, 0x00, 0x99, 0x39, 0x37, 0x00, 0x9A, 0x4C, 0x24, 0x00, 0x9B, 0x58, 0x3B,
 0x00, 0x9E, 0x39, 0x22, 0x00, 0xFF, 0x00, 0x02, 0x00, 0x4D, 0x00, 0xFF, 0x00, 0x02, 0x00, 0x53,
 0x00, 0x9F, 0x45, 0x4D, 0x81, 0x40, 0x89, 0x39, 0x00, 0x60, 0x8E, 0x39, 0x00, 0x00, 0x99, 0x45,
 0x3B, 0x00, 0x9E, 0x45, 0x22, 0x1A, 0x8B, 0x58, 0x00, 0x1D, 0x8A, 0x4C, 0x00, 0x0B, 0x8E, 0x45,
 0x00, 0x1E, 0x98, 0x40, 0x1E, 0x00, 0x9E, 0x40, 0x22, 0x11, 0x89, 0x45, 0x00, 0x78, 0x88, 0x40,
 0x00, 0x26, 0x8E, 0x40, 0x00, 0x11, 0x8F, 0x45, 0x00, 0x00, 0x99, 0x40, 0x4A, 0x00, 0x9A, 0x58,
 0x3E, 0x00, 0x9B, 0x64, 0x3E, 0x00, 0x9E, 0x40, 0x22, 0x00, 0xFF, 0x00, 0x02, 0x00, 0x4D, 0x00,
 0xFF, 0x00, 0x02, 0x00, 0x4D, 0x00, 0x9F, 0x45, 0x4F, 0x24, 0x80, 0x48, 0x00, 0x00, 0x81, 0x54,
 0x00, 0x00, 0x84, 0x48, 0x00, 0x00, 0x85, 0x54, 0x00, 0x81, 0x1C, 0x89, 0x40, 0x00, 0x60, 0x8E,
 0x40, 0x00, 0x00, 0x9E, 0x4C, 0x22, 0x21, 0x8A, 0x58, 0x00, 0x04, 0x8B, 0x64, 0x00, 0x1D, 0x8E,
 0x4C, 0x00, 0x1E, 0x90, 0x40, 0x30, 0x00, 0x91, 0x4C, 0x30, 0x00, 0x94, 0x40, 0x3A, 0x00, 0x95,
 0x4C, 0x3A, 0x00, 0x9E, 0x45, 0x22, 0x81, 0x2F, 0x8E, 0x45, 0x00, 0x11, 0x8F, 0x45, 0x00, 0x00,
 0x92, 0x45, 0x57, 0x00, 0x93, 0x51, 0x57, 0x00, 0x96, 0x45, 0x57, 0x00, 0x97, 0x51, 0x57, 0x00,
 0x9A, 0x45, 0x33, 0x00, 0xFF, 0x00, 0x02, 0x00, 0x33, 0x00, 0x9E, 0x39, 0x33, 0x00, 0xFF, 0x00,
 0x02, 0x00, 0x61, 0x00, 0xFF, 0x00, 0x02, 0x00, 0x61, 0x00, 0x9F, 0x45, 0x61, 0x0D, 0x80, 0x40,
 0x00, 0x00, 0x81, 0x4C, 0x00, 0x00, 0x84, 0x40, 0x00, 0x00, 0x85, 0x4C, 0x00, 0x81, 0x33, 0x82,
 0x45, 0x00, 0x00, 0x83, 0x51, 0x00, 0x00, 0x86, 0x45, 0x00, 0x00, 0x87, 0x51, 0x00, 0x00, 0x8E,
 0x39, 0x00, 0x48, 0x8A, 0x45, 0x00, 0x18, 0x90, 0x40, 0x41, 0x00, 0x91, 0x4C, 0x41, 0x00, 0x94,
 0x40, 0x4B, 0x00, 0x95, 0x4C, 0x4B, 0x40, 0x80, 0x40, 0x00, 0x00, 0x81, 0x4C, 0x00, 0x00, 0x84,
 0x40, 0x00, 0x00, 0x85, 0x4C, 0x00, 0x20, 0x90, 0x45, 0x43, 0x00, 0x91, 0x51, 0x43, 0x00, 0x94,
 0x45, 0x4D, 0x00, 0x95, 0x51, 0x4D, 0x40, 0x80, 0x45, 0x00, 0x00, 0x81, 0x51, 0x00, 0x00, 0x84,
 0x45, 0x00, 0x00, 0x85, 0x51, 0x00, 0x81, 0x00, 0x8F, 0x45, 0x00, 0x00, 0x90, 0x48, 0x4C, 0x00,
 0x91, 0x54, 0x4C, 0x00, 0x94, 0x48, 0x56, 0x00, 0x95, 0x54, 0x56, 0x00, 0x99, 0x39, 0x37, 0x00,
 0x9A, 0x4C, 0x24, 0x00, 0x9B, 0x58, 0x3B, 0x00, 0x9E, 0x39, 0x22, 0x00, 0xFF, 0x00, 0x02, 0x00,
 0x4C, 0x00, 0xFF, 0x00, 0x02, 0x00, 0x44, 0x00, 0x9F, 0x45, 0x4F, 0x81, 0x41, 0x89, 0x39, 0x00,
 0x5F, 0x8E, 0x39, 0x00, 0x00, 0x99, 0x45, 0x34, 0x00, 0x9E, 0x45, 0x22, 0x1A, 0x8B, 0x58, 0x00,
 0x1D, 0x8A, 0x4C, 0x00, 0x0B, 0x8E, 0x45, 0x00, 0x1E, 0x98, 0x40, 0x31, 0x00, 0x9E, 0x40, 0x22,
 0x0D, 0x89, 0x45, 0x00, 0x81, 0x01, 0x88, 0x40, 0x00, 0x21, 0x8E, 0x40, 0x00, 0x04, 0x80, 0x48,
 0x00, 0x00, 0x81, 0x54, 0x00, 0x00, 0x84, 0x48, 0x00, 0x00, 0x85, 0x54, 0x00, 0x0D, 0x8F, 0x45,
 0x00, 0x00, 0x90, 0x45, 0x48, 0x00, 0x91, 0x51, 0x48, 0x00, 0x94, 0x45, 0x52, 0x00, 0x95, 0x51,
 0x52, 0x00, 0x99, 0x40, 0x34, 0x00, 0x9A, 0x58, 0x3E, 0x00, 0x9B, 0x64, 0x3E, 0x00, 0x9E, 0x40,
 0x22, 0x00, 0xFF, 0x00, 0x02, 0x00, 0x52, 0x00, 0xFF, 0x00, 0x02, 0x00, 0x51, 0x00, 0x9F, 0x45,
 0x50, 0x81, 0x75, 0x89, 0x40, 0x00, 0x2B, 0x8E, 0x40, 0x00, 0x00, 0x99, 0x4C, 0x40, 0x00, 0x9E,
 0x4C, 0x22, 0x21, 0x8A, 0x58, 0x00, 0x04, 0x8B, 0x64, 0x00, 0x1D, 0x8E, 0x4C, 0x00, 0x1E, 0x98,
 0x45, 0x34, 0x00, 0x9E, 0x45, 0x22, 0x0D, 0x89, 0x4C, 0x00, 0x78, 0x88, 0x45, 0x00, 0x2A, 0x8E,
 0x45, 0x00, 0x11, 0x8F, 0x45, 0x00, 0x00, 0x92, 0x48, 0x46, 0x00, 0x93, 0x54, 0x46, 0x00, 0x96,
 0x48, 0x50, 0x00, 0x97, 0x54, 0x50, 0x00, 0x9A, 0x45, 0x33, 0x00, 0xFF, 0x00, 0x02, 0x00, 0x33,
 0x00, 0x9E, 0x39, 0x33, 0x00, 0xFF, 0x00, 0x02, 0x00, 0x61, 0x00, 0xFF, 0x00, 0x02, 0x00, 0x61,
 0x00, 0x9F, 0x45, 0x61, 0x03, 0x80, 0x45, 0x00, 0x00, 0x81, 0x51, 0x00, 0x00, 0x84, 0x45, 0x00,
 0x00, 0x85, 0x51, 0x00, 0x81, 0x3D, 0x82, 0x48, 0x00, 0x00, 0x83, 0x54, 0x00, 0x00, 0x86, 0x48,
 0x00, 0x00, 0x87, 0x54, 0x00, 0x00, 0x8E, 0x39, 0x00, 0x48, 0x8A, 0x45, 0x00, 0x18, 0x90, 0x45,
 0x41, 0x00, 0x91, 0x51, 0x41, 0x00, 0x94, 0x45, 0x4B, 0x00, 0x95, 0x51, 0x4B, 0x40, 0x80, 0x45,
 0x00, 0x00, 0x81, 0x51, 0x00, 0x00, 0x84, 0x45, 0x00, 0x00, 0x85, 0x51, 0x00, 0x20, 0x90, 0x48,
 0x3D, 0x00, 0x91, 0x54, 0x3D, 0x00, 0x94, 0x48, 0x47, 0x00, 0x95, 0x54, 0x47, 0x40, 0x80, 0x48,
 0x00, 0x00, 0x81, 0x54, 0x00, 0x00, 0x84, 0x48, 0x00, 0x00, 0x85, 0x54, 0x00, 0x81, 0x00, 0x8F,
 0x45, 0x00, 0x00, 0x90, 0x4C, 0x47, 0x00, 0x91, 0x58, 0x47, 0x00, 0x94, 0x4C, 0x51, 0x00, 0x95,
 0x58, 0x51, 0x00, 0x99, 0x39, 0x3C, 0x00, 0x9A, 0x4C, 0x24, 0x00, 0x9B, 0x58, 0x3B, 0x00, 0x9E,
 0x39, 0x22, 0x00, 0xFF, 0x00, 0x02, 0x00, 0x4D, 0x00, 0xFF, 0x00, 0x02, 0x00, 0x4F, 0x00, 0x9F,
 0x45, 0x50, 0x81, 0x3B, 0x89, 0x39, 0x00, 0x65, 0x8E, 0x39, 0x00, 0x00, 0x99, 0x45, 0x37, 0x00,
 0x9E, 0x45, 0x22, 0x1A, 0x8B, 0x58, 0x00, 0x1D, 0x8A, 0x4C, 0x00, 0x0B, 0x8E, 0x45, 0x00, 0x1E,
 0x98, 0x40, 0x31, 0x00, 0x9E, 0x40, 0x22, 0x0E, 0x89, 0x45, 0x00, 0x81, 0x02, 0x88, 0x40, 0x00,
 0x1F, 0x8E, 0x40, 0x00, 0x11, 0x8F, 0x45, 0x00, 0x00, 0x92, 0x48, 0x4D, 0x00, 0x93, 0x54, 0x4D,
 0x00, 0x96, 0x48, 0x57, 0x00, 0x97, 0x54, 0x57, 0x00, 0x99, 0x40, 0x39, 0x00, 0x9A, 0x58, 0x3E,
 0x00, 0x9B, 0x64, 0x3E, 0x00, 0x9E, 0x40, 0x22, 0x00, 0xFF, 0x00, 0x02, 0x00, 0x52, 0x00, 0xFF,
 0x00, 0x02, 0x00, 0x51, 0x00, 0x9F, 0x45, 0x54, 0x1E, 0x80, 0x4C, 0x00, 0x00, 0x81, 0x58, 0x00,
 0x00, 0x84, 0x4C, 0x00, 0x00, 0x85, 0x58, 0x00, 0x81, 0x33, 0x89, 0x40, 0x00, 0x4F, 0x8E, 0x40,
 0x00, 0x00, 0x99, 0x4C, 0x3D, 0x00, 0x9E, 0x4C, 0x22, 0x21, 0x8A, 0x58, 0x00, 0x04, 0x8B, 0x64,
 0x00, 0x1D, 0x8E, 0x4C, 0x00, 0x1E, 0x98, 0x45, 0x30, 0x00, 0x9E, 0x45, 0x22, 0x0E, 0x89, 0x4C,
 0x00, 0x79, 0x88, 0x45, 0x00, 0x18, 0x82, 0x48, 0x00, 0x00, 0x83, 0x54, 0x00, 0x00, 0x86, 0x48,
 0x00, 0x00, 0x87, 0x54, 0x00, 0x10, 0x8E, 0x45, 0x00, 0x11, 0x8F, 0x45, 0x00, 0x00, 0x90, 0x4C,
 0x4F, 0x00, 0x91, 0x58, 0x4F, 0x00, 0x94, 0x4C, 0x57, 0x00, 0x95, 0x58, 0x57, 0x00, 0x9A, 0x43,
 0x34, 0x00, 0xFF, 0x00, 0x02, 0x00, 0x3C, 0x00, 0x9E, 0x37, 0x3C, 0x00, 0xFF, 0x00, 0x02, 0x00,
 0x61, 0x00, 0xFF, 0x00, 0x02, 0x00, 0x61, 0x00, 0x9F, 0x43, 0x61, 0x81, 0x40, 0x80, 0x4C, 0x00,
 0x00, 0x81, 0x58, 0x00, 0x00, 0x84, 0x4C, 0x00, 0x00, 0x85, 0x58, 0x00, 0x00, 0x8E, 0x37, 0x00,
 0x3A, 0x8A, 0x43, 0x00, 0x26, 0x90, 0x48, 0x3D, 0x00, 0x91, 0x54, 0x3D, 0x00, 0x94, 0x48, 0x47,
 0x00, 0x95, 0x54, 0x47, 0x40, 0x80, 0x48, 0x00, 0x00, 0x81, 0x54, 0x00, 0x00, 0x84, 0x48, 0x00,
 0x00, 0x85, 0x54, 0x00, 0x20, 0x90, 0x4C, 0x3D, 0x00, 0x91, 0x58, 0x3D, 0x00, 0x94, 0x4C, 0x47,
 0x00, 0x95, 0x58, 0x47, 0x40, 0x80, 0x4C, 0x00, 0x00, 0x81, 0x58, 0x00, 0x00, 0x84, 0x4C, 0x00,
 0x00, 0x85, 0x58, 0x00, 0x81, 0x00, 0x8F, 0x43, 0x00, 0x00, 0x90, 0x4F, 0x47, 0x00, 0x91, 0x5B,
 0x47, 0x00, 0x94, 0x4F, 0x51, 0x00, 0x95, 0x5B, 0x51, 0x00, 0x99, 0x37, 0x39, 0x00, 0x9A, 0x4F,
 0x2B, 0x00, 0x9E, 0x37, 0x22, 0x00, 0xFF, 0x00, 0x02, 0x00, 0x49, 0x00, 0xFF, 0x00, 0x02, 0x00,
 0x4D, 0x00, 0x9F, 0x43, 0x47, 0x81, 0x3F, 0x89, 0x37, 0x00, 0x61, 0x8E, 0x37, 0x00, 0x00, 0x99,
 0x43, 0x32, 0x00, 0x9E, 0x43, 0x22, 0x02, 0x8A, 0x4F, 0x00, 0x40, 0x8E, 0x43, 0x00, 0x1E, 0x98,
 0x3C, 0x35, 0x00, 0x9E, 0x3C, 0x22, 0x05, 0x89, 0x43, 0x00, 0x79, 0x88, 0x3C, 0x00, 0x31, 0x8E,
 0x3C, 0x00, 0x11, 0x80, 0x4F, 0x00, 0x00, 0x84, 0x4F, 0x00, 0x00, 0x8F, 0x43, 0x00, 0x00, 0x90,
 0x43, 0x4E, 0x00, 0x92, 0x4F, 0x4E, 0x00, 0x94, 0x43, 0x57, 0x00, 0x96, 0x4F, 0x57, 0x00, 0x99,
 0x43, 0x39, 0x00, 0x9A, 0x4F, 0x27, 0x00, 0x9B, 0x5B, 0x2D, 0x00, 0x9E, 0x43, 0x26, 0x00, 0xFF,
 0x00, 0x02, 0x00, 0x53, 0x00, 0xFF, 0x00, 0x02, 0x00, 0x59, 0x00, 0x9F, 0x43, 0x51, 0x07, 0x81,
 0x5B, 0x00, 0x00, 0x85, 0x5B, 0x00, 0x00, 0x82, 0x4F, 0x00, 0x00, 0x86, 0x4F, 0x00, 0x81, 0x0C,
 0x89, 0x43, 0x00, 0x51, 0x8B, 0x5B, 0x00, 0x34, 0x8A, 0x4F, 0x00, 0x08, 0x8E, 0x43, 0x00, 0x00,
 0x99, 0x4A, 0x3B, 0x00, 0x9E, 0x4A, 0x22, 0x42, 0x8E, 0x4A, 0x00, 0x1E, 0x98, 0x43, 0x30, 0x00,
 0x9E, 0x43, 0x22, 0x12, 0x89, 0x4A, 0x00, 0x61, 0x88, 0x43, 0x00, 0x25, 0x80, 0x43, 0x00, 0x00,
 0x84, 0x43, 0x00, 0x17, 0x8E, 0x43, 0x00, 0x11, 0x8F, 0x43, 0x00, 0x00, 0x90, 0x48, 0x4C, 0x00,
 0x91, 0x54, 0x4C, 0x00, 0x94, 0x48, 0x56, 0x00, 0x95, 0x54, 0x56, 0x00, 0x9A, 0x48, 0x33, 0x00,
 0xFF, 0x00, 0x02, 0x00, 0x3F, 0x00, 0x9E, 0x3C, 0x3F, 0x00, 0xFF, 0x00, 0x02, 0x00, 0x61, 0x00,
 0xFF, 0x00, 0x02, 0x00, 0x61, 0x00, 0x9F, 0x43, 0x61, 0x81, 0x40, 0x80, 0x48, 0x00, 0x00, 0x81,
 0x54, 0x00, 0x00, 0x84, 0x48, 0x00, 0x00, 0x85, 0x54, 0x00, 0x48, 0x8A, 0x48, 0x00, 0x18, 0x90,
 0x43, 0x49, 0x00, 0x91, 0x4F, 0x49, 0x00, 0x94, 0x43, 0x53, 0x00, 0x95, 0x4F, 0x53, 0x0D, 0x8E,
 0x3C, 0x00, 0x33, 0x80, 0x43, 0x00, 0x00, 0x81, 0x4F, 0x00, 0x00, 0x84, 0x43, 0x00, 0x00, 0x85,
 0x4F, 0x00, 0x20, 0x90, 0x48, 0x40, 0x00, 0x91, 0x54, 0x40, 0x00, 0x94, 0x48, 0x4A, 0x00, 0x95,
 0x54, 0x4A, 0x40, 0x80, 0x48, 0x00, 0x00, 0x81, 0x54, 0x00, 0x00, 0x84, 0x48, 0x00, 0x00, 0x85,
 0x54, 0x00, 0x81, 0x00, 0x8F, 0x43, 0x00, 0x00, 0x90, 0x4C, 0x40, 0x00, 0x91, 0x58, 0x40, 0x00,
 0x94, 0x4C, 0x4A, 0x00, 0x95, 0x58, 0x4A, 0x00, 0x99, 0x37, 0x3D, 0x00, 0x9A, 0x54, 0x24, 0x00,
 0x9E, 0x37, 0x22, 0x00, 0xFF, 0x00, 0x02, 0x00, 0x4C, 0x00, 0xFF, 0x00, 0x02, 0x00, 0x54, 0x00,
 0x9F, 0x43, 0x4F, 0x81, 0x0E, 0x89, 0x37, 0x00, 0x81, 0x12, 0x8E, 0x37, 0x00, 0x00, 0x99, 0x43,
 0x31, 0x00, 0x9E, 0x48, 0x22, 0x37, 0x8A, 0x54, 0x00, 0x0B, 0x8E, 0x48, 0x00, 0x1E, 0x98, 0x3C,
 0x3A, 0x00, 0x9A, 0x59, 0x22, 0x00, 0x9B, 0x65, 0x22, 0x00, 0x9E, 0x43, 0x22, 0x08, 0x89, 0x43,
 0x00, 0x28, 0x9C, 0x5B, 0x1D, 0x00, 0x9D, 0x67, 0x1D, 0x23, 0x8B, 0x65, 0x00, 0x0D, 0x8A, 0x59,
 0x00, 0x00, 0x9A, 0x5D, 0x23, 0x00, 0x9B, 0x69, 0x23, 0x0D, 0x88, 0x3C, 0x00, 0x23, 0x8C, 0x5B,
 0x00, 0x00, 0x8A, 0x5D, 0x00, 0x00, 0x9C, 0x5E, 0x22, 0x00, 0x9A, 0x6A, 0x22, 0x07, 0x8D, 0x67,
 0x00, 0x18, 0x8E, 0x43, 0x00, 0x05, 0x8B, 0x69, 0x00, 0x0C, 0x80, 0x4C, 0x00, 0x00, 0x81, 0x58,
 0x00, 0x00, 0x84, 0x4C, 0x00, 0x00, 0x85, 0x58, 0x00, 0x00, 0x8F, 0x43, 0x00, 0x00, 0x99, 0x3C,
 0x3E, 0x00, 0x9B, 0x60, 0x3E, 0x00, 0x9D, 0x6C, 0x3E, 0x00, 0x9E, 0x43, 0x26, 0x00, 0xFF, 0x00,
 0x02, 0x00, 0x55, 0x00, 0xFF, 0x00, 0x02, 0x00, 0x50, 0x00, 0x9F, 0x43, 0x53, 0x22, 0x8A, 0x6A,
 0x00, 0x07, 0x8C, 0x5E, 0x00, 0x81, 0x07, 0x89, 0x3C, 0x00, 0x7D, 0x8E, 0x43, 0x00, 0x14, 0x8B,
 0x60, 0x00, 0x04, 0x8D, 0x6C, 0x00, 0x43, 0x90, 0x48, 0x45, 0x00, 0x91, 0x3C, 0x45, 0x00, 0x94,
 0x48, 0x45, 0x00, 0x95, 0x3C, 0x45, 0x81, 0x00, 0x80, 0x48, 0x00, 0x00, 0x81, 0x3C, 0x00, 0x00,
 0x84, 0x48, 0x00, 0x00, 0x85, 0x3C, 0x00, 0x38, 0x8F, 0x43, 0x00, 0x00, 0x9A, 0x3A, 0x33, 0x00,
 0xFF, 0x00, 0x02, 0x00, 0x4A, 0x00, 0x9E, 0x2E, 0x36, 0x00, 0xFF, 0x00, 0x02, 0x00, 0x4B, 0x00,
 0xFF, 0x00, 0x02, 0x00, 0x4D, 0x00, 0x9F, 0x41, 0x57, 0x08, 0x90, 0x3E, 0x43, 0x00, 0x91, 0x4A,
 0x41, 0x00, 0x94, 0x3E, 0x43, 0x00, 0x95, 0x4A, 0x41, 0x81, 0x08, 0x80, 0x3E, 0x00, 0x00, 0x84,
 0x3E, 0x00, 0x08, 0x81, 0x4A, 0x00, 0x00, 0x85, 0x4A, 0x00, 0x28, 0x8E, 0x2E, 0x00, 0x48, 0x8A,
 0x3A, 0x00, 0x30, 0x90, 0x3A, 0x45, 0x00, 0x94, 0x3A, 0x45, 0x08, 0x91, 0x46, 0x48, 0x00, 0x95,
 0x46, 0x48, 0x28, 0x81, 0x46, 0x00, 0x00, 0x85, 0x46, 0x00, 0x08, 0x80, 0x3A, 0x00, 0x00, 0x84,
 0x3A, 0x00, 0x20, 0x90, 0x3E, 0x49, 0x00, 0x91, 0x4A, 0x4D, 0x00, 0x94, 0x3E, 0x49, 0x00, 0x95,
 0x4A, 0x4D, 0x81, 0x08, 0x80, 0x3E, 0x00, 0x00, 0x84, 0x3E, 0x00, 0x08, 0x81, 0x4A, 0x00, 0x00,
 0x85, 0x4A, 0x00, 0x20, 0x8F, 0x41, 0x00, 0x00, 0x99, 0x29, 0x34, 0x00, 0x9A, 0x41, 0x24, 0x00,
 0x9B, 0x4D, 0x3B, 0x00, 0x9E, 0x35, 0x36, 0x00, 0xFF, 0x00, 0x02, 0x00, 0x42, 0x00, 0xFF, 0x00,
 0x02, 0x00, 0x48, 0x00, 0x9F, 0x41, 0x47, 0x08, 0x90, 0x41, 0x53, 0x00, 0x91, 0x4D, 0x52, 0x00,
 0x94, 0x41, 0x53, 0x00, 0x95, 0x4D, 0x52, 0x81, 0x38, 0x89, 0x29, 0x00, 0x60, 0x8E, 0x35, 0x00,
 0x00, 0x99, 0x35, 0x35, 0x00, 0x9E, 0x41, 0x36, 0x1A, 0x8B, 0x4D, 0x00, 0x1D, 0x8A, 0x41, 0x00,
 0x19, 0x8E, 0x41, 0x00, 0x10, 0x98, 0x30, 0x38, 0x00, 0x9E, 0x3C, 0x36, 0x0A, 0x89, 0x35, 0x00,
 0x76, 0x88, 0x30, 0x00, 0x40, 0x8F, 0x41, 0x00, 0x00, 0x8E, 0x3C, 0x00, 0x00, 0x99, 0x30, 0x40,
 0x00, 0x9A, 0x4D, 0x3E, 0x00, 0x9B, 0x59, 0x3E, 0x00, 0x9E, 0x3C, 0x36, 0x00, 0xFF, 0x00, 0x02,
 0x00, 0x59, 0x00, 0xFF, 0x00, 0x02, 0x00, 0x4E, 0x00, 0x9F, 0x41, 0x48, 0x81, 0x30, 0x80, 0x41,
 0x00, 0x00, 0x84, 0x41, 0x00, 0x00, 0x89, 0x30, 0x00, 0x08, 0x81, 0x4D, 0x00, 0x00, 0x85, 0x4D,
 0x00, 0x68, 0x8E, 0x3C, 0x00, 0x00, 0x99, 0x3C, 0x3D, 0x00, 0x9E, 0x3C, 0x36, 0x21, 0x8A, 0x4D,
 0x00, 0x04, 0x8B, 0x59, 0x00, 0x3B, 0x8E, 0x3C, 0x00, 0x00, 0x98, 0x35, 0x3C, 0x00, 0x9E, 0x35,
 0x36, 0x10, 0x90, 0x3C, 0x41, 0x00, 0x91, 0x48, 0x43, 0x00, 0x94, 0x3C, 0x41, 0x00, 0x95, 0x48,
 0x43, 0x01, 0x89, 0x3C, 0x00, 0x68, 0x88, 0x35, 0x00, 0x1F, 0x81, 0x48, 0x00, 0x00, 0x85, 0x48,
 0x00, 0x08, 0x80, 0x3C, 0x00, 0x00, 0x84, 0x3C, 0x00, 0x20, 0x8F, 0x41, 0x00, 0x00, 0x8E, 0x35,
 0x00, 0x00, 0x9A, 0x3A, 0x33, 0x00, 0xFF, 0x00, 0x02, 0x00, 0x4A, 0x00, 0x9E, 0x2E, 0x36, 0x00,
 0xFF, 0x00, 0x02, 0x00, 0x59, 0x00, 0xFF, 0x00, 0x02, 0x00, 0x61, 0x00, 0x9F, 0x41, 0x57, 0x08,
 0x90, 0x3E, 0x42, 0x00, 0x91, 0x4A, 0x3F, 0x00, 0x94, 0x3E, 0x42, 0x00, 0x95, 0x4A, 0x3F, 0x78,
 0x80, 0x3E, 0x00, 0x00, 0x84, 0x3E, 0x00, 0x08, 0x81, 0x4A, 0x00, 0x00, 0x85, 0x4A, 0x00, 0x38,
 0x8E, 0x2E, 0x00, 0x48, 0x8A, 0x3A, 0x00, 0x30, 0x90, 0x3A, 0x45, 0x00, 0x91, 0x46, 0x44, 0x00,
 0x94, 0x3A, 0x45, 0x00, 0x95, 0x46, 0x44, 0x28, 0x81, 0x46, 0x00, 0x00, 0x85, 0x46, 0x00, 0x08,
 0x80, 0x3A, 0x00, 0x00, 0x84, 0x3A, 0x00, 0x28, 0x90, 0x3E, 0x4A, 0x00, 0x91, 0x4A, 0x49, 0x00,
 0x94, 0x3E, 0x4A, 0x00, 0x95, 0x4A, 0x49, 0x81, 0x00, 0x81, 0x4A, 0x00, 0x00, 0x85, 0x4A, 0x00,
 0x10, 0x80, 0x3E, 0x00, 0x00, 0x84, 0x3E, 0x00, 0x20, 0x8F, 0x41, 0x00, 0x00, 0x99, 0x29, 0x34,
 0x00, 0x9A, 0x41, 0x24, 0x00, 0x9B, 0x4D, 0x3B, 0x00, 0x9E, 0x35, 0x36, 0x00, 0xFF, 0x00, 0x02,
 0x00, 0x50, 0x00, 0xFF, 0x00, 0x02, 0x00, 0x45, 0x00, 0x9F, 0x41, 0x4E, 0x08, 0x90, 0x41, 0x56,
 0x00, 0x91, 0x4D, 0x57, 0x00, 0x94, 0x41, 0x56, 0x00, 0x95, 0x4D, 0x57, 0x81, 0x38, 0x89, 0x29,
 0x00, 0x60, 0x8E, 0x35, 0x00, 0x00, 0x99, 0x35, 0x35, 0x00, 0x9E, 0x41, 0x36, 0x1A, 0x8B, 0x4D,
 0x00, 0x1D, 0x8A, 0x41, 0x00, 0x19, 0x8E, 0x41, 0x00, 0x10, 0x98, 0x30, 0x38, 0x00, 0x9E, 0x3C,
 0x36, 0x0A, 0x89, 0x35, 0x00, 0x76, 0x88, 0x30, 0x00, 0x40, 0x8F, 0x41, 0x00, 0x00, 0x8E, 0x3C,
 0x00, 0x00, 0x99, 0x30, 0x40, 0x00, 0x9A, 0x4D, 0x3E, 0x00, 0x9B, 0x59, 0x3E, 0x00, 0x9E, 0x3C,
 0x36, 0x00, 0xFF, 0x00, 0x02, 0x00, 0x44, 0x00, 0xFF, 0x00, 0x02, 0x00, 0x4E, 0x00, 0x9F, 0x41,
 0x3F, 0x81, 0x20, 0x81, 0x4D, 0x00, 0x00, 0x85, 0x4D, 0x00, 0x10, 0x89, 0x30, 0x00, 0x08, 0x80,
 0x41, 0x00, 0x00, 0x84, 0x41, 0x00, 0x68, 0x8E, 0x3C, 0x00, 0x00, 0x99, 0x3C, 0x3D, 0x00, 0x9E,
 0x3C, 0x36, 0x21, 0x8A, 0x4D, 0x00, 0x04, 0x8B, 0x59, 0x00, 0x3B, 0x8E, 0x3C, 0x00, 0x00, 0x98,
 0x35, 0x3C, 0x00, 0x9E, 0x35, 0x36, 0x10, 0x90, 0x3C, 0x40, 0x00, 0x91, 0x48, 0x40, 0x00, 0x94,
 0x3C, 0x40, 0x00, 0x95, 0x48, 0x40, 0x01, 0x89, 0x3C, 0x00, 0x68, 0x88, 0x35, 0x00, 0x0F, 0x80,
 0x3C, 0x00, 0x00, 0x84, 0x3C, 0x00, 0x10, 0x81, 0x48, 0x00, 0x00, 0x85, 0x48, 0x00, 0x28, 0x8F,
 0x41, 0x00, 0x00, 0x8E, 0x35, 0x00, 0x00, 0x9A, 0x3A, 0x33, 0x00, 0xFF, 0x00, 0x02, 0x00, 0x4A,
 0x00, 0x9E, 0x2E, 0x36, 0x00, 0xFF, 0x00, 0x02, 0x00, 0x59, 0x00, 0xFF, 0x00, 0x02, 0x00, 0x5A,
 0x00, 0x9F, 0x41, 0x5B, 0x08, 0x90, 0x3E, 0x3F, 0x00, 0x91, 0x4A, 0x43, 0x00, 0x94, 0x3E, 0x3F,
 0x00, 0x95, 0x4A, 0x43, 0x78, 0x80, 0x3E, 0x00, 0x00, 0x81, 0x4A, 0x00, 0x00, 0x84, 0x3E, 0x00,
 0x00, 0x85, 0x4A, 0x00, 0x40, 0x8E, 0x2E, 0x00, 0x48, 0x8A, 0x3A, 0x00, 0x30, 0x90, 0x3A, 0x48,
 0x00, 0x94, 0x3A, 0x48, 0x08, 0x91, 0x46, 0x45, 0x00, 0x95, 0x46, 0x45, 0x28, 0x80, 0x3A, 0x00,
 0x00, 0x84, 0x3A, 0x00, 0x18, 0x81, 0x46, 0x00, 0x00, 0x85, 0x46, 0x00, 0x08, 0x90, 0x3E, 0x4B,
 0x00, 0x94, 0x3E, 0x4B, 0x08, 0x91, 0x4A, 0x4D, 0x00, 0x95, 0x4A, 0x4D, 0x81, 0x08, 0x80, 0x3E,
 0x00, 0x00, 0x84, 0x3E, 0x00, 0x08, 0x81, 0x4A, 0x00, 0x00, 0x85, 0x4A, 0x00, 0x20, 0x8F, 0x41,
 0x00, 0x00, 0x99, 0x2B, 0x34, 0x00, 0x9A, 0x43, 0x24, 0x00, 0x9B, 0x4F, 0x3B, 0x00, 0x9E, 0x37,
 0x36, 0x00, 0xFF, 0x00, 0x02, 0x00, 0x4E, 0x00, 0xFF, 0x00, 0x02, 0x00, 0x36, 0x00, 0x9F, 0x43,
 0x4D, 0x08, 0x90, 0x43, 0x54, 0x00, 0x94, 0x43, 0x54, 0x08, 0x91, 0x4F, 0x52, 0x00, 0x95, 0x4F,
 0x52, 0x81, 0x30, 0x89, 0x2B, 0x00, 0x60, 0x8E, 0x37, 0x00, 0x00, 0x99, 0x37, 0x35, 0x00, 0x9E,
 0x43, 0x36, 0x1A, 0x8B, 0x4F, 0x00, 0x1D, 0x8A, 0x43, 0x00, 0x19, 0x8E, 0x43, 0x00, 0x10, 0x98,
 0x2B, 0x38, 0x00, 0x9E, 0x37, 0x36, 0x0A, 0x89, 0x37, 0x00, 0x76, 0x88, 0x2B, 0x00, 0x18, 0x80,
 0x43, 0x00, 0x00, 0x84, 0x43, 0x00, 0x08, 0x81, 0x4F, 0x00, 0x00, 0x85, 0x4F, 0x00, 0x20, 0x8F,
 0x43, 0x00, 0x00, 0x8E, 0x37, 0x00, 0x00, 0x99, 0x30, 0x40, 0x00, 0x9A, 0x48, 0x3E, 0x00, 0x9B,
 0x54, 0x3E, 0x00, 0x9E, 0x3C, 0x36, 0x00, 0xFF, 0x00, 0x02, 0x00, 0x54, 0x00, 0xFF, 0x00, 0x02,
 0x00, 0x5C, 0x00, 0x9F, 0x43, 0x56, 0x08, 0x90, 0x3C, 0x42, 0x00, 0x91, 0x48, 0x44, 0x00, 0x94,
 0x3C, 0x42, 0x00, 0x95, 0x48, 0x44, 0x81, 0x28, 0x89, 0x30, 0x00, 0x70, 0x8E, 0x3C, 0x00, 0x00,
 0x99, 0x3C, 0x3D, 0x00, 0x9E, 0x43, 0x36, 0x21, 0x8A, 0x48, 0x00, 0x04, 0x8B, 0x54, 0x00, 0x3B,
 0x8E, 0x43, 0x00, 0x00, 0x98, 0x37, 0x3C, 0x00, 0x9E, 0x3C, 0x36, 0x11, 0x89, 0x3C, 0x00, 0x68,
 0x88, 0x37, 0x00, 0x17, 0x80, 0x3C, 0x00, 0x00, 0x84, 0x3C, 0x00, 0x08, 0x81, 0x48, 0x00, 0x00,
 0x85, 0x48, 0x00, 0x28, 0x8F, 0x43, 0x00, 0x00, 0x8E, 0x3C, 0x00, 0x00, 0x9A, 0x35, 0x33, 0x00,
 0xFF, 0x00, 0x02, 0x00, 0x3F, 0x00, 0x9E, 0x35, 0x3F, 0x00, 0xFF, 0x00, 0x02, 0x00, 0x56, 0x00,
 0xFF, 0x00, 0x02, 0x00, 0x54, 0x00, 0x9F, 0x41, 0x55, 0x08, 0x90, 0x41, 0x42, 0x00, 0x91, 0x4D,
 0x3F, 0x00, 0x94, 0x41, 0x42, 0x00, 0x95, 0x4D, 0x3F, 0x81, 0x00, 0x80, 0x41, 0x00, 0x00, 0x84,
 0x41, 0x00, 0x10, 0x81, 0x4D, 0x00, 0x00, 0x85, 0x4D, 0x00, 0x70, 0x8A, 0x35, 0x00, 0x25, 0x8E,
 0x35, 0x00, 0x0B, 0x90, 0x3C, 0x43, 0x00, 0x91, 0x48, 0x46, 0x00, 0x94, 0x3C, 0x43, 0x00, 0x95,
 0x48, 0x46, 0x30, 0x80, 0x3C, 0x00, 0x00, 0x81, 0x48, 0x00, 0x00, 0x84, 0x3C, 0x00, 0x00, 0x85,
 0x48, 0x00, 0x28, 0x90, 0x41, 0x4D, 0x00, 0x91, 0x4D, 0x4B, 0x00, 0x94, 0x41, 0x4D, 0x00, 0x95,
 0x4D, 0x4B, 0x81, 0x10, 0x80, 0x41, 0x00, 0x00, 0x81, 0x4D, 0x00, 0x00, 0x84, 0x41, 0x00, 0x00,
 0x85, 0x4D, 0x00, 0x20, 0x8F, 0x41, 0x00, 0x00, 0x99, 0x29, 0x34, 0x00, 0x9A, 0x41, 0x24, 0x00,
 0x9B, 0x4D, 0x3B, 0x00, 0x9E, 0x30, 0x22, 0x00, 0xFF, 0x00, 0x02, 0x00, 0x55, 0x00, 0xFF, 0x00,
 0x02, 0x00, 0x56, 0x00, 0x9F, 0x41, 0x4D, 0x08, 0x90, 0x45, 0x57, 0x00, 0x94, 0x45, 0x57, 0x08,
 0x91, 0x51, 0x53, 0x00, 0x95, 0x51, 0x53, 0x81, 0x30, 0x89, 0x29, 0x00, 0x60, 0x8E, 0x30, 0x00,
 0x00, 0x99, 0x35, 0x35, 0x00, 0x9E, 0x41, 0x22, 0x1A, 0x8B, 0x4D, 0x00, 0x1D, 0x8A, 0x41, 0x00,
 0x0B, 0x8E, 0x41, 0x00, 0x1E, 0x98, 0x30, 0x38, 0x00, 0x9E, 0x3C, 0x22, 0x0A, 0x89, 0x35, 0x00,
 0x76, 0x88, 0x30, 0x00, 0x2F, 0x8E, 0x3C, 0x00, 0x11, 0x8F, 0x41, 0x00, 0x00, 0x99, 0x30, 0x40,
 0x00, 0x9A, 0x4D, 0x3E, 0x00, 0x9B, 0x59, 0x3E, 0x00, 0x9E, 0x3C, 0x26, 0x00, 0xFF, 0x00, 0x02,
 0x00, 0x41, 0x00, 0xFF, 0x00, 0x02, 0x00, 0x56, 0x00, 0x9F, 0x41, 0x4B, 0x81, 0x20, 0x80, 0x45,
 0x00, 0x00, 0x84, 0x45, 0x00, 0x10, 0x89, 0x30, 0x00, 0x08, 0x81, 0x51, 0x00, 0x00, 0x85, 0x51,
 0x00, 0x68, 0x99, 0x3C, 0x3D, 0x0D, 0x8E, 0x3C, 0x00, 0x14, 0x8A, 0x4D, 0x00, 0x04, 0x8B, 0x59,
 0x00, 0x3B, 0x98, 0x35, 0x3C, 0x08, 0x90, 0x48, 0x41, 0x00, 0x94, 0x48, 0x41, 0x08, 0x91, 0x3C,
 0x40, 0x00, 0x95, 0x3C, 0x40, 0x01, 0x89, 0x3C, 0x00, 0x68, 0x88, 0x35, 0x00, 0x07, 0x80, 0x48,
 0x00, 0x00, 0x84, 0x48, 0x00, 0x10, 0x81, 0x3C, 0x00, 0x00, 0x85, 0x3C, 0x00, 0x30, 0x8F, 0x41,
 0x00, 0x00, 0x9A, 0x3A, 0x33, 0x00, 0xFF, 0x00, 0x02, 0x00, 0x4A, 0x00, 0x9E, 0x2E, 0x36, 0x00,
 0xFF, 0x00, 0x02, 0x00, 0x5A, 0x00, 0xFF, 0x00, 0x02, 0x00, 0x5E, 0x00, 0x9F, 0x41, 0x59, 0x08,
 0x90, 0x4A, 0x40, 0x00, 0x94, 0x4A, 0x40, 0x08, 0x91, 0x3E, 0x41, 0x00, 0x95, 0x3E, 0x41, 0x78,
 0x80, 0x4A, 0x00, 0x00, 0x84, 0x4A, 0x00, 0x00, 0x81, 0x3E, 0x00, 0x00, 0x85, 0x3E, 0x00, 0x38,
 0x8E, 0x2E, 0x00, 0x48, 0x8A, 0x3A, 0x00, 0x30, 0x90, 0x3A, 0x45, 0x00, 0x91, 0x46, 0x43, 0x00,
 0x94, 0x3A, 0x45, 0x00, 0x95, 0x46, 0x43, 0x28, 0x81, 0x46, 0x00, 0x00, 0x85, 0x46, 0x00, 0x10,
 0x80, 0x3A, 0x00, 0x00, 0x84, 0x3A, 0x00, 0x18, 0x90, 0x4A, 0x4B, 0x00, 0x94, 0x4A, 0x4B, 0x08,
 0x91, 0x3E, 0x4A, 0x00, 0x95, 0x3E, 0x4A, 0x78, 0x80, 0x4A, 0x00, 0x00, 0x84, 0x4A, 0x00, 0x08,
 0x81, 0x3E, 0x00, 0x00, 0x85, 0x3E, 0x00, 0x30, 0x8F, 0x41, 0x00, 0x00, 0x9A, 0x41, 0x24, 0x00,
 0x9B, 0x4D, 0x3B, 0x00, 0x9E, 0x35, 0x36, 0x00, 0xFF, 0x00, 0x02, 0x00, 0x47, 0x00, 0xFF, 0x00,
 0x02, 0x00, 0x51, 0x00, 0x9F, 0x41, 0x4B, 0x10, 0x90, 0x41, 0x57, 0x00, 0x91, 0x4D, 0x53, 0x00,
 0x94, 0x41, 0x57, 0x00, 0x95, 0x4D, 0x53, 0x81, 0x30, 0x99, 0x29, 0x34, 0x60, 0x8E, 0x35, 0x00,
 0x00, 0x9E, 0x41, 0x36, 0x1A, 0x8B, 0x4D, 0x00, 0x1D, 0x8A, 0x41, 0x00, 0x19, 0x8E, 0x41, 0x00,
 0x10, 0x89, 0x29, 0x00, 0x00, 0x9E, 0x3C, 0x36, 0x60, 0x99, 0x35, 0x35, 0x60, 0x8F, 0x41, 0x00,
 0x00, 0x8E, 0x3C, 0x00, 0x00, 0x98, 0x30, 0x38, 0x00, 0x9A, 0x4D, 0x3E, 0x00, 0x9B, 0x59, 0x3E,
 0x00, 0x9E, 0x3C, 0x36, 0x00, 0xFF, 0x00, 0x02, 0x00, 0x50, 0x00, 0xFF, 0x00, 0x02, 0x00, 0x4A,
 0x00, 0x9F, 0x41, 0x44, 0x0A, 0x89, 0x35, 0x00, 0x76, 0x88, 0x30, 0x00, 0x28, 0x80, 0x41, 0x00,
 0x00, 0x84, 0x41, 0x00, 0x08, 0x81, 0x4D, 0x00, 0x00, 0x85, 0x4D, 0x00, 0x10, 0x99, 0x30, 0x40,
 0x60, 0x8E, 0x3C, 0x00, 0x00, 0x9E, 0x3C, 0x36, 0x21, 0x8A, 0x4D, 0x00, 0x04, 0x8B, 0x59, 0x00,
 0x2B, 0x89, 0x30, 0x00, 0x10, 0x8E, 0x3C, 0x00, 0x00, 0x9E, 0x35, 0x36, 0x10, 0x90, 0x3C, 0x45,
 0x00, 0x91, 0x48, 0x41, 0x00, 0x94, 0x3C, 0x45, 0x00, 0x95, 0x48, 0x41, 0x50, 0x99, 0x3C, 0x3D,
 0x28, 0x81, 0x48, 0x00, 0x00, 0x85, 0x48, 0x00, 0x18, 0x80, 0x3C, 0x00, 0x00, 0x84, 0x3C, 0x00,
 0x20, 0x8F, 0x41, 0x00, 0x00, 0x8E, 0x35, 0x00, 0x00, 0x98, 0x35, 0x3C, 0x00, 0x9A, 0x3A, 0x33,
 0x00, 0xFF, 0x00, 0x02, 0x00, 0x4A, 0x00, 0x9E, 0x2E, 0x36, 0x00, 0xFF, 0x00, 0x02, 0x00, 0x5F,
 0x00, 0xFF, 0x00, 0x02, 0x00, 0x61, 0x00, 0x9F, 0x41, 0x59, 0x08, 0x90, 0x3E, 0x3F, 0x00, 0x94,
 0x3E, 0x3F, 0x08, 0x91, 0x4A, 0x42, 0x00, 0x95, 0x4A, 0x42, 0x01, 0x89, 0x3C, 0x00, 0x68, 0x88,
 0x35, 0x00, 0x1F, 0x80, 0x3E, 0x00, 0x00, 0x84, 0x3E, 0x00, 0x08, 0x81, 0x4A, 0x00, 0x00, 0x85,
 0x4A, 0x00, 0x20, 0x8E, 0x2E, 0x00, 0x48, 0x8A, 0x3A, 0x00, 0x38, 0x90, 0x3A, 0x44, 0x00, 0x91,
 0x46, 0x48, 0x00, 0x94, 0x3A, 0x44, 0x00, 0x95, 0x46, 0x48, 0x28, 0x80, 0x3A, 0x00, 0x00, 0x84,
 0x3A, 0x00, 0x18, 0x81, 0x46, 0x00, 0x00, 0x85, 0x46, 0x00, 0x08, 0x90, 0x3E, 0x4D, 0x00, 0x94,
 0x3E, 0x4D, 0x08, 0x91, 0x4A, 0x4C, 0x00, 0x95, 0x4A, 0x4C, 0x78, 0x81, 0x4A, 0x00, 0x00, 0x85,
 0x4A, 0x00, 0x10, 0x80, 0x3E, 0x00, 0x00, 0x84, 0x3E, 0x00, 0x28, 0x8F, 0x41, 0x00, 0x00, 0x9A,
 0x41, 0x24, 0x00, 0x9B, 0x4D, 0x3B, 0x00, 0x9E, 0x35, 0x36, 0x00, 0xFF, 0x00, 0x02, 0x00, 0x4A,
 0x00, 0xFF, 0x00, 0x02, 0x00, 0x51, 0x00, 0x9F, 0x41, 0x47, 0x08, 0x90, 0x41, 0x53, 0x00, 0x94,
 0x41, 0x53, 0x08, 0x91, 0x4D, 0x52, 0x00, 0x95, 0x4D, 0x52, 0x81, 0x30, 0x99, 0x29, 0x34, 0x60,
 0x8E, 0x35, 0x00, 0x00, 0x9E, 0x41, 0x36, 0x1A, 0x8B, 0x4D, 0x00, 0x1D, 0x8A, 0x41, 0x00, 0x19,
 0x8E, 0x41, 0x00, 0x10, 0x89, 0x29, 0x00, 0x00, 0x9E, 0x3C, 0x36, 0x60, 0x99, 0x35, 0x35, 0x60,
 0x8F, 0x41, 0x00, 0x00, 0x8E, 0x3C, 0x00, 0x00, 0x98, 0x30, 0x38, 0x00, 0x9A, 0x4D, 0x3E, 0x00,
 0x9B, 0x59, 0x3E, 0x00, 0x9E, 0x3C, 0x36, 0x00, 0xFF, 0x00, 0x02, 0x00, 0x47, 0x00, 0xFF, 0x00,
 0x02, 0x00, 0x51, 0x00, 0x9F, 0x41, 0x47, 0x0A, 0x89, 0x35, 0x00, 0x76, 0x88, 0x30, 0x00, 0x38,
 0x80, 0x41, 0x00, 0x00, 0x84, 0x41, 0x00, 0x08, 0x81, 0x4D, 0x00, 0x00, 0x85, 0x4D, 0x00, 0x00,
 0x99, 0x30, 0x40, 0x60, 0x8E, 0x3C, 0x00, 0x00, 0x9E, 0x3C, 0x36, 0x21, 0x8A, 0x4D, 0x00, 0x04,
 0x8B, 0x59, 0x00, 0x2B, 0x89, 0x30, 0x00, 0x10, 0x8E, 0x3C, 0x00, 0x00, 0x9E, 0x35, 0x36, 0x08,
 0x90, 0x48, 0x43, 0x00, 0x94, 0x48, 0x43, 0x08, 0x91, 0x3C, 0x44, 0x00, 0x95, 0x3C, 0x44, 0x50,
 0x99, 0x3C, 0x3D, 0x30, 0x80, 0x48, 0x00, 0x00, 0x84, 0x48, 0x00, 0x10, 0x81, 0x3C, 0x00, 0x00,
 0x85, 0x3C, 0x00, 0x20, 0x8F, 0x41, 0x00, 0x00, 0x8E, 0x35, 0x00, 0x00, 0x98, 0x35, 0x3C, 0x00,
 0x9A, 0x3A, 0x33, 0x00, 0xFF, 0x00, 0x02, 0x00, 0x4A, 0x00, 0x9E, 0x2E, 0x36, 0x00, 0xFF, 0x00,
 0x02, 0x00, 0x5B, 0x00, 0xFF, 0x00, 0x02, 0x00, 0x57, 0x00, 0x9F, 0x41, 0x56, 0x10, 0x90, 0x3E,
 0x4B, 0x00, 0x91, 0x4A, 0x4D, 0x00, 0x94, 0x3E, 0x4B, 0x00, 0x95, 0x4A, 0x4D, 0x01, 0x89, 0x3C,
 0x00, 0x68, 0x88, 0x35, 0x00, 0x1F, 0x80, 0x3E, 0x00, 0x00, 0x81, 0x4A, 0x00, 0x00, 0x84, 0x3E,
 0x00, 0x00, 0x85, 0x4A, 0x00, 0x28, 0x8E, 0x2E, 0x00, 0x48, 0x8A, 0x3A, 0x00, 0x30, 0x90, 0x3A,
 0x43, 0x00, 0x91, 0x46, 0x46, 0x00, 0x94, 0x3A, 0x43, 0x00, 0x95, 0x46, 0x46, 0x38, 0x81, 0x46,
 0x00, 0x00, 0x85, 0x46, 0x00, 0x08, 0x80, 0x3A, 0x00, 0x00, 0x84, 0x3A, 0x00, 0x10, 0x90, 0x3E,
 0x4D, 0x00, 0x94, 0x3E, 0x4D, 0x08, 0x91, 0x4A, 0x49, 0x00, 0x95, 0x4A, 0x49, 0x78, 0x80, 0x3E,
 0x00, 0x00, 0x84, 0x3E, 0x00, 0x08, 0x81, 0x4A, 0x00, 0x00, 0x85, 0x4A, 0x00, 0x30, 0x8F, 0x41,
 0x00, 0x00, 0x9A, 0x43, 0x24, 0x00, 0x9B, 0x4F, 0x3B, 0x00, 0x9E, 0x37, 0x36, 0x00, 0xFF, 0x00,
 0x02, 0x00, 0x59, 0x00, 0xFF, 0x00, 0x02, 0x00, 0x56, 0x00, 0x9F, 0x3E, 0x5F, 0x10, 0x90, 0x43,
 0x57, 0x00, 0x91, 0x4F, 0x53, 0x00, 0x94, 0x43, 0x57, 0x00, 0x95, 0x4F, 0x53, 0x81, 0x30, 0x99,
 0x2B, 0x34, 0x60, 0x8E, 0x37, 0x00, 0x00, 0x9E, 0x43, 0x36, 0x1A, 0x8B, 0x4F, 0x00, 0x1D, 0x8A,
 0x43, 0x00, 0x19, 0x8E, 0x43, 0x00, 0x10, 0x89, 0x2B, 0x00, 0x00, 0x9E, 0x37, 0x36, 0x60, 0x99,
 0x37, 0x35, 0x38, 0x80, 0x43, 0x00, 0x00, 0x84, 0x43, 0x00, 0x08, 0x81, 0x4F, 0x00, 0x00, 0x85,
 0x4F, 0x00, 0x20, 0x8F, 0x3E, 0x00, 0x00, 0x8E, 0x37, 0x00, 0x00, 0x98, 0x2B, 0x38, 0x00, 0x9A,
 0x48, 0x3E, 0x00, 0x9B, 0x54, 0x3E, 0x00, 0x9E, 0x3C, 0x36, 0x00, 0xFF, 0x00, 0x02, 0x00, 0x5F,
 0x00, 0xFF, 0x00, 0x02, 0x00, 0x5F, 0x00, 0x9F, 0x3C, 0x61, 0x08, 0x90, 0x3C, 0x43, 0x00, 0x91,
 0x48, 0x40, 0x00, 0x94, 0x3C, 0x43, 0x00, 0x95, 0x48, 0x40, 0x02, 0x89, 0x37, 0x00, 0x76, 0x88,
 0x2B, 0x00, 0x40, 0x99, 0x30, 0x40, 0x60, 0x8E, 0x3C, 0x00, 0x00, 0x9E, 0x43, 0x36, 0x21, 0x8A,
 0x48, 0x00, 0x04, 0x8B, 0x54, 0x00, 0x2B, 0x89, 0x30, 0x00, 0x10, 0x8E, 0x43, 0x00, 0x00, 0x9E,
 0x3C, 0x36, 0x60, 0x99, 0x3C, 0x3D, 0x38, 0x81, 0x48, 0x00, 0x00, 0x85, 0x48, 0x00, 0x08, 0x80,
 0x3C, 0x00, 0x00, 0x84, 0x3C, 0x00, 0x20, 0x8F, 0x3C, 0x00, 0x00, 0x8E, 0x3C, 0x00, 0x00, 0x98,
 0x37, 0x3C, 0x00, 0x9A, 0x35, 0x33, 0x00, 0xFF, 0x00, 0x02, 0x00, 0x3F, 0x00, 0x9E, 0x35, 0x3F,
 0x00, 0xFF, 0x00, 0x02, 0x00, 0x57, 0x00, 0xFF, 0x00, 0x02, 0x00, 0x57, 0x00, 0x9F, 0x3C, 0x59,
 0x08, 0x90, 0x41, 0x43, 0x00, 0x94, 0x41, 0x43, 0x08, 0x91, 0x4D, 0x42, 0x00, 0x95, 0x4D, 0x42,
 0x01, 0x89, 0x3C, 0x00, 0x68, 0x88, 0x37, 0x00, 0x1F, 0x80, 0x41, 0x00, 0x00, 0x84, 0x41, 0x00,
 0x00, 0x81, 0x4D, 0x00, 0x00, 0x85, 0x4D, 0x00, 0x70, 0x8A, 0x35, 0x00, 0x20, 0x90, 0x48, 0x3F,
 0x00, 0x94, 0x48, 0x3F, 0x05, 0x8E, 0x35, 0x00, 0x03, 0x91, 0x3C, 0x42, 0x00, 0x95, 0x3C, 0x42,
 0x30, 0x80, 0x48, 0x00, 0x00, 0x84, 0x48, 0x00, 0x08, 0x81, 0x3C, 0x00, 0x00, 0x85, 0x3C, 0x00,
 0x20, 0x90, 0x4D, 0x42, 0x00, 0x94, 0x4D, 0x42, 0x08, 0x91, 0x41, 0x41, 0x00, 0x95, 0x41, 0x41,
 0x81, 0x00, 0x80, 0x4D, 0x00, 0x00, 0x84, 0x4D, 0x00, 0x10, 0x81, 0x41, 0x00, 0x00, 0x85, 0x41,
 0x00, 0x20, 0x8F, 0x3C, 0x00, 0x00, 0x9A, 0x41, 0x24, 0x00, 0x9E, 0x30, 0x22, 0x00, 0xFF, 0x00,
 0x02, 0x00, 0x58, 0x00, 0xFF, 0x00, 0x02, 0x00, 0x58, 0x00, 0x9F, 0x41, 0x58, 0x08, 0x90, 0x45,
 0x4B, 0x00, 0x94, 0x45, 0x4B, 0x08, 0x91, 0x51, 0x4B, 0x00, 0x95, 0x51, 0x4B, 0x81, 0x08, 0x80,
 0x45, 0x00, 0x00, 0x84, 0x45, 0x00, 0x08, 0x81, 0x51, 0x00, 0x00, 0x85, 0x51, 0x00, 0x20, 0x99,
 0x29, 0x34, 0x60, 0x8E, 0x30, 0x00, 0x00, 0x9E, 0x41, 0x22, 0x08, 0x90, 0x41, 0x4A, 0x00, 0x94,
 0x41, 0x4A, 0x08, 0x91, 0x4D, 0x4D, 0x00, 0x95, 0x4D, 0x4D, 0x20, 0x80, 0x41, 0x00, 0x00, 0x84,
 0x41, 0x00, 0x07, 0x8A, 0x41, 0x00, 0x0B, 0x8E, 0x41, 0x00, 0x06, 0x81, 0x4D, 0x00, 0x00, 0x85,
 0x4D, 0x00, 0x18, 0x89, 0x29, 0x00, 0x00, 0x9E, 0x3C, 0x22, 0x10, 0x90, 0x45, 0x4D, 0x00, 0x91,
 0x51, 0x4D, 0x00, 0x94, 0x45, 0x4D, 0x00, 0x95, 0x51, 0x4D, 0x50, 0x99, 0x35, 0x35, 0x38, 0x80,
 0x45, 0x00, 0x00, 0x84, 0x45, 0x00, 0x10, 0x81, 0x51, 0x00, 0x00, 0x85, 0x51, 0x00, 0x07, 0x8E,
 0x3C, 0x00, 0x11, 0x8F, 0x41, 0x00, 0x00, 0x98, 0x30, 0x38, 0x00, 0x9A, 0x4D, 0x24, 0x00, 0x9E,
 0x3C, 0x26, 0x00, 0xFF, 0x00, 0x02, 0x00, 0x57, 0x00, 0xFF, 0x00, 0x02, 0x00, 0x57, 0x00, 0x9F,
 0x45, 0x57, 0x08, 0x90, 0x48, 0x56, 0x00, 0x94, 0x48, 0x56, 0x02, 0x89, 0x35, 0x00, 0x06, 0x91,
 0x54, 0x55, 0x00, 0x95, 0x54, 0x55, 0x70, 0x88, 0x30, 0x00, 0x18, 0x80, 0x48, 0x00, 0x00, 0x84,
 0x48, 0x00, 0x00, 0x81, 0x54, 0x00, 0x00, 0x85, 0x54, 0x00, 0x28, 0x99, 0x30, 0x40, 0x68, 0x90,
 0x45, 0x57, 0x00, 0x94, 0x45, 0x57, 0x05, 0x8E, 0x3C, 0x00, 0x03, 0x91, 0x51, 0x53, 0x00, 0x95,
 0x51, 0x53, 0x20, 0x80, 0x45, 0x00, 0x00, 0x84, 0x45, 0x00, 0x07, 0x8A, 0x4D, 0x00, 0x09, 0x81,
 0x51, 0x00, 0x00, 0x85, 0x51, 0x00, 0x10, 0x89, 0x30, 0x00, 0x10, 0x9A, 0x52, 0x22, 0x00, 0x9B,
 0x5E, 0x22, 0x08, 0x90, 0x48, 0x52, 0x00, 0x94, 0x48, 0x52, 0x08, 0x91, 0x54, 0x52, 0x00, 0x95,
 0x54, 0x52, 0x20, 0x9C, 0x54, 0x1D, 0x00, 0x9D, 0x60, 0x1D, 0x23, 0x8B, 0x5E, 0x00, 0x0D, 0x8A,
 0x52, 0x00, 0x00, 0x99, 0x3C, 0x3D, 0x00, 0x9A, 0x56, 0x23, 0x00, 0x9B, 0x62, 0x23, 0x30, 0x8C,
 0x54, 0x00, 0x00, 0x8A, 0x56, 0x00, 0x00, 0x9C, 0x57, 0x22, 0x00, 0x9A, 0x63, 0x22, 0x07, 0x8D,
 0x60, 0x00, 0x01, 0x80, 0x48, 0x00, 0x00, 0x84, 0x48, 0x00, 0x08, 0x81, 0x54, 0x00, 0x00, 0x85,
 0x54, 0x00, 0x14, 0x8B, 0x62, 0x00, 0x0C, 0x8F, 0x45, 0x00, 0x00, 0x90, 0x59, 0x3A, 0x00, 0x94,
 0x59, 0x3A, 0x00, 0x98, 0x35, 0x3C, 0x00, 0x9B, 0x59, 0x3E, 0x00, 0x9D, 0x65, 0x3E, 0x00, 0xFF,
 0x00, 0x02, 0x00, 0x57, 0x00, 0xFF, 0x00, 0x02, 0x00, 0x57, 0x00, 0x9F, 0x45, 0x59, 0x08, 0x91,
 0x4D, 0x3A, 0x00, 0x95, 0x4D, 0x3A, 0x09, 0x89, 0x3C, 0x00, 0x11, 0x8A, 0x63, 0x00, 0x07, 0x8C,
 0x57, 0x00, 0x50, 0x88, 0x35, 0x00, 0x47, 0x99, 0x41, 0x34, 0x81, 0x01, 0x8B, 0x59, 0x00, 0x04,
 0x8D, 0x65, 0x00, 0x3B, 0x89, 0x41, 0x00, 0x81, 0x40, 0x80, 0x59, 0x00, 0x00, 0x84, 0x59, 0x00,
 0x00, 0x8F, 0x45, 0x00, 0x00, 0x81, 0x4D, 0x00, 0x00, 0x85, 0x4D, 0x00, 0x00, 0xFF, 0x00, 0x02,
 0x00, 0x58, 0x00, 0xFF, 0x00, 0x02, 0x00, 0x58, 0x00, 0x9F, 0x45, 0x58, 0x84, 0x40, 0x8F, 0x45,
 0x00, 0x00, 0xFF, 0x00, 0x02, 0x00, 0x57, 0x00, 0xFF, 0x00, 0x02, 0x00, 0x57, 0x00, 0x9F, 0x45,
 0x57, 0x83, 0x00, 0x90, 0x3C, 0x33, 0x00, 0x91, 0x48, 0x33, 0x00, 0x94, 0x3C, 0x3D, 0x00, 0x95,
 0x48, 0x3D, 0x81, 0x23, 0x80, 0x3C, 0x00, 0x00, 0x81, 0x48, 0x00, 0x00, 0x84, 0x3C, 0x00, 0x00,
 0x85, 0x48, 0x00, 0x1D, 0x8F, 0x45, 0x00, 0x00, 0x90, 0x41, 0x34, 0x00, 0x91, 0x4D, 0x34, 0x00,
 0x94, 0x41, 0x3E, 0x00, 0x95, 0x4D, 0x3E, 0x00, 0x9A, 0x48, 0x33, 0x00, 0x9B, 0x51, 0x41, 0x00,
 0x9C, 0x59, 0x3E, 0x00, 0xFF, 0x00, 0x02, 0x00, 0x4A, 0x00, 0x9E, 0x35, 0x36, 0x00, 0xFF, 0x00,
 0x02, 0x00, 0x61, 0x00, 0xFF, 0x00, 0x02, 0x00, 0x61, 0x00, 0x9F, 0x45, 0x61, 0x81, 0x40, 0x80,
 0x41, 0x00, 0x00, 0x81, 0x4D, 0x00, 0x00, 0x84, 0x41, 0x00, 0x00, 0x85, 0x4D, 0x00, 0x00, 0x8E,
 0x35, 0x00, 0x3C, 0x8C, 0x59, 0x00, 0x0C, 0x8A, 0x48, 0x00, 0x09, 0x8B, 0x51, 0x00, 0x0F, 0x90,
 0x3C, 0x3E, 0x00, 0x91, 0x48, 0x3E, 0x00, 0x94, 0x3C, 0x48, 0x00, 0x95, 0x48, 0x48, 0x40, 0x80,
 0x3C, 0x00, 0x00, 0x81, 0x48, 0x00, 0x00, 0x84, 0x3C, 0x00, 0x00, 0x85, 0x48, 0x00, 0x20, 0x90,
 0x41, 0x43, 0x00, 0x91, 0x4D, 0x43, 0x00, 0x94, 0x41, 0x4D, 0x00, 0x95, 0x4D, 0x4D, 0x40, 0x80,
 0x41, 0x00, 0x00, 0x81, 0x4D, 0x00, 0x00, 0x84, 0x41, 0x00, 0x00, 0x85, 0x4D, 0x00, 0x81, 0x00,
 0x8F, 0x45, 0x00, 0x00, 0x90, 0x45, 0x37, 0x00, 0x91, 0x51, 0x37, 0x00, 0x94, 0x45, 0x41, 0x00,
 0x95, 0x51, 0x41, 0x00, 0x99, 0x35, 0x34, 0x00, 0x9A, 0x48, 0x24, 0x00, 0x9B, 0x54, 0x3B, 0x00,
 0x9E, 0x35, 0x36, 0x00, 0xFF, 0x00, 0x02, 0x00, 0x51, 0x00, 0xFF, 0x00, 0x02, 0x00, 0x52, 0x00,
 0x9F, 0x45, 0x52, 0x81, 0x40, 0x89, 0x35, 0x00, 0x60, 0x8E, 0x35, 0x00, 0x00, 0x99, 0x41, 0x35,
 0x00, 0x9E, 0x41, 0x36, 0x1A, 0x8B, 0x54, 0x00, 0x1D, 0x8A, 0x48, 0x00, 0x19, 0x8E, 0x41, 0x00,
 0x10, 0x98, 0x3C, 0x38, 0x00, 0x9E, 0x3C, 0x36, 0x0A, 0x89, 0x41, 0x00, 0x76, 0x88, 0x3C, 0x00,
 0x17, 0x80, 0x45, 0x00, 0x00, 0x81, 0x51, 0x00, 0x00, 0x84, 0x45, 0x00, 0x00, 0x85, 0x51, 0x00,
 0x29, 0x8F, 0x45, 0x00, 0x00, 0x8E, 0x3C, 0x00, 0x00, 0x90, 0x41, 0x35, 0x00, 0x91, 0x4D, 0x35,
 0x00, 0x94, 0x41, 0x3F, 0x00, 0x95, 0x4D, 0x3F, 0x00, 0x99, 0x3C, 0x40, 0x00, 0x9A, 0x54, 0x3E,
 0x00, 0x9B, 0x60, 0x3E, 0x00, 0x9E, 0x3C, 0x36, 0x00, 0xFF, 0x00, 0x02, 0x00, 0x49, 0x00, 0xFF,
 0x00, 0x02, 0x00, 0x50, 0x00, 0x9F, 0x45, 0x50, 0x81, 0x30, 0x89, 0x3C, 0x00, 0x70, 0x8E, 0x3C,
 0x00, 0x00, 0x99, 0x48, 0x3D, 0x00, 0x9E, 0x48, 0x36, 0x21, 0x8A, 0x54, 0x00, 0x04, 0x8B, 0x60,
 0x00, 0x3B, 0x8E, 0x48, 0x00, 0x00, 0x98, 0x41, 0x3C, 0x00, 0x9E, 0x41, 0x36, 0x11, 0x89, 0x48,
 0x00, 0x50, 0x80, 0x41, 0x00, 0x00, 0x81, 0x4D, 0x00, 0x00, 0x84, 0x41, 0x00, 0x00, 0x85, 0x4D,
 0x00, 0x18, 0x88, 0x41, 0x00, 0x47, 0x8F, 0x45, 0x00, 0x00, 0x8E, 0x41, 0x00, 0x00, 0x90, 0x45,
 0x40, 0x00, 0x91, 0x51, 0x40, 0x00, 0x94, 0x45, 0x4A, 0x00, 0x95, 0x51, 0x4A, 0x00, 0x9A, 0x41,
 0x33, 0x00, 0xFF, 0x00, 0x02, 0x00, 0x3C, 0x00, 0x9E, 0x35, 0x3C, 0x00, 0xFF, 0x00, 0x02, 0x00,
 0x61, 0x00, 0xFF, 0x00, 0x02, 0x00, 0x61, 0x00, 0x9F, 0x45, 0x61, 0x81, 0x40, 0x80, 0x45, 0x00,
 0x00, 0x81, 0x51, 0x00, 0x00, 0x84, 0x45, 0x00, 0x00, 0x85, 0x51, 0x00, 0x00, 0x8E, 0x35, 0x00,
 0x48, 0x8A, 0x41, 0x00, 0x18, 0x90, 0x41, 0x3A, 0x00, 0x91, 0x4D, 0x3A, 0x00, 0x94, 0x41, 0x44,
 0x00, 0x95, 0x4D, 0x44, 0x40, 0x80, 0x41, 0x00, 0x00, 0x81, 0x4D, 0x00, 0x00, 0x84, 0x41, 0x00,
 0x00, 0x85, 0x4D, 0x00, 0x20, 0x90, 0x45, 0x2E, 0x00, 0x91, 0x51, 0x2E, 0x00, 0x94, 0x45, 0x38,
 0x00, 0x95, 0x51, 0x38, 0x40, 0x80, 0x45, 0x00, 0x00, 0x81, 0x51, 0x00, 0x00, 0x84, 0x45, 0x00,
 0x00, 0x85, 0x51, 0x00, 0x81, 0x00, 0x8F, 0x45, 0x00, 0x00, 0x90, 0x48, 0x42, 0x00, 0x91, 0x54,
 0x42, 0x00, 0x94, 0x48, 0x4C, 0x00, 0x95, 0x54, 0x4C, 0x00, 0x99, 0x35, 0x38, 0x00, 0x9A, 0x48,
 0x24, 0x00, 0x9B, 0x54, 0x3B, 0x00, 0x9E, 0x35, 0x36, 0x00, 0xFF, 0x00, 0x02, 0x00, 0x53, 0x00,
 0xFF, 0x00, 0x02, 0x00, 0x53, 0x00, 0x9F, 0x45, 0x55, 0x81, 0x40, 0x89, 0x35, 0x00, 0x60, 0x8E,
 0x35, 0x00, 0x00, 0x99, 0x41, 0x35, 0x00, 0x9E, 0x41, 0x36, 0x1A, 0x8B, 0x54, 0x00, 0x1D, 0x8A,
 0x48, 0x00, 0x19, 0x8E, 0x41, 0x00, 0x0E, 0x89, 0x41, 0x00, 0x02, 0x99, 0x3C, 0x35, 0x00, 0x9E,
 0x3C, 0x36, 0x81, 0x00, 0x89, 0x3C, 0x00, 0x40, 0x80, 0x48, 0x00, 0x00, 0x81, 0x54, 0x00, 0x00,
 0x84, 0x48, 0x00, 0x00, 0x85, 0x54, 0x00, 0x00, 0x8F, 0x45, 0x00, 0x00, 0x8E, 0x3C, 0x00, 0x00,
 0x99, 0x3C, 0x3E, 0x00, 0x9A, 0x54, 0x3E, 0x00, 0x9B, 0x60, 0x3E, 0x00, 0x90, 0x45, 0x3C, 0x00,
 0x91, 0x51, 0x3C, 0x00, 0x94, 0x45, 0x46, 0x00, 0x95, 0x51, 0x46, 0x00, 0x9E, 0x3C, 0x36, 0x00,
 0xFF, 0x00, 0x02, 0x00, 0x51, 0x00, 0xFF, 0x00, 0x02, 0x00, 0x54, 0x00, 0x9F, 0x45, 0x58, 0x81,
 0x26, 0x89, 0x3C, 0x00, 0x7A, 0x8E, 0x3C, 0x00, 0x00, 0x99, 0x48, 0x3E, 0x00, 0x9E, 0x48, 0x36,
 0x21, 0x8A, 0x54, 0x00, 0x04, 0x8B, 0x60, 0x00, 0x3B, 0x8E, 0x48, 0x00, 0x00, 0x98, 0x41, 0x40,
 0x00, 0x9E, 0x41, 0x36, 0x08, 0x89, 0x48, 0x00, 0x6B, 0x88, 0x41, 0x00, 0x1C, 0x80, 0x45, 0x00,
 0x00, 0x81, 0x51, 0x00, 0x00, 0x84, 0x45, 0x00, 0x00, 0x85, 0x51, 0x00, 0x31, 0x8F, 0x45, 0x00,
 0x00, 0x8E, 0x41, 0x00, 0x00, 0x90, 0x48, 0x45, 0x00, 0x91, 0x54, 0x45, 0x00, 0x94, 0x48, 0x4F,
 0x00, 0x95, 0x54, 0x4F, 0x00, 0x9A, 0x40, 0x34, 0x00, 0xFF, 0x00, 0x02, 0x00, 0x3D, 0x00, 0x9E,
 0x34, 0x3D, 0x00, 0xFF, 0x00, 0x02, 0x00, 0x61, 0x00, 0xFF, 0x00, 0x02, 0x00, 0x61, 0x00, 0x9F,
 0x45, 0x61, 0x81, 0x40, 0x80, 0x48, 0x00, 0x00, 0x81, 0x54, 0x00, 0x00, 0x84, 0x48, 0x00, 0x00,
 0x85, 0x54, 0x00, 0x00, 0x8E, 0x34, 0x00, 0x3A, 0x8A, 0x40, 0x00, 0x26, 0x90, 0x45, 0x3B, 0x00,
 0x91, 0x51, 0x3B, 0x00, 0x94, 0x45, 0x45, 0x00, 0x95, 0x51, 0x45, 0x40, 0x80, 0x45, 0x00, 0x00,
 0x81, 0x51, 0x00, 0x00, 0x84, 0x45, 0x00, 0x00, 0x85, 0x51, 0x00, 0x20, 0x90, 0x48, 0x3B, 0x00,
 0x91, 0x54, 0x3B, 0x00, 0x94, 0x48, 0x45, 0x00, 0x95, 0x54, 0x45, 0x40, 0x80, 0x48, 0x00, 0x00,
 0x81, 0x54, 0x00, 0x00, 0x84, 0x48, 0x00, 0x00, 0x85, 0x54, 0x00, 0x81, 0x00, 0x8F, 0x45, 0x00,
 0x00, 0x90, 0x4C, 0x47, 0x00, 0x91, 0x58, 0x47, 0x00, 0x94, 0x4C, 0x51, 0x00, 0x95, 0x58, 0x51,
 0x00, 0x99, 0x34, 0x33, 0x00, 0x9A, 0x4C, 0x2B, 0x00, 0x9E, 0x34, 0x22, 0x00, 0xFF, 0x00, 0x02,
 0x00, 0x52, 0x00, 0xFF, 0x00, 0x02, 0x00, 0x4D, 0x00, 0x9F, 0x45, 0x4C, 0x81, 0x40, 0x89, 0x34,
 0x00, 0x60, 0x8E, 0x34, 0x00, 0x00, 0x99, 0x45, 0x35, 0x00, 0x9E, 0x45, 0x22, 0x02, 0x8A, 0x4C,
 0x00, 0x40, 0x8E, 0x45, 0x00, 0x1E, 0x98, 0x40, 0x2F, 0x00, 0x9E, 0x40, 0x22, 0x10, 0x89, 0x45,
 0x00, 0x70, 0x88, 0x40, 0x00, 0x2D, 0x80, 0x4C, 0x00, 0x00, 0x81, 0x58, 0x00, 0x00, 0x84, 0x4C,
 0x00, 0x00, 0x85, 0x58, 0x00, 0x02, 0x8E, 0x40, 0x00, 0x11, 0x8F, 0x45, 0x00, 0x00, 0x90, 0x40,
 0x50, 0x00, 0x91, 0x4C, 0x50, 0x00, 0x94, 0x40, 0x57, 0x00, 0x95, 0x4C, 0x57, 0x00, 0x99, 0x40,
 0x3B, 0x00, 0x9A, 0x4C, 0x27, 0x00, 0x9B, 0x58, 0x2D, 0x00, 0x9E, 0x40, 0x22, 0x00, 0xFF, 0x00,
 0x02, 0x00, 0x53, 0x00, 0xFF, 0x00, 0x02, 0x00, 0x5A, 0x00, 0x9F, 0x44, 0x57, 0x81, 0x40, 0x89,
 0x40, 0x00, 0x24, 0x8B, 0x58, 0x00, 0x34, 0x8A, 0x4C, 0x00, 0x08, 0x8E, 0x40, 0x00, 0x00, 0x9E,
 0x4C, 0x22, 0x42, 0x8E, 0x4C, 0x00, 0x1E, 0x9E, 0x47, 0x22, 0x78, 0x80, 0x40, 0x00, 0x00, 0x81,
 0x4C, 0x00, 0x00, 0x84, 0x40, 0x00, 0x00, 0x85, 0x4C, 0x00, 0x37, 0x8E, 0x47, 0x00, 0x11, 0x8F,
 0x44, 0x00, 0x00, 0x90, 0x45, 0x48, 0x00, 0x91, 0x51, 0x48, 0x00, 0x94, 0x45, 0x52, 0x00, 0x95,
 0x51, 0x52, 0x00, 0x9A, 0x45, 0x33, 0x00, 0xFF, 0x00, 0x02, 0x00, 0x33, 0x00, 0x9E, 0x39, 0x33,
 0x00, 0xFF, 0x00, 0x02, 0x00, 0x61, 0x00, 0xFF, 0x00, 0x02, 0x00, 0x61, 0x00, 0x9F, 0x45, 0x61,
 0x81, 0x40, 0x80, 0x45, 0x00, 0x00, 0x81, 0x51, 0x00, 0x00, 0x84, 0x45, 0x00, 0x00, 0x85, 0x51,
 0x00, 0x00, 0x8E, 0x39, 0x00, 0x48, 0x8A, 0x45, 0x00, 0x18, 0x90, 0x40, 0x3B, 0x00, 0x91, 0x4C,
 0x3B, 0x00, 0x94, 0x40, 0x45, 0x00, 0x95, 0x4C, 0x45, 0x40, 0x80, 0x40, 0x00, 0x00, 0x81, 0x4C,
 0x00, 0x00, 0x84, 0x40, 0x00, 0x00, 0x85, 0x4C, 0x00, 0x20, 0x90, 0x45, 0x40, 0x00, 0x91, 0x51,
 0x40, 0x00, 0x94, 0x45, 0x4A, 0x00, 0x95, 0x51, 0x4A, 0x40, 0x80, 0x45, 0x00, 0x00, 0x81, 0x51,
 0x00, 0x00, 0x84, 0x45, 0x00, 0x00, 0x85, 0x51, 0x00, 0x81, 0x00, 0x8F, 0x45, 0x00, 0x00, 0x90,
 0x48, 0x46, 0x00, 0x91, 0x54, 0x46, 0x00, 0x94, 0x48, 0x50, 0x00, 0x95, 0x54, 0x50, 0x00, 0x99,
 0x39, 0x37, 0x00, 0x9A, 0x4C, 0x24, 0x00, 0x9B, 0x58, 0x3B, 0x00, 0x9E, 0x39, 0x22, 0x00, 0xFF,
 0x00, 0x02, 0x00, 0x4D, 0x00, 0xFF, 0x00, 0x02, 0x00, 0x53, 0x00, 0x9F, 0x45, 0x4D, 0x81, 0x40,
 0x89, 0x39, 0x00, 0x60, 0x8E, 0x39, 0x00, 0x00, 0x99, 0x45, 0x3B, 0x00, 0x9E, 0x45, 0x22, 0x1A,
 0x8B, 0x58, 0x00, 0x1D, 0x8A, 0x4C, 0x00, 0x0B, 0x8E, 0x45, 0x00, 0x1E, 0x98, 0x40, 0x1E, 0x00,
 0x9E, 0x40, 0x22, 0x11, 0x89, 0x45, 0x00, 0x78, 0x88, 0x40, 0x00, 0x26, 0x8E, 0x40, 0x00, 0x11,
 0x8F, 0x45, 0x00, 0x00, 0x99, 0x40, 0x4A, 0x00, 0x9A, 0x58, 0x3E, 0x00, 0x9B, 0x64, 0x3E, 0x00,
 0x9E, 0x40, 0x22, 0x00, 0xFF, 0x00, 0x02, 0x00, 0x4D, 0x00, 0xFF, 0x00, 0x02, 0x00, 0x4D, 0x00,
 0x9F, 0x45, 0x4F, 0x24, 0x80, 0x48, 0x00, 0x00, 0x81, 0x54, 0x00, 0x00, 0x84, 0x48, 0x00, 0x00,
 0x85, 0x54, 0x00, 0x81, 0x1C, 0x89, 0x40, 0x00, 0x60, 0x8E, 0x40, 0x00, 0x00, 0x9E, 0x4C, 0x22,
 0x21, 0x8A, 0x58, 0x00, 0x04, 0x8B, 0x64, 0x00, 0x1D, 0x8E, 0x4C, 0x00, 0x1E, 0x90, 0x40, 0x30,
 0x00, 0x91, 0x4C, 0x30, 0x00, 0x94, 0x40, 0x3A, 0x00, 0x95, 0x4C, 0x3A, 0x00, 0x9E, 0x45, 0x22,
 0x81, 0x2F, 0x8E, 0x45, 0x00, 0x11, 0x8F, 0x45, 0x00, 0x00, 0x92, 0x45, 0x57, 0x00, 0x93, 0x51,
 0x57, 0x00, 0x96, 0x45, 0x57, 0x00, 0x97, 0x51, 0x57, 0x00, 0x9A, 0x45, 0x33, 0x00, 0xFF, 0x00,
 0x02, 0x00, 0x33, 0x00, 0x9E, 0x39, 0x33, 0x00, 0xFF, 0x00, 0x02, 0x00, 0x61, 0x00, 0xFF, 0x00,
 0x02, 0x00, 0x61, 0x00, 0x9F, 0x45, 0x61, 0x0D, 0x80, 0x40, 0x00, 0x00, 0x81, 0x4C, 0x00, 0x00,
 0x84, 0x40, 0x00, 0x00, 0x85, 0x4C, 0x00, 0x81, 0x33, 0x82, 0x45, 0x00, 0x00, 0x83, 0x51, 0x00,
 0x00, 0x86, 0x45, 0x00, 0x00, 0x87, 0x51, 0x00, 0x00, 0x8E, 0x39, 0x00, 0x48, 0x8A, 0x45, 0x00,
 0x18, 0x90, 0x40, 0x41, 0x00, 0x91, 0x4C, 0x41, 0x00, 0x94, 0x40, 0x4B, 0x00, 0x95, 0x4C, 0x4B,
 0x40, 0x80, 0x40, 0x00, 0x00, 0x81, 0x4C, 0x00, 0x00, 0x84, 0x40, 0x00, 0x00, 0x85, 0x4C, 0x00,
 0x20, 0x90, 0x45, 0x43, 0x00, 0x91, 0x51, 0x43, 0x00, 0x94, 0x45, 0x4D, 0x00, 0x95, 0x51, 0x4D,
 0x40, 0x80, 0x45, 0x00, 0x00, 0x81, 0x51, 0x00, 0x00, 0x84, 0x45, 0x00, 0x00, 0x85, 0x51, 0x00,
 0x81, 0x00, 0x8F, 0x45, 0x00, 0x00, 0x90, 0x48, 0x4C, 0x00, 0x91, 0x54, 0x4C, 0x00, 0x94, 0x48,
 0x56, 0x00, 0x95, 0x54, 0x56, 0x00, 0x99, 0x39, 0x37, 0x00, 0x9A, 0x4C, 0x24, 0x00, 0x9B, 0x58,
 0x3B, 0x00, 0x9E, 0x39, 0x22, 0x00, 0xFF, 0x00, 0x02, 0x00, 0x4C, 0x00, 0xFF, 0x00, 0x02, 0x00,
 0x44, 0x00, 0x9F, 0x45, 0x4F, 0x81, 0x41, 0x89, 0x39, 0x00, 0x5F, 0x8E, 0x39, 0x00, 0x00, 0x99,
 0x45, 0x34, 0x00, 0x9E, 0x45, 0x22, 0x1A, 0x8B, 0x58, 0x00, 0x1D, 0x8A, 0x4C, 0x00, 0x0B, 0x8E,
 0x45, 0x00, 0x1E, 0x98, 0x40, 0x31, 0x00, 0x9E, 0x40, 0x22, 0x0D, 0x89, 0x45, 0x00, 0x81, 0x01,
 0x88, 0x40, 0x00, 0x21, 0x8E, 0x40, 0x00, 0x04, 0x80, 0x48, 0x00, 0x00, 0x81, 0x54, 0x00, 0x00,
 0x84, 0x48, 0x00, 0x00, 0x85, 0x54, 0x00, 0x0D, 0x8F, 0x45, 0x00, 0x00, 0x90, 0x45, 0x48, 0x00,
 0x91, 0x51, 0x48, 0x00, 0x94, 0x45, 0x52, 0x00, 0x95, 0x51, 0x52, 0x00, 0x99, 0x40, 0x34, 0x00,
 0x9A, 0x58, 0x3E, 0x00, 0x9B, 0x64, 0x3E, 0x00, 0x9E, 0x40, 0x22, 0x00, 0xFF, 0x00, 0x02, 0x00,
 0x52, 0x00, 0xFF, 0x00, 0x02, 0x00, 0x51, 0x00, 0x9F, 0x45, 0x50, 0x81, 0x75, 0x89, 0x40, 0x00,
 0x2B, 0x8E, 0x40, 0x00, 0x00, 0x99, 0x4C, 0x40, 0x00, 0x9E, 0x4C, 0x22, 0x21, 0x8A, 0x58, 0x00,
 0x04, 0x8B, 0x64, 0x00, 0x1D, 0x8E, 0x4C, 0x00, 0x1E, 0x98, 0x45, 0x34, 0x00, 0x9E, 0x45, 0x22,
 0x0D, 0x89, 0x4C, 0x00, 0x78, 0x88, 0x45, 0x00, 0x2A, 0x8E, 0x45, 0x00, 0x11, 0x8F, 0x45, 0x00,
 0x00, 0x92, 0x48, 0x46, 0x00, 0x93, 0x54, 0x46, 0x00, 0x96, 0x48, 0x50, 0x00, 0x97, 0x54, 0x50,
 0x00, 0x9A, 0x45, 0x33, 0x00, 0xFF, 0x00, 0x02, 0x00, 0x33, 0x00, 0x9E, 0x39, 0x33, 0x00, 0xFF,
 0x00, 0x02, 0x00, 0x61, 0x00, 0xFF, 0x00, 0x02, 0x00, 0x61, 0x00, 0x9F, 0x45, 0x61, 0x03, 0x80,
 0x45, 0x00, 0x00, 0x81, 0x51, 0x00, 0x00, 0x84, 0x45, 0x00, 0x00, 0x85, 0x51, 0x00, 0x81, 0x3D,
 0x82, 0x48, 0x00, 0x00, 0x83, 0x54, 0x00, 0x00, 0x86, 0x48, 0x00, 0x00, 0x87, 0x54, 0x00, 0x00,
 0x8E, 0x39, 0x00, 0x48, 0x8A, 0x45, 0x00, 0x18, 0x90, 0x45, 0x41, 0x00, 0x91, 0x51, 0x41, 0x00,
 0x94, 0x45, 0x4B, 0x00, 0x95, 0x51, 0x4B, 0x40, 0x80, 0x45, 0x00, 0x00, 0x81, 0x51, 0x00, 0x00,
 0x84, 0x45, 0x00, 0x00, 0x85, 0x51, 0x00, 0x20, 0x90, 0x48, 0x3D, 0x00, 0x91, 0x54, 0x3D, 0x00,
 0x94, 0x48, 0x47, 0x00, 0x95, 0x54, 0x47, 0x40, 0x80, 0x48, 0x00, 0x00, 0x81, 0x54, 0x00, 0x00,
 0x84, 0x48, 0x00, 0x00, 0x85, 0x54, 0x00, 0x81, 0x00, 0x8F, 0x45, 0x00, 0x00, 0x90, 0x4C, 0x47,
 0x00, 0x91, 0x58, 0x47, 0x00, 0x94, 0x4C, 0x51, 0x00, 0x95, 0x58, 0x51, 0x00, 0x99, 0x39, 0x3C,
 0x00, 0x9A, 0x4C, 0x24, 0x00, 0x9B, 0x58, 0x3B, 0x00, 0x9E, 0x39, 0x22, 0x00, 0xFF, 0x00, 0x02,
 0x00, 0x4D, 0x00, 0xFF, 0x00, 0x02, 0x00, 0x4F, 0x00, 0x9F, 0x45, 0x50, 0x81, 0x3B, 0x89, 0x39,
 0x00, 0x65, 0x8E, 0x39, 0x00, 0x00, 0x99, 0x45, 0x37, 0x00, 0x9E, 0x45, 0x22, 0x1A, 0x8B, 0x58,
 0x00, 0x1D, 0x8A, 0x4C, 0x00, 0x0B, 0x8E, 0x45, 0x00, 0x1E, 0x98, 0x40, 0x31, 0x00, 0x9E, 0x40,
 0x22, 0x0E, 0x89, 0x45, 0x00, 0x81, 0x02, 0x88, 0x40, 0x00, 0x1F, 0x8E, 0x40, 0x00, 0x11, 0x8F,
 0x45, 0x00, 0x00, 0x92, 0x48, 0x4D, 0x00, 0x93, 0x54, 0x4D, 0x00, 0x96, 0x48, 0x57, 0x00, 0x97,
 0x54, 0x57, 0x00, 0x99, 0x40, 0x39, 0x00, 0x9A, 0x58, 0x3E, 0x00, 0x9B, 0x64, 0x3E, 0x00, 0x9E,
 0x40, 0x22, 0x00, 0xFF, 0x00, 0x02, 0x00, 0x52, 0x00, 0xFF, 0x00, 0x02, 0x00, 0x51, 0x00, 0x9F,
 0x45, 0x54, 0x1E, 0x80, 0x4C, 0x00, 0x00, 0x81, 0x58, 0x00, 0x00, 0x84, 0x4C, 0x00, 0x00, 0x85,
 0x58, 0x00, 0x81, 0x33, 0x89, 0x40, 0x00, 0x4F, 0x8E, 0x40, 0x00, 0x00, 0x99, 0x4C, 0x3D, 0x00,
 0x9E, 0x4C, 0x22, 0x21, 0x8A, 0x58, 0x00, 0x04, 0x8B, 0x64, 0x00, 0x1D, 0x8E, 0x4C, 0x00, 0x1E,
 0x98, 0x45, 0x30, 0x00, 0x9E, 0x45, 0x22, 0x0E, 0x89, 0x4C, 0x00, 0x79, 0x88, 0x45, 0x00, 0x18,
 0x82, 0x48, 0x00, 0x00, 0x83, 0x54, 0x00, 0x00, 0x86, 0x48, 0x00, 0x00, 0x87, 0x54, 0x00, 0x10,
 0x8E, 0x45, 0x00, 0x11, 0x8F, 0x45, 0x00, 0x00, 0x90, 0x4C, 0x4F, 0x00, 0x91, 0x58, 0x4F, 0x00,
 0x94, 0x4C, 0x57, 0x00, 0x95, 0x58, 0x57, 0x00, 0x9A, 0x43, 0x34, 0x00, 0xFF, 0x00, 0x02, 0x00,
 0x3C, 0x00, 0x9E, 0x37, 0x3C, 0x00, 0xFF, 0x00, 0x02, 0x00, 0x61, 0x00, 0xFF, 0x00, 0x02, 0x00,
 0x61, 0x00, 0x9F, 0x43, 0x61, 0x81, 0x40, 0x80, 0x4C, 0x00, 0x00, 0x81, 0x58, 0x00, 0x00, 0x84,
 0x4C, 0x00, 0x00, 0x85, 0x58, 0x00, 0x00, 0x8E, 0x37, 0x00, 0x3A, 0x8A, 0x43, 0x00, 0x26, 0x90,
 0x48, 0x3D, 0x00, 0x91, 0x54, 0x3D, 0x00, 0x94, 0x48, 0x47, 0x00, 0x95, 0x54, 0x47, 0x40, 0x80,
 0x48, 0x00, 0x00, 0x81, 0x54, 0x00, 0x00, 0x84, 0x48, 0x00, 0x00, 0x85, 0x54, 0x00, 0x20, 0x90,
 0x4C, 0x3D, 0x00, 0x91, 0x58, 0x3D, 0x00, 0x94, 0x4C, 0x47, 0x00, 0x95, 0x58, 0x47, 0x40, 0x80,
 0x4C, 0x00, 0x00, 0x81, 0x58, 0x00, 0x00, 0x84, 0x4C, 0x00, 0x00, 0x85, 0x58, 0x00, 0x81, 0x00,
 0x8F, 0x43, 0x00, 0x00, 0x90, 0x4F, 0x47, 0x00, 0x91, 0x5B, 0x47, 0x00, 0x94, 0x4F, 0x51, 0x00,
 0x95, 0x5B, 0x51, 0x00, 0x99, 0x37, 0x39, 0x00, 0x9A, 0x4F, 0x2B, 0x00, 0x9E, 0x37, 0x22, 0x00,
 0xFF, 0x00, 0x02, 0x00, 0x49, 0x00, 0xFF, 0x00, 0x02, 0x00, 0x4D, 0x00, 0x9F, 0x43, 0x47, 0x81,
 0x3F, 0x89, 0x37, 0x00, 0x61, 0x8E, 0x37, 0x00, 0x00, 0x99, 0x43, 0x32, 0x00, 0x9E, 0x43, 0x22,
 0x02, 0x8A, 0x4F, 0x00, 0x40, 0x8E, 0x43, 0x00, 0x1E, 0x98, 0x3C, 0x35, 0x00, 0x9E, 0x3C, 0x22,
 0x05, 0x89, 0x43, 0x00, 0x79, 0x88, 0x3C, 0x00, 0x31, 0x8E, 0x3C, 0x00, 0x11, 0x80, 0x4F, 0x00,
 0x00, 0x84, 0x4F, 0x00, 0x00, 0x8F, 0x43, 0x00, 0x00, 0x90, 0x43, 0x4E, 0x00, 0x92, 0x4F, 0x4E,
 0x00, 0x94, 0x43, 0x57, 0x00, 0x96, 0x4F, 0x57, 0x00, 0x99, 0x43, 0x39, 0x00, 0x9A, 0x4F, 0x27,
 0x00, 0x9B, 0x5B, 0x2D, 0x00, 0x9E, 0x43, 0x26, 0x00, 0xFF, 0x00, 0x02, 0x00, 0x53, 0x00, 0xFF,
 0x00, 0x02, 0x00, 0x59, 0x00, 0x9F, 0x43, 0x51, 0x07, 0x81, 0x5B, 0x00, 0x00, 0x85, 0x5B, 0x00,
 0x00, 0x82, 0x4F, 0x00, 0x00, 0x86, 0x4F, 0x00, 0x81, 0x0C, 0x89, 0x43, 0x00, 0x51, 0x8B, 0x5B,
 0x00, 0x34, 0x8A, 0x4F, 0x00, 0x08, 0x8E, 0x43, 0x00, 0x00, 0x99, 0x4A, 0x3B, 0x00, 0x9E, 0x4A,
 0x22, 0x42, 0x8E, 0x4A, 0x00, 0x1E, 0x98, 0x43, 0x30, 0x00, 0x9E, 0x43, 0x22, 0x12, 0x89, 0x4A,
 0x00, 0x61, 0x88, 0x43, 0x00, 0x25, 0x80, 0x43, 0x00, 0x00, 0x84, 0x43, 0x00, 0x17, 0x8E, 0x43,
 0x00, 0x11, 0x8F, 0x43, 0x00, 0x00, 0x90, 0x48, 0x4C, 0x00, 0x91, 0x54, 0x4C, 0x00, 0x94, 0x48,
 0x56, 0x00, 0x95, 0x54, 0x56, 0x00, 0x9A, 0x48, 0x33, 0x00, 0xFF, 0x00, 0x02, 0x00, 0x3F, 0x00,
 0x9E, 0x35, 0x3F, 0x00, 0xFF, 0x00, 0x02, 0x00, 0x61, 0x00, 0xFF, 0x00, 0x02, 0x00, 0x61, 0x00,
 0x9F, 0x43, 0x61, 0x81, 0x40, 0x80, 0x48, 0x00, 0x00, 0x81, 0x54, 0x00, 0x00, 0x84, 0x48, 0x00,
 0x00, 0x85, 0x54, 0x00, 0x48, 0x8A, 0x48, 0x00, 0x18, 0x90, 0x43, 0x49, 0x00, 0x91, 0x4F, 0x49,
 0x00, 0x94, 0x43, 0x53, 0x00, 0x95, 0x4F, 0x53, 0x0D, 0x8E, 0x35, 0x00, 0x33, 0x80, 0x43, 0x00,
 0x00, 0x81, 0x4F, 0x00, 0x00, 0x84, 0x43, 0x00, 0x00, 0x85, 0x4F, 0x00, 0x20, 0x90, 0x48, 0x40,
 0x00, 0x91, 0x54, 0x40, 0x00, 0x94, 0x48, 0x4A, 0x00, 0x95, 0x54, 0x4A, 0x40, 0x80, 0x48, 0x00,
 0x00, 0x81, 0x54, 0x00, 0x00, 0x84, 0x48, 0x00, 0x00, 0x85, 0x54, 0x00, 0x81, 0x00, 0x8F, 0x43,
 0x00, 0x00, 0x90, 0x4C, 0x40, 0x00, 0x91, 0x58, 0x40, 0x00, 0x94, 0x4C, 0x4A, 0x00, 0x95, 0x58,
 0x4A, 0x00, 0x99, 0x37, 0x3D, 0x00, 0x9A, 0x54, 0x24, 0x00, 0x9E, 0x30, 0x22, 0x00, 0xFF, 0x00,
 0x02, 0x00, 0x4C, 0x00, 0xFF, 0x00, 0x02, 0x00, 0x54, 0x00, 0x9F, 0x43, 0x4F, 0x81, 0x0E, 0x89,
 0x37, 0x00, 0x81, 0x12, 0x8E, 0x30, 0x00, 0x00, 0x99, 0x43, 0x31, 0x00, 0x9E, 0x41, 0x22, 0x37,
 0x8A, 0x54, 0x00, 0x0B, 0x8E, 0x41, 0x00, 0x1E, 0x98, 0x3C, 0x3A, 0x00, 0x9A, 0x59, 0x22, 0x00,
 0x9B, 0x65, 0x22, 0x00, 0x9E, 0x3C, 0x22, 0x08, 0x89, 0x43, 0x00, 0x28, 0x9C, 0x5B, 0x1D, 0x00,
 0x9D, 0x67, 0x1D, 0x23, 0x8B, 0x65, 0x00, 0x0D, 0x8A, 0x59, 0x00, 0x00, 0x9A, 0x5D, 0x23, 0x00,
 0x9B, 0x69, 0x23, 0x0D, 0x88, 0x3C, 0x00, 0x23, 0x8C, 0x5B, 0x00, 0x00, 0x8A, 0x5D, 0x00, 0x00,
 0x9C, 0x5E, 0x22, 0x00, 0x9A, 0x6A, 0x22, 0x07, 0x8D, 0x67, 0x00, 0x18, 0x8E, 0x3C, 0x00, 0x05,
 0x8B, 0x69, 0x00, 0x0C, 0x80, 0x4C, 0x00, 0x00, 0x81, 0x58, 0x00, 0x00, 0x84, 0x4C, 0x00, 0x00,
 0x85, 0x58, 0x00, 0x00, 0x8F, 0x43, 0x00, 0x00, 0x99, 0x3C, 0x3E, 0x00, 0x9B, 0x60, 0x3E, 0x00,
 0x9D, 0x6C, 0x3E, 0x00, 0x9E, 0x3C, 0x26, 0x00, 0xFF, 0x00, 0x02, 0x00, 0x55, 0x00, 0xFF, 0x00,
 0x02, 0x00, 0x50, 0x00, 0x9F, 0x43, 0x53, 0x22, 0x8A, 0x6A, 0x00, 0x07, 0x8C, 0x5E, 0x00, 0x81,
 0x07, 0x89, 0x3C, 0x00, 0x7D, 0x8E, 0x3C, 0x00, 0x14, 0x8B, 0x60, 0x00, 0x04, 0x8D, 0x6C, 0x00,
 0x43, 0x90, 0x48, 0x45, 0x00, 0x91, 0x3C, 0x45, 0x00, 0x94, 0x48, 0x45, 0x00, 0x95, 0x3C, 0x45,
 0x81, 0x00, 0x80, 0x48, 0x00, 0x00, 0x81, 0x3C, 0x00, 0x00, 0x84, 0x48, 0x00, 0x00, 0x85, 0x3C,
 0x00, 0x38, 0x8F, 0x43, 0x00, 0x00, 0x9A, 0x3A, 0x33, 0x00, 0xFF, 0x00, 0x02, 0x00, 0x4A, 0x00,
 0x9E, 0x2E, 0x36, 0x00, 0xFF, 0x00, 0x02, 0x00, 0x4B, 0x00, 0xFF, 0x00, 0x02, 0x00, 0x4D, 0x00,
 0x9F, 0x41, 0x57, 0x08, 0x90, 0x3E, 0x43, 0x00, 0x91, 0x4A, 0x41, 0x00, 0x94, 0x3E, 0x43, 0x00,
 0x95, 0x4A, 0x41, 0x81, 0x08, 0x80, 0x3E, 0x00, 0x00, 0x84, 0x3E, 0x00, 0x08, 0x81, 0x4A, 0x00,
 0x00, 0x85, 0x4A, 0x00, 0x28, 0x8E, 0x2E, 0x00, 0x48, 0x8A, 0x3A, 0x00, 0x30, 0x90, 0x3A, 0x45,
 0x00, 0x94, 0x3A, 0x45, 0x08, 0x91, 0x46, 0x48, 0x00, 0x95, 0x46, 0x48, 0x28, 0x81, 0x46, 0x00,
 0x00, 0x85, 0x46, 0x00, 0x08, 0x80, 0x3A, 0x00, 0x00, 0x84, 0x3A, 0x00, 0x20, 0x90, 0x3E, 0x49,
 0x00, 0x91, 0x4A, 0x4D, 0x00, 0x94, 0x3E, 0x49, 0x00, 0x95, 0x4A, 0x4D, 0x81, 0x08, 0x80, 0x3E,
 0x00, 0x00, 0x84, 0x3E, 0x00, 0x08, 0x81, 0x4A, 0x00, 0x00, 0x85, 0x4A, 0x00, 0x20, 0x8F, 0x41,
 0x00, 0x00, 0x99, 0x29, 0x34, 0x00, 0x9A, 0x41, 0x24, 0x00, 0x9B, 0x4D, 0x3B, 0x00, 0x9E, 0x35,
 0x36, 0x00, 0xFF, 0x00, 0x02, 0x00, 0x42, 0x00, 0xFF, 0x00, 0x02, 0x00, 0x48, 0x00, 0x9F, 0x41,
 0x47, 0x08, 0x90, 0x41, 0x53, 0x00, 0x91, 0x4D, 0x52, 0x00, 0x94, 0x41, 0x53, 0x00, 0x95, 0x4D,
 0x52, 0x81, 0x38, 0x89, 0x29, 0x00, 0x60, 0x8E, 0x35, 0x00, 0x00, 0x99, 0x35, 0x35, 0x00, 0x9E,
 0x41, 0x36, 0x1A, 0x8B, 0x4D, 0x00, 0x1D, 0x8A, 0x41, 0x00, 0x19, 0x8E, 0x41, 0x00, 0x10, 0x98,
 0x30, 0x38, 0x00, 0x9E, 0x3C, 0x36, 0x0A, 0x89, 0x35, 0x00, 0x76, 0x88, 0x30, 0x00, 0x40, 0x8F,
 0x41, 0x00, 0x00, 0x8E, 0x3C, 0x00, 0x00, 0x99, 0x30, 0x40, 0x00, 0x9A, 0x4D, 0x3E, 0x00, 0x9B,
 0x59, 0x3E, 0x00, 0x9E, 0x3C, 0x36, 0x00, 0xFF, 0x00, 0x02, 0x00, 0x59, 0x00, 0xFF, 0x00, 0x02,
 0x00, 0x4E, 0x00, 0x9F, 0x41, 0x48, 0x81, 0x30, 0x80, 0x41, 0x00, 0x00, 0x84, 0x41, 0x00, 0x00,
 0x89, 0x30, 0x00, 0x08, 0x81, 0x4D, 0x00, 0x00, 0x85, 0x4D, 0x00, 0x68, 0x8E, 0x3C, 0x00, 0x00,
 0x99, 0x3C, 0x3D, 0x00, 0x9E, 0x3C, 0x36, 0x21, 0x8A, 0x4D, 0x00, 0x04, 0x8B, 0x59, 0x00, 0x3B,
 0x8E, 0x3C, 0x00, 0x00, 0x98, 0x35, 0x3C, 0x00, 0x9E, 0x35, 0x36, 0x10, 0x90, 0x3C, 0x41, 0x00,
 0x91, 0x48, 0x43, 0x00, 0x94, 0x3C, 0x41, 0x00, 0x95, 0x48, 0x43, 0x01, 0x89, 0x3C, 0x00, 0x68,
 0x88, 0x35, 0x00, 0x1F, 0x81, 0x48, 0x00, 0x00, 0x85, 0x48, 0x00, 0x08, 0x80, 0x3C, 0x00, 0x00,
 0x84, 0x3C, 0x00, 0x20, 0x8F, 0x41, 0x00, 0x00, 0x8E, 0x35, 0x00, 0x00, 0x9A, 0x3A, 0x33, 0x00,
 0xFF, 0x00, 0x02, 0x00, 0x4A, 0x00, 0x9E, 0x2E, 0x36, 0x00, 0xFF, 0x00, 0x02, 0x00, 0x59, 0x00,
 0xFF, 0x00, 0x02, 0x00, 0x61, 0x00, 0x9F, 0x41, 0x57, 0x08, 0x90, 0x3E, 0x42, 0x00, 0x91, 0x4A,
 0x3F, 0x00, 0x94, 0x3E, 0x42, 0x00, 0x95, 0x4A, 0x3F, 0x78, 0x80, 0x3E, 0x00, 0x00, 0x84, 0x3E,
 0x00, 0x08, 0x81, 0x4A, 0x00, 0x00, 0x85, 0x4A, 0x00, 0x38, 0x8E, 0x2E, 0x00, 0x48, 0x8A, 0x3A,
 0x00, 0x30, 0x90, 0x3A, 0x45, 0x00, 0x91, 0x46, 0x44, 0x00, 0x94, 0x3A, 0x45, 0x00, 0x95, 0x46,
 0x44, 0x28, 0x81, 0x46, 0x00, 0x00, 0x85, 0x46, 0x00, 0x08, 0x80, 0x3A, 0x00, 0x00, 0x84, 0x3A,
 0x00, 0x28, 0x90, 0x3E, 0x4A, 0x00, 0x91, 0x4A, 0x49, 0x00, 0x94, 0x3E, 0x4A, 0x00, 0x95, 0x4A,
 0x49, 0x81, 0x00, 0x81, 0x4A, 0x00, 0x00, 0x85, 0x4A, 0x00, 0x10, 0x80, 0x3E, 0x00, 0x00, 0x84,
 0x3E, 0x00, 0x20, 0x8F, 0x41, 0x00, 0x00, 0x99, 0x29, 0x34, 0x00, 0x9A, 0x41, 0x24, 0x00, 0x9B,
 0x4D, 0x3B, 0x00, 0x9E, 0x35, 0x36, 0x00, 0xFF, 0x00, 0x02, 0x00, 0x50, 0x00, 0xFF, 0x00, 0x02,
 0x00, 0x45, 0x00, 0x9F, 0x41, 0x4E, 0x08, 0x90, 0x41, 0x56, 0x00, 0x91, 0x4D, 0x57, 0x00, 0x94,
 0x41, 0x56, 0x00, 0x95, 0x4D, 0x57, 0x81, 0x38, 0x89, 0x29, 0x00, 0x60, 0x8E, 0x35, 0x00, 0x00,
 0x99, 0x35, 0x35, 0x00, 0x9E, 0x41, 0x36, 0x1A, 0x8B, 0x4D, 0x00, 0x1D, 0x8A, 0x41, 0x00, 0x19,
 0x8E, 0x41, 0x00, 0x10, 0x98, 0x30, 0x38, 0x00, 0x9E, 0x3C, 0x36, 0x0A, 0x89, 0x35, 0x00, 0x76,
 0x88, 0x30, 0x00, 0x40, 0x8F, 0x41, 0x00, 0x00, 0x8E, 0x3C, 0x00, 0x00, 0x99, 0x30, 0x40, 0x00,
 0x9A, 0x4D, 0x3E, 0x00, 0x9B, 0x59, 0x3E, 0x00, 0x9E, 0x3C, 0x36, 0x00, 0xFF, 0x00, 0x02, 0x00,
 0x44, 0x00, 0xFF, 0x00, 0x02, 0x00, 0x4E, 0x00, 0x9F, 0x41, 0x3F, 0x81, 0x20, 0x81, 0x4D, 0x00,
 0x00, 0x85, 0x4D, 0x00, 0x10, 0x89, 0x30, 0x00, 0x08, 0x80, 0x41, 0x00, 0x00, 0x84, 0x41, 0x00,
 0x68, 0x8E, 0x3C, 0x00, 0x00, 0x99, 0x3C, 0x3D, 0x00, 0x9E, 0x3C, 0x36, 0x21, 0x8A, 0x4D, 0x00,
 0x04, 0x8B, 0x59, 0x00, 0x3B, 0x8E, 0x3C, 0x00, 0x00, 0x98, 0x35, 0x3C, 0x00, 0x9E, 0x35, 0x36,
 0x10, 0x90, 0x3C, 0x40, 0x00, 0x91, 0x48, 0x40, 0x00, 0x94, 0x3C, 0x40, 0x00, 0x95, 0x48, 0x40,
 0x01, 0x89, 0x3C, 0x00, 0x68, 0x88, 0x35, 0x00, 0x0F, 0x80, 0x3C, 0x00, 0x00, 0x84, 0x3C, 0x00,
 0x10, 0x81, 0x48, 0x00, 0x00, 0x85, 0x48, 0x00, 0x28, 0x8F, 0x41, 0x00, 0x00, 0x8E, 0x35, 0x00,
 0x00, 0x9A, 0x3A, 0x33, 0x00, 0xFF, 0x00, 0x02, 0x00, 0x4A, 0x00, 0x9E, 0x2E, 0x36, 0x00, 0xFF,
 0x00, 0x02, 0x00, 0x59, 0x00, 0xFF, 0x00, 0x02, 0x00, 0x5A, 0x00, 0x9F, 0x41, 0x5B, 0x08, 0x90,
 0x3E, 0x3F, 0x00, 0x91, 0x4A, 0x43, 0x00, 0x94, 0x3E, 0x3F, 0x00, 0x95, 0x4A, 0x43, 0x78, 0x80,
 0x3E, 0x00, 0x00, 0x81, 0x4A, 0x00, 0x00, 0x84, 0x3E, 0x00, 0x00, 0x85, 0x4A, 0x00, 0x40, 0x8E,
 0x2E, 0x00, 0x48, 0x8A, 0x3A, 0x00, 0x30, 0x90, 0x3A, 0x48, 0x00, 0x94, 0x3A, 0x48, 0x08, 0x91,
 0x46, 0x45, 0x00, 0x95, 0x46, 0x45, 0x28, 0x80, 0x3A, 0x00, 0x00, 0x84, 0x3A, 0x00, 0x18, 0x81,
 0x46, 0x00, 0x00, 0x85, 0x46, 0x00, 0x08, 0x90, 0x3E, 0x4B, 0x00, 0x94, 0x3E, 0x4B, 0x08, 0x91,
 0x4A, 0x4D, 0x00, 0x95, 0x4A, 0x4D, 0x81, 0x08, 0x80, 0x3E, 0x00, 0x00, 0x84, 0x3E, 0x00, 0x08,
 0x81, 0x4A, 0x00, 0x00, 0x85, 0x4A, 0x00, 0x20, 0x8F, 0x41, 0x00, 0x00, 0x99, 0x2B, 0x34, 0x00,
 0x9A, 0x43, 0x24, 0x00, 0x9B, 0x4F, 0x3B, 0x00, 0x9E, 0x37, 0x36, 0x00, 0xFF, 0x00, 0x02, 0x00,
 0x4E, 0x00, 0xFF, 0x00, 0x02, 0x00, 0x36, 0x00, 0x9F, 0x43, 0x4D, 0x08, 0x90, 0x43, 0x54, 0x00,
 0x94, 0x43, 0x54, 0x08, 0x91, 0x4F, 0x52, 0x00, 0x95, 0x4F, 0x52, 0x81, 0x30, 0x89, 0x2B, 0x00,
 0x60, 0x8E, 0x37, 0x00, 0x00, 0x99, 0x37, 0x35, 0x00, 0x9E, 0x43, 0x36, 0x1A, 0x8B, 0x4F, 0x00,
 0x1D, 0x8A, 0x43, 0x00, 0x19, 0x8E, 0x43, 0x00, 0x10, 0x98, 0x2B, 0x38, 0x00, 0x9E, 0x37, 0x36,
 0x0A, 0x89, 0x37, 0x00, 0x76, 0x88, 0x2B, 0x00, 0x18, 0x80, 0x43, 0x00, 0x00, 0x84, 0x43, 0x00,
 0x08, 0x81, 0x4F, 0x00, 0x00, 0x85, 0x4F, 0x00, 0x20, 0x8F, 0x43, 0x00, 0x00, 0x8E, 0x37, 0x00,
 0x00, 0x99, 0x30, 0x40, 0x00, 0x9A, 0x48, 0x3E, 0x00, 0x9B, 0x54, 0x3E, 0x00, 0x9E, 0x3C, 0x36,
 0x00, 0xFF, 0x00, 0x02, 0x00, 0x54, 0x00, 0xFF, 0x00, 0x02, 0x00, 0x5C, 0x00, 0x9F, 0x43, 0x56,
 0x08, 0x90, 0x3C, 0x42, 0x00, 0x91, 0x48, 0x44, 0x00, 0x94, 0x3C, 0x42, 0x00, 0x95, 0x48, 0x44,
 0x81, 0x28, 0x89, 0x30, 0x00, 0x70, 0x8E, 0x3C, 0x00, 0x00, 0x99, 0x3C, 0x3D, 0x00, 0x9E, 0x43,
 0x36, 0x21, 0x8A, 0x48, 0x00, 0x04, 0x8B, 0x54, 0x00, 0x3B, 0x8E, 0x43, 0x00, 0x00, 0x98, 0x37,
 0x3C, 0x00, 0x9E, 0x3C, 0x36, 0x11, 0x89, 0x3C, 0x00, 0x68, 0x88, 0x37, 0x00, 0x17, 0x80, 0x3C,
 0x00, 0x00, 0x84, 0x3C, 0x00, 0x08, 0x81, 0x48, 0x00, 0x00, 0x85, 0x48, 0x00, 0x28, 0x8F, 0x43,
 0x00, 0x00, 0x8E, 0x3C, 0x00, 0x00, 0x99, 0x37, 0x3C, 0x00, 0x9A, 0x35, 0x33, 0x00, 0xFF, 0x00,
 0x02, 0x00, 0x3F, 0x00, 0x9E, 0x35, 0x3F, 0x00, 0xFF, 0x00, 0x02, 0x00, 0x57, 0x00, 0xFF, 0x00,
 0x02, 0x00, 0x57, 0x00, 0x9F, 0x3C, 0x59, 0x08, 0x90, 0x41, 0x43, 0x00, 0x94, 0x41, 0x43, 0x08,
 0x91, 0x4D, 0x42, 0x00, 0x95, 0x4D, 0x42, 0x69, 0x89, 0x37, 0x00, 0x1F, 0x80, 0x41, 0x00, 0x00,
 0x84, 0x41, 0x00, 0x00, 0x81, 0x4D, 0x00, 0x00, 0x85, 0x4D, 0x00, 0x70, 0x8A, 0x35, 0x00, 0x20,
 0x90, 0x48, 0x3F, 0x00, 0x94, 0x48, 0x3F, 0x05, 0x8E, 0x35, 0x00, 0x03, 0x91, 0x3C, 0x42, 0x00,
 0x95, 0x3C, 0x42, 0x30, 0x80, 0x48, 0x00, 0x00, 0x84, 0x48, 0x00, 0x08, 0x81, 0x3C, 0x00, 0x00,
 0x85, 0x3C, 0x00, 0x20, 0x90, 0x4D, 0x42, 0x00, 0x94, 0x4D, 0x42, 0x08, 0x91, 0x41, 0x41, 0x00,
 0x95, 0x41, 0x41, 0x81, 0x00, 0x80, 0x4D, 0x00, 0x00, 0x84, 0x4D, 0x00, 0x10, 0x81, 0x41, 0x00,
 0x00, 0x85, 0x41, 0x00, 0x20, 0x8F, 0x3C, 0x00, 0x00, 0x9A, 0x41, 0x24, 0x00, 0x9E, 0x30, 0x22,
 0x00, 0xFF, 0x00, 0x02, 0x00, 0x58, 0x00, 0xFF, 0x00, 0x02, 0x00, 0x58, 0x00, 0x9F, 0x41, 0x58,
 0x08, 0x90, 0x45, 0x4B, 0x00, 0x94, 0x45, 0x4B, 0x08, 0x91, 0x51, 0x4B, 0x00, 0x95, 0x51, 0x4B,
 0x81, 0x08, 0x80, 0x45, 0x00, 0x00, 0x84, 0x45, 0x00, 0x08, 0x81, 0x51, 0x00, 0x00, 0x85, 0x51,
 0x00, 0x20, 0x99, 0x29, 0x34, 0x60, 0x8E, 0x30, 0x00, 0x00, 0x9E, 0x41, 0x22, 0x08, 0x90, 0x41,
 0x4A, 0x00, 0x94, 0x41, 0x4A, 0x08, 0x91, 0x4D, 0x4D, 0x00, 0x95, 0x4D, 0x4D, 0x20, 0x80, 0x41,
 0x00, 0x00, 0x84, 0x41, 0x00, 0x07, 0x8A, 0x41, 0x00, 0x0B, 0x8E, 0x41, 0x00, 0x06, 0x81, 0x4D,
 0x00, 0x00, 0x85, 0x4D, 0x00, 0x18, 0x89, 0x29, 0x00, 0x00, 0x9E, 0x3C, 0x22, 0x10, 0x90, 0x45,
 0x4D, 0x00, 0x91, 0x51, 0x4D, 0x00, 0x94, 0x45, 0x4D, 0x00, 0x95, 0x51, 0x4D, 0x50, 0x99, 0x35,
 0x35, 0x38, 0x80, 0x45, 0x00, 0x00, 0x84, 0x45, 0x00, 0x10, 0x81, 0x51, 0x00, 0x00, 0x85, 0x51,
 0x00, 0x07, 0x8E, 0x3C, 0x00, 0x11, 0x8F, 0x41, 0x00, 0x00, 0x98, 0x30, 0x38, 0x00, 0x9A, 0x4D,
 0x24, 0x00, 0x9E, 0x3C, 0x26, 0x00, 0xFF, 0x00, 0x02, 0x00, 0x57, 0x00, 0xFF, 0x00, 0x02, 0x00,
 0x57, 0x00, 0x9F, 0x45, 0x57, 0x08, 0x90, 0x48, 0x56, 0x00, 0x94, 0x48, 0x56, 0x02, 0x89, 0x35,
 0x00, 0x06, 0x91, 0x54, 0x55, 0x00, 0x95, 0x54, 0x55, 0x70, 0x88, 0x30, 0x00, 0x18, 0x80, 0x48,
 0x00, 0x00, 0x84, 0x48, 0x00, 0x00, 0x81, 0x54, 0x00, 0x00, 0x85, 0x54, 0x00, 0x28, 0x99, 0x30,
 0x40, 0x68, 0x90, 0x45, 0x57, 0x00, 0x94, 0x45, 0x57, 0x05, 0x8E, 0x3C, 0x00, 0x03, 0x91, 0x51,
 0x53, 0x00, 0x95, 0x51, 0x53, 0x20, 0x80, 0x45, 0x00, 0x00, 0x84, 0x45, 0x00, 0x07, 0x8A, 0x4D,
 0x00, 0x09, 0x81, 0x51, 0x00, 0x00, 0x85, 0x51, 0x00, 0x10, 0x89, 0x30, 0x00, 0x10, 0x9A, 0x52,
 0x22, 0x00, 0x9B, 0x5E, 0x22, 0x08, 0x90, 0x48, 0x52, 0x00, 0x94, 0x48, 0x52, 0x08, 0x91, 0x54,
 0x52, 0x00, 0x95, 0x54, 0x52, 0x20, 0x9C, 0x54, 0x1D, 0x00, 0x9D, 0x60, 0x1D, 0x23, 0x8B, 0x5E,
 0x00, 0x0D, 0x8A, 0x52, 0x00, 0x00, 0x99, 0x3C, 0x3D, 0x00, 0x9A, 0x56, 0x23, 0x00, 0x9B, 0x62,
 0x23, 0x30, 0x8C, 0x54, 0x00, 0x00, 0x8A, 0x56, 0x00, 0x00, 0x9C, 0x57, 0x22, 0x00, 0x9A, 0x63,
 0x22, 0x07, 0x8D, 0x60, 0x00, 0x01, 0x80, 0x48, 0x00, 0x00, 0x84, 0x48, 0x00, 0x08, 0x81, 0x54,
 0x00, 0x00, 0x85, 0x54, 0x00, 0x14, 0x8B, 0x62, 0x00, 0x0C, 0x8F, 0x45, 0x00, 0x00, 0x90, 0x59,
 0x3A, 0x00, 0x94, 0x59, 0x3A, 0x00, 0x98, 0x35, 0x3C, 0x00, 0x9B, 0x59, 0x3E, 0x00, 0x9D, 0x65,
 0x3E, 0x00, 0xFF, 0x00, 0x02, 0x00, 0x5F, 0x00, 0xFF, 0x00, 0x02, 0x00, 0x5F, 0x00, 0x9F, 0x48,
 0x5F, 0x08, 0x91, 0x4D, 0x3A, 0x00, 0x95, 0x4D, 0x3A, 0x09, 0x89, 0x3C, 0x00, 0x11, 0x8A, 0x63,
 0x00, 0x07, 0x8C, 0x57, 0x00, 0x50, 0x88, 0x35, 0x00, 0x47, 0x99, 0x41, 0x34, 0x81, 0x01, 0x8B,
 0x59, 0x00, 0x04, 0x8D, 0x65, 0x00, 0x3B, 0x89, 0x41, 0x00, 0x81, 0x40, 0x80, 0x59, 0x00, 0x00,
 0x84, 0x59, 0x00, 0x00, 0x8F, 0x48, 0x00, 0x00, 0x81, 0x4D, 0x00, 0x00, 0x85, 0x4D, 0x00, 0x00,
 0xFF, 0x2F, 0x00 }